<svg width="55" height="55" viewBox="0 0 55 55" fill="none" xmlns="http://www.w3.org/2000/svg">
<path d="M17.3984 36.8659V21.9338H13.9465V18.1073H22.1616V36.8659H17.3984Z" fill="#682615"/>
<path d="M40.0631 22.9507C40.0631 24.583 39.18 26.0279 37.7083 26.8309C39.7686 27.687 41.0532 29.48 41.0532 31.5672C41.0532 34.9388 38.056 37.0796 33.3732 37.0796C28.6903 37.0796 25.6933 34.9655 25.6933 31.6476C25.6933 29.5067 27.0847 27.687 29.2522 26.8309C27.6734 25.9477 26.6566 24.4493 26.6566 22.817C26.6566 19.8197 29.2791 17.92 33.3465 17.92C37.4673 17.92 40.0631 19.8734 40.0631 22.9507ZM30.1888 31.166C30.1888 32.7449 31.3128 33.6279 33.3732 33.6279C35.4336 33.6279 36.5843 32.7718 36.5843 31.166C36.5843 29.6141 35.4336 28.7307 33.3732 28.7307C31.3126 28.7307 30.1888 29.6139 30.1888 31.166ZM30.6706 23.2183C30.6706 24.5565 31.6339 25.3054 33.3732 25.3054C35.1125 25.3054 36.0759 24.5564 36.0759 23.2183C36.0759 21.8271 35.1125 21.051 33.3732 21.051C31.6337 21.051 30.6706 21.8271 30.6706 23.2183Z" fill="#682615"/>
<path d="M48.9791 20.225C49.771 22.5622 50.1727 25.0068 50.1727 27.5C50.1727 40.0017 40.0017 50.1727 27.4998 50.1727C14.998 50.1727 4.82678 40.0017 4.82678 27.5C4.82678 14.998 14.9978 4.82728 27.4997 4.82728C29.9932 4.82728 32.4378 5.22867 34.7747 6.02089V0.975358C32.4142 0.328297 29.9764 0 27.4998 0C12.3365 0 0 12.3365 0 27.5C0 42.6635 12.3365 55 27.4998 55C42.6632 55 54.9995 42.6635 54.9995 27.5C54.9995 25.0236 54.6714 22.5856 54.0243 20.225H48.9791Z" fill="#682615"/>
<path d="M47.6069 7.37723V2.10424H43.8152V7.37723H38.5738V11.1686H43.8152V16.4414H47.6069V11.1686H52.8795V7.37723H47.6069Z" fill="#682615"/>
</svg>
