<svg width="24" height="24" viewBox="0 0 24 24" fill="none" xmlns="http://www.w3.org/2000/svg">
<path d="M11.7016 24C18.1642 24 23.4031 18.6274 23.4031 12C23.4031 5.37258 18.1642 0 11.7016 0C5.23897 0 0 5.37258 0 12C0 18.6274 5.23897 24 11.7016 24Z" fill="url(#paint0_linear_256_18131)"/>
<path fill-rule="evenodd" clip-rule="evenodd" d="M11.7017 21.509C16.9916 21.509 21.3132 17.1258 21.3132 11.7485C21.3132 6.37128 16.9916 1.97607 11.7017 1.97607C6.41176 1.97607 2.09009 6.37128 2.09009 11.7485C2.09009 17.1258 6.41176 21.509 11.7017 21.509Z" fill="#ED0009"/>
<path d="M11.7017 21.8682C17.01 21.8682 21.3132 17.5037 21.3132 12.1197C21.3132 6.73577 17.01 2.37122 11.7017 2.37122C6.39334 2.37122 2.09009 6.73577 2.09009 12.1197C2.09009 17.5037 6.39334 21.8682 11.7017 21.8682Z" fill="url(#paint1_linear_256_18131)"/>
<path fill-rule="evenodd" clip-rule="evenodd" d="M19.8962 13.5209C19.542 17.4491 15.9996 20.5629 11.6897 20.5629C7.33266 20.5629 3.74308 17.3772 3.4715 13.3772C3.42427 12.7545 3.36523 12.7665 3.99104 12.4671C6.11645 11.4611 8.79683 10.8503 11.6897 10.8503C14.5945 10.8383 17.263 11.3892 19.3885 12.4431C20.0733 12.7784 19.967 12.8144 19.8962 13.5209Z" fill="url(#paint2_linear_256_18131)"/>
<path fill-rule="evenodd" clip-rule="evenodd" d="M11.7016 3.521C15.3975 3.521 18.5501 5.94016 19.7073 9.30543C18.2904 6.37129 15.2321 4.33537 11.7016 4.33537C8.17106 4.33537 5.10102 6.37129 3.68408 9.30543C4.84125 5.94016 7.99394 3.521 11.7016 3.521Z" fill="url(#paint3_linear_256_18131)"/>
<path fill-rule="evenodd" clip-rule="evenodd" d="M11.6897 19.2216C13.0138 19.2216 13.7643 20.418 12.4449 20.5308C12.1963 20.5521 11.9444 20.563 11.6897 20.563C11.4357 20.563 11.1844 20.5521 10.9364 20.531C9.63134 20.4197 10.3799 19.2216 11.6897 19.2216Z" fill="#F57100"/>
<path fill-rule="evenodd" clip-rule="evenodd" d="M11.7015 0.814331C16.4837 0.814331 20.5692 4.03589 22.0333 8.49098C20.4157 4.28738 16.3892 1.30535 11.7015 1.30535C7.01377 1.30535 2.9873 4.29936 1.36963 8.49098C2.8338 4.02391 6.9075 0.814331 11.7015 0.814331Z" fill="url(#paint4_linear_256_18131)"/>
<path fill-rule="evenodd" clip-rule="evenodd" d="M11.7015 23.3892C16.4837 23.3892 20.5692 20.1676 22.0333 15.7006C20.4157 19.9042 16.3892 22.8862 11.7015 22.8862C7.01377 22.8862 2.9873 19.8922 1.36963 15.7006C2.8338 20.1557 6.9075 23.3892 11.7015 23.3892Z" fill="#FFE156"/>
<path d="M17.3344 8.66724L10.0005 16.0011L6.66699 12.6675" stroke="white" stroke-width="2" stroke-linecap="round" stroke-linejoin="round"/>
<defs>
<linearGradient id="paint0_linear_256_18131" x1="11.6969" y1="18.8503" x2="11.6969" y2="0.497688" gradientUnits="userSpaceOnUse">
<stop stop-color="#FFBF00"/>
<stop offset="1" stop-color="#FFD033"/>
</linearGradient>
<linearGradient id="paint1_linear_256_18131" x1="11.697" y1="17.4131" x2="11.697" y2="4.1893" gradientUnits="userSpaceOnUse">
<stop stop-color="#ED0009"/>
<stop offset="1" stop-color="#F77A0E"/>
</linearGradient>
<linearGradient id="paint2_linear_256_18131" x1="11.7009" y1="18.6108" x2="11.7009" y2="12.786" gradientUnits="userSpaceOnUse">
<stop stop-color="#ED0009"/>
<stop offset="1" stop-color="#F77A0E"/>
</linearGradient>
<linearGradient id="paint3_linear_256_18131" x1="11.697" y1="9.14974" x2="11.697" y2="3.52635" gradientUnits="userSpaceOnUse">
<stop stop-color="#F57100"/>
<stop offset="0.44" stop-color="#FFB809"/>
<stop offset="1" stop-color="#FFF795"/>
</linearGradient>
<linearGradient id="paint4_linear_256_18131" x1="11.6969" y1="0.886187" x2="11.6969" y2="5.3925" gradientUnits="userSpaceOnUse">
<stop stop-color="white"/>
<stop offset="1" stop-color="#FFD746"/>
</linearGradient>
</defs>
</svg>
