<svg width="246" height="194" viewBox="0 0 246 194" fill="none" xmlns="http://www.w3.org/2000/svg">
<path d="M120.454 13.9437V15.2234L68.5838 29.5661L66.3069 28.3197L120.454 13.9437Z" fill="#7C433E"/>
<g style="mix-blend-mode:multiply" opacity="0.43">
<path d="M210.349 82.0842C210.349 82.9484 203.02 83.6464 193.962 83.6464C184.904 83.6464 177.575 82.9484 177.575 82.0842C177.575 81.22 184.904 80.5386 193.962 80.5386C203.02 80.5386 210.349 81.2366 210.349 82.0842Z" fill="#BD4013"/>
</g>
<path d="M199.231 80.9375C199.231 81.7851 194.245 82.4831 187.962 82.4831C181.68 82.4831 176.694 81.7851 176.694 80.9375C176.694 80.0899 181.68 79.3752 187.962 79.3752C194.245 79.3752 199.231 80.1397 199.231 80.9375Z" fill="#F99A11"/>
<path d="M199.214 79.4418H176.678V81.004H199.214V79.4418Z" fill="#F99A11"/>
<path d="M179.088 80.4054L179.47 82.0341L180.966 82.2336V80.6713L179.088 80.4054Z" fill="#FFFF70"/>
<path d="M198.233 80.09V81.6356L198.715 81.4528V79.9072L198.233 80.09Z" fill="#FFFF70"/>
<g style="mix-blend-mode:multiply" opacity="0.2">
<path d="M192.367 80.8876V82.4332L194.926 82.2338L195.342 80.6217L192.367 80.8876Z" fill="#BD4013"/>
</g>
<path d="M199.231 79.4415C199.231 80.3057 194.245 81.0038 187.962 81.0038C181.68 81.0038 176.694 80.3057 176.694 79.4415C176.694 78.5773 181.68 77.8793 187.962 77.8793C194.245 77.8793 199.231 78.5773 199.231 79.4415Z" fill="#FFE045"/>
<g style="mix-blend-mode:multiply" opacity="0.43">
<path d="M237.688 126.724C253.347 126.724 266.041 125.519 266.041 124.032C266.041 122.545 253.347 121.34 237.688 121.34C222.029 121.34 209.335 122.545 209.335 124.032C209.335 125.519 222.029 126.724 237.688 126.724Z" fill="#BD4013"/>
</g>
<path d="M246.812 122.137C246.812 123.616 238.07 124.83 227.318 124.83C216.565 124.83 207.806 123.616 207.806 122.137C207.806 120.658 216.548 119.428 227.318 119.428C238.087 119.428 246.812 120.641 246.812 122.137Z" fill="#F99A11"/>
<path d="M246.796 119.445H207.806V122.137H246.796V119.445Z" fill="#F99A11"/>
<path d="M211.978 121.107L212.626 123.916L215.235 124.248V121.556L211.978 121.107Z" fill="#FFFF70"/>
<g style="mix-blend-mode:multiply" opacity="0.2">
<path d="M234.946 121.921V124.614L239.384 124.248L240.098 121.472L234.946 121.921Z" fill="#BD4013"/>
</g>
<path d="M246.812 119.428C246.812 120.924 238.07 122.137 227.318 122.137C216.565 122.137 207.806 120.924 207.806 119.428C207.806 117.933 216.548 116.736 227.318 116.736C238.087 116.736 246.812 117.949 246.812 119.428Z" fill="url(#paint0_linear_1001_6068)"/>
<g style="mix-blend-mode:multiply" opacity="0.29">
<path d="M150.286 144.292C210.856 144.292 259.959 141.799 259.959 138.724C259.959 135.649 210.856 133.156 150.286 133.156C89.7152 133.156 40.613 135.649 40.613 138.724C40.613 141.799 89.7152 144.292 150.286 144.292Z" fill="#BD4013"/>
</g>
<g style="mix-blend-mode:multiply" opacity="0.43">
<path d="M182.761 155.277C198.42 155.277 211.114 154.071 211.114 152.584C211.114 151.097 198.42 149.892 182.761 149.892C167.102 149.892 154.408 151.097 154.408 152.584C154.408 154.071 167.102 155.277 182.761 155.277Z" fill="#BD4013"/>
</g>
<path d="M191.885 150.74C191.885 152.236 183.143 153.432 172.39 153.432C161.637 153.432 152.878 152.236 152.878 150.74C152.878 149.244 161.62 148.047 172.39 148.047C183.159 148.047 191.885 149.211 191.885 150.74Z" fill="#F99A11"/>
<path d="M191.868 147.998H152.878V150.69H191.868V147.998Z" fill="#F99A11"/>
<path d="M157.05 149.676L157.698 152.468L160.307 152.817V150.125L157.05 149.676Z" fill="#FFFF70"/>
<path d="M190.173 149.094V151.803L191.021 151.488V148.795L190.173 149.094Z" fill="#FFFF70"/>
<g style="mix-blend-mode:multiply" opacity="0.2">
<path d="M180.018 150.49V153.183L184.456 152.817L185.17 150.042L180.018 150.49Z" fill="#BD4013"/>
</g>
<path d="M172.373 150.69C183.14 150.69 191.868 149.484 191.868 147.997C191.868 146.51 183.14 145.305 172.373 145.305C161.607 145.305 152.878 146.51 152.878 147.997C152.878 149.484 161.607 150.69 172.373 150.69Z" fill="url(#paint1_linear_1001_6068)"/>
<path d="M119.041 44.7565L119.406 46.3686L120.919 46.568V45.0058L119.041 44.7565Z" fill="#FFFF70"/>
<g style="mix-blend-mode:multiply" opacity="0.2">
<path d="M91.8513 11.5339V12.3649C91.8513 12.8136 94.5603 13.1959 97.8842 13.1959C101.208 13.1959 103.901 12.8136 103.901 12.3649V11.5339H91.8513Z" fill="#BD4013"/>
</g>
<path d="M97.8676 12.3648C101.19 12.3648 103.884 11.9928 103.884 11.5339C103.884 11.0749 101.19 10.7029 97.8676 10.7029C94.5449 10.7029 91.8513 11.0749 91.8513 11.5339C91.8513 11.9928 94.5449 12.3648 97.8676 12.3648Z" fill="#FFE045"/>
<path d="M78.7387 19.1292C78.7387 19.6111 75.8802 20.01 72.3402 20.01C68.8002 20.01 65.9417 19.6111 65.9417 19.1292C65.9417 18.6472 68.8002 18.2317 72.3402 18.2317C75.8802 18.2317 78.7387 18.6306 78.7387 19.1292Z" fill="#F99A11"/>
<path d="M78.7216 18.2483H65.9246V19.1291H78.7216V18.2483Z" fill="#F99A11"/>
<path d="M67.3042 18.7969L67.5202 19.711L68.3679 19.8273V18.9299L67.3042 18.7969Z" fill="#FFFF70"/>
<path d="M78.1733 18.5972V19.4946L78.4559 19.3949V18.4974L78.1733 18.5972Z" fill="#FFFF70"/>
<g style="mix-blend-mode:multiply" opacity="0.2">
<path d="M74.8494 19.0625V19.9434L76.2953 19.827L76.5279 18.913L74.8494 19.0625Z" fill="#BD4013"/>
</g>
<path d="M78.7387 18.2315C78.7387 18.7301 75.8802 19.129 72.3402 19.129C68.8002 19.129 65.9417 18.7301 65.9417 18.2315C65.9417 17.733 68.8002 17.3507 72.3402 17.3507C75.8802 17.3507 78.7387 17.7828 78.7387 18.2315Z" fill="#FFE045"/>
<path d="M65.8916 23.6661C65.8916 24.2311 62.5676 24.6965 58.3795 24.6965C54.1914 24.6965 50.8674 24.2311 50.8674 23.6661C50.8674 23.101 54.1914 22.619 58.3795 22.619C62.5676 22.619 65.8916 23.0844 65.8916 23.6661Z" fill="#F99A11"/>
<path d="M65.875 22.619H50.8508V23.666H65.875V22.619Z" fill="#F99A11"/>
<path d="M52.4629 23.2675L52.7122 24.3477L53.7094 24.4807V23.4503L52.4629 23.2675Z" fill="#FFFF70"/>
<path d="M65.2266 23.0515V24.0819L65.5423 23.9656V22.9352L65.2266 23.0515Z" fill="#FFFF70"/>
<g style="mix-blend-mode:multiply" opacity="0.2">
<path d="M61.3047 23.583V24.63L63.0165 24.4804L63.299 23.4167L61.3047 23.583Z" fill="#BD4013"/>
</g>
<path d="M65.8916 22.6193C65.8916 23.201 62.5676 23.6664 58.3795 23.6664C54.1914 23.6664 50.8674 23.201 50.8674 22.6193C50.8674 22.0376 54.1914 21.5723 58.3795 21.5723C62.5676 21.5723 65.8916 22.0376 65.8916 22.6193Z" fill="#FFE045"/>
<g style="mix-blend-mode:multiply" opacity="0.2">
<path d="M31.0405 19.4448V20.2758C31.0405 20.7245 33.7329 21.1068 37.0568 21.1068C40.3807 21.1068 43.0897 20.7245 43.0897 20.2758V19.4448H31.0405Z" fill="#BD4013"/>
</g>
<path d="M37.0568 20.2259C40.3795 20.2259 43.0731 19.8539 43.0731 19.3949C43.0731 18.936 40.3795 18.564 37.0568 18.564C33.7341 18.564 31.0405 18.936 31.0405 19.3949C31.0405 19.8539 33.7341 20.2259 37.0568 20.2259Z" fill="#FFE045"/>
<g style="mix-blend-mode:multiply" opacity="0.2">
<path d="M70.8276 13.5116V14.3426C70.8276 14.7913 73.52 15.1736 76.8439 15.1736C80.1678 15.1736 82.8602 14.7913 82.8602 14.3426V13.5116H70.8276Z" fill="#BD4013"/>
</g>
<path d="M76.8439 14.3425C80.1666 14.3425 82.8602 13.9705 82.8602 13.5115C82.8602 13.0526 80.1666 12.6805 76.8439 12.6805C73.5212 12.6805 70.8276 13.0526 70.8276 13.5115C70.8276 13.9705 73.5212 14.3425 76.8439 14.3425Z" fill="#FFE045"/>
<g style="mix-blend-mode:multiply" opacity="0.2">
<path d="M82.8931 15.1735V16.0044C82.8931 16.4698 85.5854 16.8354 88.9094 16.8354C92.2333 16.8354 94.9257 16.4698 94.9257 16.0044V15.1735H82.8931Z" fill="#BD4013"/>
</g>
<path d="M88.9094 16.0045C92.2321 16.0045 94.9257 15.6324 94.9257 15.1735C94.9257 14.7146 92.2321 14.3425 88.9094 14.3425C85.5867 14.3425 82.8931 14.7146 82.8931 15.1735C82.8931 15.6324 85.5867 16.0045 88.9094 16.0045Z" fill="#FFE045"/>
<g style="mix-blend-mode:multiply" opacity="0.2">
<path d="M27.417 18.1318V18.9795C27.417 19.4282 30.126 19.8104 33.4499 19.8104C36.7738 19.8104 39.4662 19.4282 39.4662 18.9795V18.1318H27.417Z" fill="#BD4013"/>
</g>
<path d="M39.4662 18.1319C39.4662 18.5972 36.7738 18.9795 33.4499 18.9795C30.126 18.9795 27.417 18.5972 27.417 18.1319C27.417 17.6665 30.126 17.3009 33.4499 17.3009C36.7738 17.3009 39.4662 17.6832 39.4662 18.1319Z" fill="#FFE045"/>
<path d="M91.8181 80.4221H92.084C95.6658 80.8079 99.2683 80.9689 102.87 80.9041C108.605 80.8216 114.309 80.0402 119.855 78.5773C140.53 73.0098 152.729 58.3181 155.87 43.4934C158.745 29.965 153.377 18.564 142.574 15.0739C138.03 13.6051 133.213 13.179 128.481 13.8274C114.205 15.7885 103.236 26.907 98.9645 31.8929C97.8344 33.2058 97.1863 34.0867 97.0533 34.2861L98.4826 35.3332L102.322 38.1419C102.455 37.9591 113.108 23.7659 127.583 20.6913C131.887 19.7438 136.365 19.9502 140.563 21.2896C148.142 23.7327 151.649 31.9095 149.488 42.1306C146.929 54.1798 137.223 66.096 120.803 71.4309C111.814 74.2124 102.341 75.073 92.9981 73.9571H92.5162L91.8181 80.4221Z" fill="#952A3B"/>
<path d="M4.26637 46.6011C5.5969 51.7371 7.88627 56.5752 11.0139 60.8608C18.0537 70.2827 28.1554 76.9584 39.583 79.7406C45.8167 81.3476 52.2435 82.0803 58.6789 81.9178C60.5071 81.9178 62.3519 81.7682 64.2631 81.6187C66.1744 81.4691 67.8529 81.253 69.6977 80.9705L68.7504 74.5055C66.6563 74.8046 64.6121 75.0373 62.6344 75.1702C54.4105 75.8919 46.1251 74.9827 38.2534 72.4945C22.8969 67.5086 13.4736 56.4067 10.5818 44.989C8.0224 34.8677 11.1967 26.5579 18.6756 23.8157C20.9107 23.003 23.2495 22.5106 25.6226 22.3532C36.6081 21.6717 46.3804 28.4359 52.2139 33.588C54.162 35.3001 55.9735 37.1616 57.6319 39.1555L62.7507 35.0838C58.9433 30.5179 54.5057 26.5168 49.5714 23.2008C42.7574 18.647 33.7828 14.7746 23.7778 15.9546C21.301 16.2274 18.864 16.7851 16.515 17.6166C15.9167 17.8492 15.3516 18.0819 14.8531 18.3478C5.24693 22.8684 1.05879 33.9536 4.26637 46.6011Z" fill="#952A3B"/>
<path d="M94.4275 80.422H94.6934C98.2807 80.808 101.889 80.969 105.496 80.904C111.226 80.8214 116.924 80.04 122.465 78.5772C143.14 73.0096 155.355 58.3179 158.479 43.4932C161.355 29.9649 156.003 18.5638 145.184 15.0737C140.645 13.6058 135.833 13.1797 131.107 13.8272C116.814 15.7884 105.845 26.9069 101.574 31.8927C100.46 33.2057 99.7956 34.0865 99.6627 34.286L101.092 35.333L104.931 38.1417C105.081 37.9589 115.717 23.7658 130.193 20.6911C134.497 19.7437 138.974 19.95 143.173 21.2894C150.751 23.7325 154.258 31.9094 152.097 42.1304C149.538 54.1796 139.849 66.0959 123.412 71.4308C114.429 74.2114 104.961 75.072 95.6241 73.9569H95.1255L94.4275 80.422Z" fill="url(#paint2_linear_1001_6068)"/>
<g style="mix-blend-mode:multiply" opacity="0.6">
<path d="M101.075 35.35L104.914 38.1587C105.064 37.9759 115.7 23.7828 130.176 20.7081L131.09 13.8442C116.797 15.8054 105.828 26.9239 101.557 31.9097L101.075 35.35Z" fill="#E59572"/>
</g>
<g style="mix-blend-mode:multiply" opacity="0.6">
<path d="M94.7266 80.4388C98.3139 80.8248 101.922 80.9858 105.529 80.9208C111.259 80.8382 116.957 80.0568 122.498 78.594L123.445 71.4476C114.462 74.2282 104.995 75.0889 95.6573 73.9738L94.7266 80.4388Z" fill="#E59572"/>
</g>
<path d="M1.05849 46.6011C2.39613 51.7345 4.6849 56.5714 7.80604 60.8608C14.8539 70.2818 24.9603 76.9568 36.3918 79.7406C42.6255 81.3476 49.0523 82.0803 55.4877 81.9178C57.3158 81.9178 59.1606 81.7682 61.0719 81.6187C62.9831 81.4691 64.6617 81.253 66.5065 80.9705L65.5592 74.5055C63.4651 74.8046 61.4375 75.0373 59.4431 75.1702C51.2193 75.8919 42.9338 74.9827 35.0622 72.4945C19.7057 67.5086 10.2824 56.4067 7.39055 44.989C4.83113 34.8677 8.00548 26.5579 15.4843 23.8157C17.7199 23.0047 20.0585 22.5123 22.4313 22.3532C33.4335 21.6717 43.1892 28.4359 48.9396 33.588C50.8876 35.3001 52.6991 37.1616 54.3575 39.1555L59.4764 35.0838C55.669 30.5179 51.2314 26.5168 46.297 23.2008C39.483 18.647 30.5084 14.7746 20.5034 15.9546C18.0269 16.2293 15.5901 16.7869 13.2407 17.6166C12.6424 17.8492 12.0773 18.0819 11.5787 18.3478C2.03905 22.8684 -2.13248 33.9536 1.05849 46.6011Z" fill="url(#paint3_linear_1001_6068)"/>
<g style="mix-blend-mode:multiply" opacity="0.6">
<path d="M35.0623 72.4945C35.5442 74.921 35.9763 77.3474 36.3918 79.7406C42.6255 81.3476 49.0523 82.0803 55.4878 81.9178C57.3159 81.9178 59.1607 81.7682 61.0719 81.6187L59.41 75.1702C51.1971 75.8875 42.9234 74.9783 35.0623 72.4945Z" fill="#E59572"/>
</g>
<g style="mix-blend-mode:multiply" opacity="0.6">
<path d="M20.5034 15.9546C21.0519 17.7495 21.7 19.9101 22.4313 22.3532C33.4335 21.6717 43.1892 28.4359 48.9396 33.588L46.2306 23.2008C39.483 18.647 30.5084 14.7746 20.5034 15.9546Z" fill="#E59572"/>
</g>
<path d="M77.0763 129.151L81.7796 129.068L85.9013 107.562L72.9214 107.811L77.0763 129.151Z" fill="url(#paint4_linear_1001_6068)"/>
<path d="M50.9672 137.261C50.6181 137.045 50.4187 136.829 50.4187 136.597C50.4187 135.832 51.9976 135.234 55.0722 133.605L76.1458 123.932L82.8768 123.799L103.302 135.284C104.732 135.682 105.513 136.131 105.513 136.597C105.513 138.458 93.1975 139.92 78.0072 139.92C65.476 139.92 54.9226 138.89 51.6153 137.494L50.9672 137.261Z" fill="url(#paint5_linear_1001_6068)"/>
<g style="mix-blend-mode:multiply" opacity="0.6">
<path d="M73.9352 112.964L80.5498 114.526L80.7326 123.849L94.6764 134.303L90.239 137.561L105.33 136.48L82.7934 123.799L85.4027 110.221L73.3701 110.138L73.9352 112.964Z" fill="#E59572"/>
</g>
<path d="M33.5164 6.81417C34.125 25.0561 36.4734 43.1984 40.5298 60.9941C46.7289 86.4885 58.3128 111.318 80.0346 110.853C125.39 109.955 123.711 6.29896 123.711 6.29896C88.3444 6.28234 66.5063 2.62603 33.5164 6.81417Z" fill="url(#paint6_linear_1001_6068)"/>
<path d="M35.8433 38.1586C35.8433 38.1586 65.9081 51.8864 121.949 38.1586L118.742 58.8998C118.742 58.8998 72.9382 77.1814 40.048 58.8998L35.8433 38.1586Z" fill="url(#paint7_linear_1001_6068)"/>
<path style="mix-blend-mode:color-dodge" d="M60.4735 3.4071C60.4735 3.4071 42.192 4.155 37.2892 9.34031C37.2892 9.34031 36.9069 96.9754 77.3092 107.728C77.3092 107.728 62.0524 99.3188 57.615 75.1373C51.9809 44.4908 60.4735 3.4071 60.4735 3.4071Z" fill="url(#paint8_linear_1001_6068)"/>
<g style="mix-blend-mode:multiply" opacity="0.75">
<path d="M119.656 10.6862C119.656 10.6862 118.493 62.0407 109.901 84.8262C101.823 106.166 85.9185 111.069 85.9185 111.069C85.9185 111.069 98.4829 95.4128 101.907 76.9651C108.372 42.0639 102.671 6.31521 102.671 6.31521C102.671 6.31521 114.471 5.70029 119.656 10.6862Z" fill="#E59572"/>
</g>
<path style="mix-blend-mode:color-dodge" d="M78.0071 124.747L76.2288 124.78L55.7036 135.899L65.0272 135.234L78.0071 124.747Z" fill="url(#paint9_linear_1001_6068)"/>
<path style="mix-blend-mode:color-dodge" d="M78.8049 123.517L78.0238 115.606L75.2649 114.575L76.9102 123.434L78.8049 123.517Z" fill="url(#paint10_linear_1001_6068)"/>
<path style="mix-blend-mode:color-dodge" d="M100.976 36.9619C96.7542 36.9619 93.181 46.6678 92.9815 58.7835C92.7821 70.8991 96.0562 80.7712 100.278 80.8376C104.499 80.9041 108.056 71.1318 108.255 59.0161C108.454 46.9004 105.18 37.0284 100.976 36.9619Z" fill="url(#paint11_radial_1001_6068)"/>
<path style="mix-blend-mode:color-dodge" d="M87.2476 74.7882C85.5856 74.7882 84.0899 78.2784 84.0234 82.6659C83.9569 87.0535 85.2865 90.6267 86.9983 90.6433C88.7101 90.6599 90.1394 87.1532 90.2225 82.7656C90.3056 78.3781 88.9594 74.8048 87.2476 74.7882Z" fill="url(#paint12_radial_1001_6068)"/>
<path style="mix-blend-mode:color-dodge" d="M83.9238 22.3033C81.7466 22.3033 79.8852 27.2892 79.7855 33.6379C79.6858 39.9866 81.4475 45.0556 83.5748 45.0888C85.7021 45.122 87.6134 40.1029 87.7131 33.7709C87.8128 27.4388 86.1176 22.3366 83.9238 22.3033Z" fill="url(#paint13_radial_1001_6068)"/>
<path style="mix-blend-mode:color-dodge" opacity="0.38" d="M33.5164 6.81385L33.6327 9.97157C33.6327 10.0547 33.6327 10.1544 33.6327 10.2375C34.3936 27.3069 36.6965 44.2726 40.5132 60.9273C82.3614 46.9668 113.257 15.938 121.268 7.31247C122.614 5.86657 122.215 6.28201 122.215 6.28201C93.6295 9.14059 66.4896 7.94402 33.5164 6.79727V6.81385Z" fill="url(#paint14_linear_1001_6068)"/>
<path style="mix-blend-mode:color-dodge" d="M62.0521 3.25724C62.0521 3.25724 67.7028 3.25724 77.0098 3.10767C77.0098 3.10767 61.4206 45.953 62.1851 85.491C62.2183 85.491 55.5539 57.9523 62.0521 3.25724Z" fill="url(#paint15_linear_1001_6068)"/>
<path style="mix-blend-mode:color-dodge" d="M78.9847 16.5115C95.9671 16.0075 109.665 13.2859 109.581 10.4325C109.496 7.57918 95.6605 5.67466 78.6781 6.17869C61.6957 6.68271 47.9974 9.40442 48.082 12.2578C48.1667 15.1111 62.0023 17.0156 78.9847 16.5115Z" fill="url(#paint16_radial_1001_6068)"/>
<path d="M78.8046 11.3678C103.606 11.3678 123.711 8.82306 123.711 5.68393C123.711 2.54479 103.606 0 78.8046 0C54.0036 0 33.8984 2.54479 33.8984 5.68393C33.8984 8.82306 54.0036 11.3678 78.8046 11.3678Z" fill="#FFEFA2"/>
<path d="M85.353 60.645L85.087 50.0584L75.7967 44.9728L66.7556 50.4905L67.0049 61.0938L76.3119 66.1628L85.353 60.645Z" fill="url(#paint17_radial_1001_6068)"/>
<g style="mix-blend-mode:soft-light">
<path d="M81.5141 58.9663L81.3479 51.9196L75.1655 48.5458L69.1492 52.2187L69.3154 59.2488L75.4978 62.6226L81.5141 58.9663Z" fill="#FFEFA2"/>
</g>
<path d="M67.0051 61.0935L69.3153 59.2487L75.4977 62.6224L76.3121 66.1624L67.0051 61.0935Z" fill="#FFEFA2"/>
<g style="mix-blend-mode:soft-light">
<path d="M66.7556 50.4905L69.1488 52.219L75.1651 48.546L75.7967 44.9728L74.6998 48.2801L69.1322 51.7203L66.7556 50.4905Z" fill="#FFEFA2"/>
</g>
<g style="mix-blend-mode:multiply" opacity="0.78">
<path d="M81.3479 51.9194L85.0873 50.058L85.3532 60.6447L81.5141 58.9661L81.3479 51.9194Z" fill="#BD4013"/>
</g>
<path d="M81.9959 85.4415L81.8463 79.4085L76.5613 76.5333L71.4092 79.6745L71.5588 85.6907L76.8438 88.5825L81.9959 85.4415Z" fill="url(#paint18_radial_1001_6068)"/>
<g style="mix-blend-mode:soft-light">
<path d="M79.8187 84.4775L79.719 80.4722L76.1956 78.5609L72.772 80.6384L72.8717 84.6603L76.395 86.5716L79.8187 84.4775Z" fill="#FFEFA2"/>
</g>
<path d="M71.5588 85.6906L72.8718 84.6602L76.3951 86.5714L76.8439 88.5824L71.5588 85.6906Z" fill="#FFEFA2"/>
<g style="mix-blend-mode:soft-light">
<path d="M71.4092 79.6745L72.772 80.6384L76.1956 78.5609L76.5613 76.5333L75.9297 78.4113L72.772 80.3559L71.4092 79.6745Z" fill="#FFEFA2"/>
</g>
<g style="mix-blend-mode:multiply" opacity="0.78">
<path d="M79.719 80.4721L81.8463 79.4084L81.9959 85.4414L79.8187 84.4775L79.719 80.4721Z" fill="#BD4013"/>
</g>
<path d="M81.9959 30.7128L81.8463 24.6799L76.5613 21.7881L71.4092 24.9292L71.5588 30.9621L76.8438 33.8539L81.9959 30.7128Z" fill="url(#paint19_radial_1001_6068)"/>
<g style="mix-blend-mode:soft-light">
<path d="M79.8187 29.7492L79.719 25.7439L76.1956 23.816L72.772 25.9101L72.8717 29.9154L76.395 31.8433L79.8187 29.7492Z" fill="#FFEFA2"/>
</g>
<path d="M71.5588 30.9623L72.8718 29.9153L76.3951 31.8432L76.8439 33.8541L71.5588 30.9623Z" fill="#FFEFA2"/>
<g style="mix-blend-mode:soft-light">
<path d="M71.4092 24.9292L72.772 25.9097L76.1956 23.8157L76.5613 21.7881L75.9297 23.6661L72.772 25.6272L71.4092 24.9292Z" fill="#FFEFA2"/>
</g>
<g style="mix-blend-mode:multiply" opacity="0.78">
<path d="M79.719 25.7434L81.8463 24.6798L81.9959 30.7127L79.8187 29.7488L79.719 25.7434Z" fill="#BD4013"/>
</g>
<g style="mix-blend-mode:multiply" opacity="0.29">
<path d="M121.983 142.53L83.2756 139.954L109.751 130.53L121.983 142.53Z" fill="#BD4013"/>
</g>
<path d="M107.856 100.166L122.066 125.76L121.983 142.53L107.69 133.738L93.48 108.16L93.5631 91.3745L107.856 100.166Z" fill="url(#paint20_linear_1001_6068)"/>
<path d="M93.5631 91.3745L102.455 86.4219L130.874 137.594L121.983 142.53L107.69 133.738L93.48 108.16L93.5631 91.3745Z" fill="url(#paint21_radial_1001_6068)"/>
<path d="M116.748 95.2302L130.957 120.808L130.874 137.594L116.581 128.802L102.372 103.208L102.455 86.4219L116.748 95.2302Z" fill="url(#paint22_radial_1001_6068)"/>
<g style="mix-blend-mode:soft-light">
<path d="M119.207 100.831L127.501 115.772L127.451 125.561L119.108 120.426L110.814 105.501L110.864 95.6958L119.207 100.831Z" fill="#FFEFA2"/>
</g>
<path opacity="0.74" d="M130.874 137.594L127.45 125.561L119.107 120.426L116.581 128.802L130.874 137.594Z" fill="#FFEFA2"/>
<g style="mix-blend-mode:multiply" opacity="0.78">
<path d="M102.372 103.208L110.814 105.501L110.864 95.6956L102.455 86.4219L102.372 103.208Z" fill="#BD4013"/>
</g>
<g style="mix-blend-mode:soft-light" opacity="0.7">
<path d="M107.69 133.738L116.581 128.802L130.874 137.594L121.983 142.53L107.69 133.738Z" fill="#FFEFA2"/>
</g>
<path opacity="0.74" d="M130.874 137.594L127.451 125.561L118.808 121.406L110.166 105.85L103.07 103.407L110.299 104.488L110.864 95.6958L110.814 105.501L119.108 120.426L127.451 124.614L130.874 137.594Z" fill="#FFEFA2"/>
<path opacity="0.74" d="M117.479 129.35L107.69 133.738L116.581 128.802L117.479 129.35Z" fill="#FFEFA2"/>
<path style="mix-blend-mode:color-dodge" opacity="0.64" d="M127.451 124.614L127.501 115.772L119.207 100.831L110.864 95.6958L110.814 105.501L118.526 104.039L126.37 115.606L127.451 124.614Z" fill="url(#paint23_linear_1001_6068)"/>
<g style="mix-blend-mode:multiply" opacity="0.78">
<path d="M93.48 108.16L100.66 104.172L93.5631 91.3745L93.48 108.16Z" fill="#BD4013"/>
</g>
<path style="mix-blend-mode:color-dodge" opacity="0.64" d="M95.1919 108.709L103.153 108.643L113.806 127.822L107.69 133.738L95.1919 108.709Z" fill="url(#paint24_linear_1001_6068)"/>
<g style="mix-blend-mode:soft-light">
<path d="M121.983 142.529L118.792 134.801L108.587 134.286L121.983 142.529Z" fill="#FFEFA2"/>
</g>
<path style="mix-blend-mode:color-dodge" opacity="0.64" d="M130.874 137.594L116.797 128.104L103.07 103.407L102.455 86.4219L102.372 103.208L116.581 128.802L130.874 137.594Z" fill="url(#paint25_linear_1001_6068)"/>
<path style="mix-blend-mode:color-dodge" d="M116.282 143.128C116.334 144.157 116.687 145.148 117.296 145.979C117.906 146.81 118.746 147.444 119.712 147.802C120.678 148.16 121.728 148.227 122.732 147.995C123.735 147.763 124.649 147.241 125.36 146.495C126.07 145.748 126.546 144.81 126.729 143.796C126.911 142.782 126.793 141.737 126.387 140.789C125.982 139.842 125.308 139.034 124.448 138.466C123.588 137.898 122.581 137.595 121.55 137.594C120.841 137.611 120.142 137.768 119.493 138.055C118.844 138.343 118.259 138.755 117.769 139.269C117.28 139.783 116.897 140.389 116.642 141.051C116.387 141.713 116.264 142.419 116.282 143.128Z" fill="url(#paint26_radial_1001_6068)"/>
<path style="mix-blend-mode:color-dodge" d="M155.455 148.812C148.99 157.122 143.256 163.62 142.674 163.171C142.092 162.723 146.879 155.559 153.361 147.183C159.842 138.807 165.559 132.375 166.141 132.824C166.723 133.273 161.936 140.419 155.455 148.812Z" fill="url(#paint27_radial_1001_6068)"/>
<path style="mix-blend-mode:color-dodge" d="M153.593 149.078C145.283 142.596 138.785 136.879 139.234 136.297C139.683 135.716 146.846 140.502 155.222 146.984C163.598 153.465 170.03 159.183 169.581 159.764C169.132 160.346 161.986 155.526 153.593 149.078Z" fill="url(#paint28_radial_1001_6068)"/>
<path style="mix-blend-mode:color-dodge" d="M154.574 149.31C149.256 149.992 144.851 149.958 144.768 149.227C144.685 148.496 148.923 147.366 154.241 146.684C159.56 146.003 163.964 146.036 164.064 146.767C164.163 147.499 159.909 148.629 154.574 149.31Z" fill="url(#paint29_radial_1001_6068)"/>
<path style="mix-blend-mode:color-dodge" d="M153.095 148.164C152.413 142.829 152.446 138.441 153.095 138.342C153.743 138.242 154.973 142.496 155.654 147.831C156.335 153.166 156.286 157.554 155.654 157.637C155.022 157.72 153.776 153.482 153.095 148.164Z" fill="url(#paint30_radial_1001_6068)"/>
<g style="mix-blend-mode:multiply" opacity="0.29">
<path d="M79.9822 178.393L99.7828 193.209L141.618 193.727L167.982 179.074L165.449 175.152L140.065 168.452L79.9822 178.393Z" fill="#BD4013"/>
</g>
<path d="M126.202 169.732H95.3706L79.9822 178.393L95.3706 187.027H126.202L141.618 178.393L126.202 169.732Z" fill="url(#paint31_linear_1001_6068)"/>
<path d="M141.618 178.393V167.662H79.9822V178.393L95.3706 187.027H126.202L141.618 178.393Z" fill="url(#paint32_radial_1001_6068)"/>
<path d="M126.202 159H95.3706L79.9822 167.661L95.3706 176.322H126.202L141.618 167.661L126.202 159Z" fill="url(#paint33_radial_1001_6068)"/>
<g style="mix-blend-mode:soft-light">
<path d="M119.774 159.626H101.798L92.8103 164.665L101.798 169.731H119.774L128.762 164.665L119.774 159.626Z" fill="#FFEFA2"/>
</g>
<path opacity="0.74" d="M79.9822 167.661L92.8104 164.665L101.798 169.731L95.3706 176.322L79.9822 167.661Z" fill="#FFEFA2"/>
<g style="mix-blend-mode:multiply" opacity="0.39">
<path d="M126.202 176.322L119.774 169.731L128.762 164.665L141.618 167.661L126.202 176.322Z" fill="#BD4013"/>
</g>
<g style="mix-blend-mode:soft-light" opacity="0.7">
<path d="M95.3706 187.027V176.323L79.9822 167.662V178.393L95.3706 187.027Z" fill="#FFEFA2"/>
</g>
<path opacity="0.74" d="M79.9822 167.662L92.8104 164.666L101.036 170.494H119.774L125.684 175.778L120.973 169.677L128.762 164.666L119.774 169.731H101.798L93.682 164.175L79.9822 167.662Z" fill="#FFEFA2"/>
<path opacity="0.74" d="M94.4175 175.778L95.3708 187.026V176.323L94.4175 175.778Z" fill="#FFEFA2"/>
<path style="mix-blend-mode:color-dodge" opacity="0.64" d="M93.6821 164.175L101.798 159.626H119.774L128.762 164.665L119.774 169.731L117.187 161.887L102.534 160.58L93.6821 164.175Z" fill="url(#paint34_linear_1001_6068)"/>
<g style="mix-blend-mode:multiply" opacity="0.39">
<path d="M126.203 187.026V178.392H141.618L126.203 187.026Z" fill="#BD4013"/>
</g>
<path style="mix-blend-mode:color-dodge" opacity="0.64" d="M124.813 185.746L120.81 178.392H97.6862L95.3711 187.026L124.813 185.746Z" fill="url(#paint35_linear_1001_6068)"/>
<g style="mix-blend-mode:soft-light">
<path d="M79.9822 178.392L88.725 177.357L94.4173 186.481L79.9822 178.392Z" fill="#FFEFA2"/>
</g>
<path style="mix-blend-mode:color-dodge" opacity="0.64" d="M79.9822 167.662L95.9153 175.778H125.684L141.618 167.662L126.202 176.323H95.3706L79.9822 167.662Z" fill="url(#paint36_linear_1001_6068)"/>
<defs>
<linearGradient id="paint0_linear_1001_6068" x1="207.806" y1="119.428" x2="246.812" y2="119.428" gradientUnits="userSpaceOnUse">
<stop stop-color="#FFEA25"/>
<stop offset="1" stop-color="#F89E00"/>
</linearGradient>
<linearGradient id="paint1_linear_1001_6068" x1="152.878" y1="147.997" x2="191.868" y2="147.997" gradientUnits="userSpaceOnUse">
<stop stop-color="#FFEA25"/>
<stop offset="1" stop-color="#F89E00"/>
</linearGradient>
<linearGradient id="paint2_linear_1001_6068" x1="159.472" y1="47.0475" x2="93.791" y2="48.3611" gradientUnits="userSpaceOnUse">
<stop stop-color="#F89E00"/>
<stop offset="1" stop-color="#FFEA25"/>
</linearGradient>
<linearGradient id="paint3_linear_1001_6068" x1="65.8201" y1="48.9206" x2="0.156046" y2="50.2339" gradientUnits="userSpaceOnUse">
<stop stop-color="#F89E00"/>
<stop offset="1" stop-color="#FFEA25"/>
</linearGradient>
<linearGradient id="paint4_linear_1001_6068" x1="86.1064" y1="118.877" x2="73.1265" y2="119.137" gradientUnits="userSpaceOnUse">
<stop stop-color="#F89E00"/>
<stop offset="1" stop-color="#FFEA25"/>
</linearGradient>
<linearGradient id="paint5_linear_1001_6068" x1="105.43" y1="131.877" x2="50.4187" y2="131.877" gradientUnits="userSpaceOnUse">
<stop stop-color="#F89E00"/>
<stop offset="1" stop-color="#FFEA25"/>
</linearGradient>
<linearGradient id="paint6_linear_1001_6068" x1="124.68" y1="57.3703" x2="34.485" y2="59.1742" gradientUnits="userSpaceOnUse">
<stop stop-color="#F89E00"/>
<stop offset="1" stop-color="#FFEA25"/>
</linearGradient>
<linearGradient id="paint7_linear_1001_6068" x1="35.8433" y1="52.601" x2="121.949" y2="52.601" gradientUnits="userSpaceOnUse">
<stop stop-color="#36956A"/>
<stop offset="1" stop-color="#1F634F"/>
</linearGradient>
<linearGradient id="paint8_linear_1001_6068" x1="58.2375" y1="108.727" x2="56.1448" y2="4.0905" gradientUnits="userSpaceOnUse">
<stop stop-color="#002F23"/>
<stop offset="0.1" stop-color="#053122"/>
<stop offset="0.22" stop-color="#153520"/>
<stop offset="0.36" stop-color="#2E3D1D"/>
<stop offset="0.51" stop-color="#524818"/>
<stop offset="0.66" stop-color="#805611"/>
<stop offset="0.82" stop-color="#B8670A"/>
<stop offset="0.99" stop-color="#F97A01"/>
<stop offset="1" stop-color="#FF7C00"/>
</linearGradient>
<linearGradient id="paint9_linear_1001_6068" x1="78.1131" y1="130.709" x2="55.5936" y2="131.159" gradientUnits="userSpaceOnUse">
<stop stop-color="#002F23"/>
<stop offset="0.1" stop-color="#053122"/>
<stop offset="0.22" stop-color="#153520"/>
<stop offset="0.36" stop-color="#2E3D1D"/>
<stop offset="0.51" stop-color="#524818"/>
<stop offset="0.66" stop-color="#805611"/>
<stop offset="0.82" stop-color="#B8670A"/>
<stop offset="0.99" stop-color="#F97A01"/>
<stop offset="1" stop-color="#FF7C00"/>
</linearGradient>
<linearGradient id="paint10_linear_1001_6068" x1="78.7062" y1="119.624" x2="75.349" y2="119.691" gradientUnits="userSpaceOnUse">
<stop stop-color="#002F23"/>
<stop offset="0.1" stop-color="#053122"/>
<stop offset="0.22" stop-color="#153520"/>
<stop offset="0.36" stop-color="#2E3D1D"/>
<stop offset="0.51" stop-color="#524818"/>
<stop offset="0.66" stop-color="#805611"/>
<stop offset="0.82" stop-color="#B8670A"/>
<stop offset="0.99" stop-color="#F97A01"/>
<stop offset="1" stop-color="#FF7C00"/>
</linearGradient>
<radialGradient id="paint11_radial_1001_6068" cx="0" cy="0" r="1" gradientUnits="userSpaceOnUse" gradientTransform="translate(100.054 60.7711) rotate(-89.0608) scale(21.9313 7.65249)">
<stop stop-color="#FF8E00"/>
<stop offset="0.01" stop-color="#F98B00"/>
<stop offset="0.18" stop-color="#B86600"/>
<stop offset="0.34" stop-color="#804700"/>
<stop offset="0.49" stop-color="#522E00"/>
<stop offset="0.64" stop-color="#2E1A00"/>
<stop offset="0.78" stop-color="#150C00"/>
<stop offset="0.9" stop-color="#050300"/>
<stop offset="1"/>
</radialGradient>
<radialGradient id="paint12_radial_1001_6068" cx="0" cy="0" r="1" gradientUnits="userSpaceOnUse" gradientTransform="translate(85.11 82.9162) rotate(-89.0978) scale(7.91607 3.09567)">
<stop stop-color="#FF8E00"/>
<stop offset="0.01" stop-color="#F98B00"/>
<stop offset="0.18" stop-color="#B86600"/>
<stop offset="0.34" stop-color="#804700"/>
<stop offset="0.49" stop-color="#522E00"/>
<stop offset="0.64" stop-color="#2E1A00"/>
<stop offset="0.78" stop-color="#150C00"/>
<stop offset="0.9" stop-color="#050300"/>
<stop offset="1"/>
</radialGradient>
<radialGradient id="paint13_radial_1001_6068" cx="0" cy="0" r="1" gradientUnits="userSpaceOnUse" gradientTransform="translate(83.0754 35.8417) rotate(-89.0608) scale(11.427 3.98722)">
<stop stop-color="#FF8E00"/>
<stop offset="0.01" stop-color="#F98B00"/>
<stop offset="0.18" stop-color="#B86600"/>
<stop offset="0.34" stop-color="#804700"/>
<stop offset="0.49" stop-color="#522E00"/>
<stop offset="0.64" stop-color="#2E1A00"/>
<stop offset="0.78" stop-color="#150C00"/>
<stop offset="0.9" stop-color="#050300"/>
<stop offset="1"/>
</radialGradient>
<linearGradient id="paint14_linear_1001_6068" x1="85.1099" y1="39.1243" x2="51.0072" y2="-5.88252" gradientUnits="userSpaceOnUse">
<stop stop-color="#FF7C00"/>
<stop offset="0.01" stop-color="#F97900"/>
<stop offset="0.18" stop-color="#B85900"/>
<stop offset="0.34" stop-color="#803E00"/>
<stop offset="0.49" stop-color="#522800"/>
<stop offset="0.64" stop-color="#2E1700"/>
<stop offset="0.78" stop-color="#150A00"/>
<stop offset="0.9" stop-color="#050300"/>
<stop offset="1"/>
</linearGradient>
<linearGradient id="paint15_linear_1001_6068" x1="69.2378" y1="85.9786" x2="67.5931" y2="3.74486" gradientUnits="userSpaceOnUse">
<stop/>
<stop offset="0.1" stop-color="#050300"/>
<stop offset="0.22" stop-color="#150A00"/>
<stop offset="0.36" stop-color="#2E1700"/>
<stop offset="0.51" stop-color="#522800"/>
<stop offset="0.66" stop-color="#803E00"/>
<stop offset="0.82" stop-color="#B85900"/>
<stop offset="0.99" stop-color="#F97900"/>
<stop offset="1" stop-color="#FF7C00"/>
</linearGradient>
<radialGradient id="paint16_radial_1001_6068" cx="0" cy="0" r="1" gradientUnits="userSpaceOnUse" gradientTransform="translate(77.6262 12.603) rotate(-91.7) scale(5.17185 30.8209)">
<stop stop-color="#FF8E00"/>
<stop offset="0.01" stop-color="#F98B00"/>
<stop offset="0.18" stop-color="#B86600"/>
<stop offset="0.34" stop-color="#804700"/>
<stop offset="0.49" stop-color="#522E00"/>
<stop offset="0.64" stop-color="#2E1A00"/>
<stop offset="0.78" stop-color="#150C00"/>
<stop offset="0.9" stop-color="#050300"/>
<stop offset="1"/>
</radialGradient>
<radialGradient id="paint17_radial_1001_6068" cx="0" cy="0" r="1" gradientUnits="userSpaceOnUse" gradientTransform="translate(76.0334 55.6697) rotate(88.61) scale(9.90528 9.90528)">
<stop stop-color="#F82E3E"/>
<stop offset="1" stop-color="#A90628"/>
</radialGradient>
<radialGradient id="paint18_radial_1001_6068" cx="0" cy="0" r="1" gradientUnits="userSpaceOnUse" gradientTransform="translate(76.6882 82.6519) rotate(88.61) scale(5.63404 5.63405)">
<stop stop-color="#F82E3E"/>
<stop offset="1" stop-color="#A90628"/>
</radialGradient>
<radialGradient id="paint19_radial_1001_6068" cx="0" cy="0" r="1" gradientUnits="userSpaceOnUse" gradientTransform="translate(76.6898 27.9071) rotate(88.61) scale(5.63403 5.63405)">
<stop stop-color="#F82E3E"/>
<stop offset="1" stop-color="#A90628"/>
</radialGradient>
<linearGradient id="paint20_linear_1001_6068" x1="120.107" y1="145.191" x2="91.4253" y2="94.2665" gradientUnits="userSpaceOnUse">
<stop offset="0.02" stop-color="#9F0E25"/>
<stop offset="0.11" stop-color="#950C26"/>
<stop offset="0.5" stop-color="#6F0628"/>
<stop offset="0.81" stop-color="#580229"/>
<stop offset="1" stop-color="#4F002A"/>
</linearGradient>
<radialGradient id="paint21_radial_1001_6068" cx="0" cy="0" r="1" gradientUnits="userSpaceOnUse" gradientTransform="translate(106.619 119.248) rotate(-119.389) scale(21.656 21.656)">
<stop offset="0.02" stop-color="#E50025"/>
<stop offset="0.3" stop-color="#BD0027"/>
<stop offset="0.6" stop-color="#970029"/>
<stop offset="0.85" stop-color="#80002A"/>
<stop offset="1" stop-color="#77002A"/>
</radialGradient>
<radialGradient id="paint22_radial_1001_6068" cx="0" cy="0" r="1" gradientUnits="userSpaceOnUse" gradientTransform="translate(114.63 114.737) rotate(-119.389) scale(21.4569 21.4569)">
<stop stop-color="#F82E3E"/>
<stop offset="1" stop-color="#A90628"/>
</radialGradient>
<linearGradient id="paint23_linear_1001_6068" x1="125.067" y1="127.485" x2="108.739" y2="98.495" gradientUnits="userSpaceOnUse">
<stop/>
<stop offset="1" stop-color="#544200"/>
</linearGradient>
<linearGradient id="paint24_linear_1001_6068" x1="109.361" y1="134.465" x2="95.6637" y2="110.145" gradientUnits="userSpaceOnUse">
<stop/>
<stop offset="1" stop-color="#544200"/>
</linearGradient>
<linearGradient id="paint25_linear_1001_6068" x1="125.385" y1="142.219" x2="96.703" y2="91.2941" gradientUnits="userSpaceOnUse">
<stop/>
<stop offset="1" stop-color="#544200"/>
</linearGradient>
<radialGradient id="paint26_radial_1001_6068" cx="0" cy="0" r="1" gradientUnits="userSpaceOnUse" gradientTransform="translate(119.52 144.655) rotate(180) scale(5.21391 5.56939)">
<stop stop-color="#836556"/>
<stop offset="0.11" stop-color="#685044"/>
<stop offset="0.29" stop-color="#43332C"/>
<stop offset="0.48" stop-color="#261D19"/>
<stop offset="0.65" stop-color="#110D0B"/>
<stop offset="0.83" stop-color="#040303"/>
<stop offset="1"/>
</radialGradient>
<radialGradient id="paint27_radial_1001_6068" cx="0" cy="0" r="1" gradientUnits="userSpaceOnUse" gradientTransform="translate(138.642 139.12) rotate(38.6598) scale(1.22806 19.1397)">
<stop stop-color="#836556"/>
<stop offset="0.11" stop-color="#685044"/>
<stop offset="0.29" stop-color="#43332C"/>
<stop offset="0.48" stop-color="#261D19"/>
<stop offset="0.65" stop-color="#110D0B"/>
<stop offset="0.83" stop-color="#040303"/>
<stop offset="1"/>
</radialGradient>
<radialGradient id="paint28_radial_1001_6068" cx="0" cy="0" r="1" gradientUnits="userSpaceOnUse" gradientTransform="translate(158.057 141.589) rotate(128.66) scale(1.22806 19.1397)">
<stop stop-color="#836556"/>
<stop offset="0.11" stop-color="#685044"/>
<stop offset="0.29" stop-color="#43332C"/>
<stop offset="0.48" stop-color="#261D19"/>
<stop offset="0.65" stop-color="#110D0B"/>
<stop offset="0.83" stop-color="#040303"/>
<stop offset="1"/>
</radialGradient>
<radialGradient id="paint29_radial_1001_6068" cx="0" cy="0" r="1" gradientUnits="userSpaceOnUse" gradientTransform="translate(159.463 151.596) rotate(81.8699) scale(1.35617 9.65587)">
<stop stop-color="#836556"/>
<stop offset="0.11" stop-color="#685044"/>
<stop offset="0.29" stop-color="#43332C"/>
<stop offset="0.48" stop-color="#261D19"/>
<stop offset="0.65" stop-color="#110D0B"/>
<stop offset="0.83" stop-color="#040303"/>
<stop offset="1"/>
</radialGradient>
<radialGradient id="paint30_radial_1001_6068" cx="0" cy="0" r="1" gradientUnits="userSpaceOnUse" gradientTransform="translate(156.542 146.455) rotate(171.87) scale(1.35616 9.65586)">
<stop stop-color="#836556"/>
<stop offset="0.11" stop-color="#685044"/>
<stop offset="0.29" stop-color="#43332C"/>
<stop offset="0.48" stop-color="#261D19"/>
<stop offset="0.65" stop-color="#110D0B"/>
<stop offset="0.83" stop-color="#040303"/>
<stop offset="1"/>
</radialGradient>
<linearGradient id="paint31_linear_1001_6068" x1="79.9822" y1="178.393" x2="141.618" y2="178.393" gradientUnits="userSpaceOnUse">
<stop offset="0.02" stop-color="#9F0E25"/>
<stop offset="0.11" stop-color="#950C26"/>
<stop offset="0.5" stop-color="#6F0628"/>
<stop offset="0.81" stop-color="#580229"/>
<stop offset="1" stop-color="#4F002A"/>
</linearGradient>
<radialGradient id="paint32_radial_1001_6068" cx="0" cy="0" r="1" gradientUnits="userSpaceOnUse" gradientTransform="translate(110.786 177.358) scale(22.8511 22.8511)">
<stop stop-color="#00AD54"/>
<stop offset="0.25" stop-color="#008B57"/>
<stop offset="0.57" stop-color="#00655B"/>
<stop offset="0.84" stop-color="#004E5D"/>
<stop offset="1" stop-color="#00455E"/>
</radialGradient>
<radialGradient id="paint33_radial_1001_6068" cx="0" cy="0" r="1" gradientUnits="userSpaceOnUse" gradientTransform="translate(110.786 167.661) scale(22.6332 22.6332)">
<stop stop-color="#4ADB3E"/>
<stop offset="1" stop-color="#0C727C"/>
</radialGradient>
<linearGradient id="paint34_linear_1001_6068" x1="93.6821" y1="164.665" x2="128.762" y2="164.665" gradientUnits="userSpaceOnUse">
<stop/>
<stop offset="1" stop-color="#544200"/>
</linearGradient>
<linearGradient id="paint35_linear_1001_6068" x1="95.3983" y1="182.723" x2="124.813" y2="182.723" gradientUnits="userSpaceOnUse">
<stop/>
<stop offset="1" stop-color="#544200"/>
</linearGradient>
<linearGradient id="paint36_linear_1001_6068" x1="79.9822" y1="171.992" x2="141.618" y2="171.992" gradientUnits="userSpaceOnUse">
<stop/>
<stop offset="1" stop-color="#544200"/>
</linearGradient>
</defs>
</svg>
