<svg width="633" height="460" viewBox="0 0 633 460" fill="none" xmlns="http://www.w3.org/2000/svg">
<path d="M103.403 399.877L54.107 309.546L59.4436 308.202L106.524 398.308L103.403 399.877Z" fill="#FFBA4E"/>
<path d="M98.8172 383.567L106.524 398.308L103.403 399.877L93.0645 380.988C94.8047 382.197 96.7556 383.071 98.8172 383.567V383.567Z" fill="#FFA635"/>
<path d="M59.5431 312.467C46.093 319.752 37.2378 299.89 37.2378 299.89L62.0848 285.888C62.0848 285.888 73.4817 304.93 59.5431 312.467ZM45.0709 299.367C45.0709 299.367 50.498 311.466 57.8608 307.337C63.8215 303.974 59.5884 291.18 59.5884 291.18L45.0709 299.367Z" fill="#A24040"/>
<path d="M100.174 399.057L98.7809 393.232L103.34 390.356L107.88 396.171L100.174 399.057Z" fill="#6B6B55"/>
<path d="M85.349 407.207C85.8737 406.873 123.52 387.047 123.52 387.047C123.52 387.047 151.198 430.243 127.382 442.865C107.944 453.161 85.349 407.207 85.349 407.207Z" fill="#C9C9B8"/>
<path d="M112.873 400.715C103.557 406.287 97.1528 414.483 94.6292 422.85C91.2037 417.838 88.1039 412.613 85.3488 407.207C85.8735 406.873 123.519 387.047 123.519 387.047C123.519 387.047 125.536 390.194 128.042 395.026C122.677 395.975 117.535 397.904 112.873 400.715V400.715Z" fill="#B9BAA8"/>
<path d="M101.929 398.867C103.53 402.528 113.054 417.088 115.135 416.241C117.215 415.393 107.636 396.252 107.636 396.252L101.929 398.867Z" fill="#9D9E90"/>
<path d="M127.382 442.865C107.944 453.161 85.349 407.207 85.349 407.207L86.2535 406.738C90.9208 415.447 110.106 448.734 126.233 440.259C146.069 429.828 127.608 395.865 122.669 387.516L123.574 387.047C123.574 387.047 151.198 430.243 127.382 442.865Z" fill="#E3E5C9"/>
<path d="M125.88 387.462L85.0505 408.794L83.9018 406.873L124.732 385.542L125.88 387.462Z" fill="#868772"/>
<path d="M58.1501 311.34C69.7098 305.029 64.0294 291.225 61.7681 286.681L62.3108 286.321C62.3108 286.321 73.4364 304.884 59.5068 312.467C53.3923 315.785 48.2908 313.576 44.5371 310.186C48.1642 312.9 52.7682 314.27 58.1501 311.34Z" fill="#882D2D"/>
<path d="M43.9221 298.618L59.3622 289.927C59.3622 289.927 59.5702 290.567 59.8235 291.595L45.3512 299.818C46.4072 302.06 47.8318 304.111 49.5663 305.885C46.0296 303.451 43.9221 298.618 43.9221 298.618Z" fill="#882D2D"/>
<path d="M544.551 432.797C546.327 434.334 541.222 441.679 541.222 443.571C541.222 445.462 543.83 446.656 545.738 446.656C547.646 446.656 547.047 444.997 553.858 435.164C560.668 425.331 569.67 422.599 579.414 426.625C589.157 430.652 590.832 437.177 591.664 445.351L576.085 458.209L523.308 458.027C535.041 436.469 542.764 431.249 544.551 432.797ZM560.952 437.298C571.558 437.996 580.804 446.181 582.113 448.315C583.423 450.45 588.589 438.037 580.083 432.797C567.671 425.138 559.166 437.177 560.952 437.298Z" fill="#EAB58C"/>
<path d="M606.269 440.566L604.878 413.009L603.934 413.221L603 443.136L606.269 440.566Z" fill="#DC9C74"/>
<path d="M607.456 439.838L608.907 437.389L604.878 413.009L604.31 442.336L607.456 439.838Z" fill="#EAB58C"/>
<path d="M629.947 404.703L629.358 409.093L625.847 411.754L624.659 416.671L625.786 424.258L626.029 416.256L627.389 412.108L632.21 410.399L632.454 407.121L629.947 404.703Z" fill="#924936"/>
<path d="M524.648 455.559C524.744 455.654 524.849 455.739 524.963 455.812C529.946 458.664 542.298 437.845 544.673 432.624C546.418 434.182 541.333 441.497 541.333 443.388C541.333 445.28 539.08 455.437 540.988 455.437C542.896 455.437 551.138 447.253 557.501 437.116C563.469 427.516 571.112 424.976 579.606 428.163C589.482 431.886 590.994 437.673 591.786 445.847L576.115 457.987L523.339 457.805C523.806 457.056 524.232 456.257 524.648 455.559ZM561.997 436.894C572.614 437.592 580.753 445.24 582.063 447.374C583.372 449.509 588.244 438.532 579.738 433.292C567.316 425.634 560.221 436.772 561.997 436.894V436.894Z" fill="#DD986B"/>
<path d="M573.76 444.785L553.878 453.758L540.867 455.63L554.954 438.431C560.881 438.118 569.163 440.758 573.76 444.785Z" fill="#EAB58C"/>
<path d="M533.6 442.094C537.081 437.46 540.511 433.919 541.333 434.537C542.155 435.154 539.588 438.674 536.096 443.308C532.605 447.941 529.57 452.19 528.758 451.583C527.946 450.976 530.118 446.747 533.6 442.094Z" fill="#FFD5B5"/>
<path d="M555.299 439.302C551.371 440.252 548.296 445.968 548.123 447.152C547.951 448.336 567.539 443.631 566.595 441.79C565.651 439.949 557.309 438.816 555.299 439.302Z" fill="#FFD5B5"/>
<path d="M547.524 450.561C547.46 450.319 547.461 450.065 547.527 449.823C547.593 449.582 547.722 449.362 547.9 449.185C548.61 448.366 550.417 447.567 551.493 448.437C553.056 449.701 550.772 451.3 549.037 451.32C548.737 451.361 548.432 451.311 548.162 451.175C547.892 451.04 547.67 450.826 547.524 450.561V450.561Z" fill="#FFD5B5"/>
<path d="M560.769 334.464L567.712 334.16L570.543 293.866L557.938 291.225L560.769 334.464Z" fill="#A04E35"/>
<path d="M479.666 457.491C478.367 459.1 618.133 457.491 618.133 457.491C618.133 457.491 548.326 327.503 539.984 325.976C532.148 324.458 498.656 433.849 479.666 457.491Z" fill="#FF8129"/>
<path d="M238.377 182.452L248.435 172.295L277.431 98.5353L276.254 80.9426L375.514 90.0778L528.19 63.3499H545.495V72.8291L567.387 75.5302L565.611 119.517L558.516 120.873L566.798 125.607L567.985 161.47H562.657L574.491 164.859L573.304 221.016L566.798 221.694L576.267 225.083L572.126 273.127L567.823 274.139L555.553 458.189L197.546 457.865L238.377 182.452Z" fill="#A04E35"/>
<path d="M221.072 182.452L231.13 172.295L260.127 98.5353L258.939 80.9426L353.622 77.5636L528.19 63.3499L525.703 75.338L547.595 78.0391L548.306 119.517L541.201 120.873L549.493 125.607L550.671 161.47H545.342L557.187 164.859L555.999 221.016L549.493 221.694L558.963 225.083L554.812 273.127L550.671 271.771L538.248 458.189L180.241 457.865L221.072 182.452Z" fill="#B7694E"/>
<path d="M556.912 389.164L563.855 388.871L566.686 348.576L554.081 345.926L556.912 389.164Z" fill="#A04E35"/>
<path d="M539.872 432.169L561.987 427.93L562.87 348.485L542.237 352.309L539.872 432.169Z" fill="#7C372C"/>
<path d="M542.866 351.975L561.064 343.346L565.144 280.562L547.9 276.86L542.866 351.975Z" fill="#7C372C"/>
<path d="M182.566 457.572L211.593 261.806L228.582 233.753L234.347 204.82C234.347 204.82 242.335 187.055 242.781 185.538C243.228 184.02 266.297 174.409 266.297 174.409L268.967 165.78L310.234 133.539L318.231 132.223L313.349 97.7158L320.454 87.053L331.547 83.0064L332.562 78.0897L356.017 77.25L494.829 65.96L503.73 99.2536L516.153 122.097L513.047 126.659L515.27 139.345L533.468 143.918C533.468 143.918 540.126 202.281 541.009 225.124C541.597 240.137 549.473 260.208 555.218 272.186L553.035 271.478L542.693 426.585L526.201 457.876L182.566 457.572Z" fill="#964636"/>
<path d="M295.862 299.541C267.942 354.383 248.445 408.537 237.484 457.936L180.241 457.875L209.258 262.12L226.248 234.057L232.013 205.133C232.013 205.133 240.011 187.369 240.447 185.851C240.884 184.334 263.973 174.723 263.973 174.723L266.632 166.094L307.849 133.872L315.846 132.557L310.965 98.0395L318.069 87.3868L329.162 83.3402L330.177 78.4134L353.632 77.5737L492.505 66.2634L492.596 66.6175C424.647 107.458 350.557 192.134 295.862 299.541Z" fill="#A3533E"/>
<path d="M204.945 291.236L217.368 299.025L235.565 292.429L259.092 287.351L300.805 307.655L332.765 348.253L387.795 359.927L411.757 387.333L420.191 417.784H456.587L481.879 441.133L481.442 457.876H326.99L335.871 422.862L323.002 401.547L295.04 372.107L276.843 368.556L263.527 341.657L250.657 322.374L231.13 319.329L214.709 331.51L199.617 326.431L204.945 291.236Z" fill="#B7694E"/>
<path d="M332.359 349.375L300.348 308.403L259 288.14L235.799 293.178L217.286 299.936L204.945 291.235L205.026 290.234L217.459 298.014L235.423 291.458L259.183 286.299L301.109 306.845L301.272 306.926L333.161 347.736L388.17 359.482L412.437 387.434L420.76 417.682H456.861L482.67 441.669L482.244 457.875H480.691L481.097 442.498L456.313 419.463H419.623L411.087 388.385L387.419 361.131L332.623 349.426L332.359 349.375Z" fill="#A04E35"/>
<path d="M214.587 330.72L230.947 318.49L251.074 321.656L264.197 341.474L277.33 368.192L295.396 371.743L323.519 401.567L336.713 423.53L328.066 457.875H326.463L335.029 423.843L322.413 402.801L294.685 373.402L276.345 369.801L262.918 342.446L250.241 323.315L231.313 320.341L214.83 332.653L199.637 326.724L199.759 325.956L214.587 330.72Z" fill="#A04E35"/>
<path d="M235.271 458.189H168.164L196.582 425.654C199.058 422.872 235.271 458.189 235.271 458.189Z" fill="#FFCA8C"/>
<path d="M207.167 458.189H37.532C37.532 458.189 160.897 410.459 165.596 407.859C170.295 405.259 207.167 458.189 207.167 458.189Z" fill="#FFAB4B"/>
<path d="M144.922 456.358C161.404 440.07 168.55 422.751 166.773 407.97C174.528 411.309 207.188 458.189 207.188 458.189H143.004C143.633 457.582 144.293 456.975 144.922 456.358Z" fill="#FF9040"/>
<path d="M492.383 425.411L523.846 421.223L532.077 434.314C535.355 435.751 540.978 430.783 539.801 426.595L523.339 410.348L519.279 412.584L521.451 417.551L498.747 421.082L492.383 425.411Z" fill="#FF9040"/>
<path d="M539.694 438.831C538.963 424.837 536.367 411.062 532 398C545.528 400.349 592.8 447.272 619.986 457.671C620.846 457.992 582.68 458.032 539.091 457.982C539.793 451.633 539.995 445.223 539.694 438.831V438.831Z" fill="#FF9040"/>
<path d="M481.107 391.511L499.305 421.294L492.383 425.412L477.555 394.556L481.107 391.511Z" fill="#FF7938"/>
<path d="M482.092 403.995L477.555 394.556L481.107 391.521L489.054 404.531C486.76 404.1 484.425 403.92 482.092 403.995V403.995Z" fill="#E15C24"/>
<path d="M467.538 404.076L465.508 401.364C465.508 401.364 484.112 376.67 487.958 377.348C491.805 378.025 495.357 385.441 492.688 387.839C490.019 390.236 467.538 404.076 467.538 404.076Z" fill="#FF4E37"/>
<path d="M548.306 119.527H565.611L560.881 121.642L566.798 125.617H549.494L517.939 118.849L548.306 119.527Z" fill="#813522"/>
<path d="M569.477 273.764L554.812 273.137L550.671 271.791L531.59 253.855L550.234 277.366L567.376 280.927L569.477 273.764Z" fill="#813522"/>
<path d="M558.912 225.599L576.267 225.094L569.609 222.392L573.304 221.037H555.999L522.709 216.302L558.912 225.599Z" fill="#813522"/>
<path d="M307.27 134.368L344.417 131.92L315.735 131.424L277.177 129.634L307.27 134.368Z" fill="#A04E35"/>
<path d="M347.796 101.368L422.982 96.8054L364.949 98.333L286.901 99.4661L347.796 101.368Z" fill="#A04E35"/>
<path d="M476.063 166.842L558.953 164.516L550.6 159.113L481.737 164.182L415.157 164.94L476.063 166.842Z" fill="#A04E35"/>
<path d="M226.695 167.915L263.973 174.683L260.187 156.847L235.717 147.955L226.695 167.915Z" fill="#B7694E"/>
<path d="M291.366 370.782L366.491 367.545L294.056 373.281L232.865 368.728L208.05 360.928L233.88 366.816L291.366 370.782Z" fill="#A04E35"/>
<path d="M448.965 326.684L327.883 328.464L448.67 324.903L546.987 327.078L546.682 331.732L448.965 326.684Z" fill="#A04E35"/>
<path d="M263.862 172.902L310.132 171.132L263.973 174.683L231.13 172.315L226.695 167.915L263.862 172.902Z" fill="#A04E35"/>
<path d="M546.956 327.068L561.104 329.213L546.641 331.732L541.973 329.334L546.956 327.068Z" fill="#813522"/>
<path d="M449.706 325.521L444.824 297.488L446.377 325.45L449.706 325.521Z" fill="#A04E35"/>
<path d="M230.024 365.957L224.635 391.734L235.129 367.737L230.024 365.957Z" fill="#A04E35"/>
<g style="mix-blend-mode:overlay">
<g style="mix-blend-mode:overlay">
<path d="M379.696 228.007C388.696 227.977 397.655 226.804 406.358 224.517C441.769 215.412 465.122 191.324 467.67 188.613L469.903 186.236L467.538 184.02C465.833 182.422 425.154 144.697 386.983 142.694C386.137 142.654 385.295 142.633 384.456 142.633C346.609 142.633 301.455 185.649 299.516 187.52L297.07 189.868L299.526 192.215C324.656 216.019 351.491 228.007 379.696 228.007ZM465.508 185.517C458.231 192.316 436.684 210.445 406.246 218.325C369.242 227.916 334.064 218.7 301.637 190.95C312.416 181.592 353.957 147.57 386.891 148.774C419.664 149.948 455.673 177.444 465.508 185.477V185.517Z" fill="#DAAD78"/>
</g>
<g style="mix-blend-mode:overlay">
<path d="M374.662 216.848C388.505 216.848 400.908 204.142 402.775 187.601C403.79 178.77 401.577 170.009 396.736 163.575C394.762 160.819 392.217 158.518 389.274 156.827C386.33 155.135 383.057 154.094 379.675 153.772C365.07 152.628 351.663 165.679 349.715 182.948C348.7 191.78 350.922 200.54 355.753 206.975C357.727 209.729 360.27 212.03 363.211 213.721C366.153 215.412 369.424 216.454 372.804 216.778C373.433 216.828 374.053 216.848 374.662 216.848ZM377.818 159.842C378.298 159.842 378.775 159.862 379.249 159.902C381.863 160.141 384.395 160.939 386.672 162.242C388.948 163.544 390.917 165.32 392.443 167.449C396.32 172.599 398.066 179.68 397.254 186.873C395.66 200.965 384.902 211.699 373.271 210.708C370.657 210.468 368.125 209.67 365.848 208.368C363.572 207.066 361.603 205.29 360.077 203.161C356.2 198.011 354.454 190.93 355.266 183.737C356.789 170.221 366.715 159.842 377.818 159.842Z" fill="#DAAD78"/>
</g>
<g style="mix-blend-mode:overlay">
<path d="M376.651 172.679C376.881 172.679 377.114 172.679 377.351 172.679C378.65 172.831 379.9 173.268 381.009 173.959C382.118 174.65 383.059 175.578 383.765 176.675C385.75 179.709 386.614 183.335 386.211 186.934C385.521 194.39 380.376 200.085 374.733 199.539C373.433 199.387 372.184 198.951 371.073 198.262C369.962 197.573 369.018 196.648 368.308 195.553C366.322 192.517 365.458 188.887 365.862 185.285C366.522 178.173 371.282 172.679 376.651 172.679Z" fill="#DAAD78"/>
</g>
<g style="mix-blend-mode:overlay">
<path d="M505.466 295.454L417.786 297.042L325.509 295.788C373.281 295.97 505.466 295.454 505.466 295.454Z" fill="#DAAD78"/>
</g>
<g style="mix-blend-mode:overlay">
<path d="M325.509 295.788C315.024 295.788 308.58 295.677 308.519 295.565L325.509 295.788Z" fill="#DAAD78"/>
</g>
<g style="mix-blend-mode:overlay">
<path d="M488.882 261.918L401.192 263.506L308.864 262.252C356.697 262.434 488.882 261.918 488.882 261.918Z" fill="#DAAD78"/>
</g>
<g style="mix-blend-mode:overlay">
<path d="M308.864 262.251C298.38 262.251 291.935 262.14 291.874 262.019L308.864 262.251Z" fill="#DAAD78"/>
</g>
<g style="mix-blend-mode:overlay">
<path d="M424.099 272.995H427.144V292.449H424.099V272.995Z" fill="#DAAD78"/>
</g>
<g style="mix-blend-mode:overlay">
<path d="M431.559 281.888H440.855V286.39H431.559V281.888Z" fill="#DAAD78"/>
</g>
<g style="mix-blend-mode:overlay">
<path d="M431.559 274.948H440.855V279.45H431.559V274.948Z" fill="#DAAD78"/>
</g>
<g style="mix-blend-mode:overlay">
<path d="M353.795 287.978V273.37H357.733V287.978H353.795Z" fill="#DAAD78"/>
</g>
<g style="mix-blend-mode:overlay">
<path d="M347.725 287.978V273.37H351.663V287.978H347.725Z" fill="#DAAD78"/>
</g>
<g style="mix-blend-mode:overlay">
<path d="M415.99 272.995H419.034V292.449H415.99V272.995Z" fill="#DAAD78"/>
</g>
<g style="mix-blend-mode:overlay">
<path d="M414.355 274.391V270.911H420.658V274.391H414.355Z" fill="#DAAD78"/>
</g>
<g style="mix-blend-mode:overlay">
<path d="M463.864 273.299H478.601V290.355H463.864V273.299Z" fill="#DAAD78"/>
</g>
<g style="mix-blend-mode:overlay">
<path d="M296.755 241.806H305.433V251.852H296.755V241.806Z" fill="#DAAD78"/>
</g>
<g style="mix-blend-mode:overlay">
<path d="M277.807 273.299H292.544V290.355H277.807V273.299Z" fill="#DAAD78"/>
</g>
<g style="mix-blend-mode:overlay">
<path d="M486.233 270.79H492.221V289.829H486.233V270.79Z" fill="#DAAD78"/>
</g>
<g style="mix-blend-mode:overlay">
<path d="M510.774 281.169C510.774 284.943 508.095 288.008 504.796 288.008C501.497 288.008 498.808 284.973 498.808 281.169C498.808 277.366 501.487 274.321 504.796 274.321C508.105 274.321 510.774 277.386 510.774 281.169Z" fill="#DAAD78"/>
</g>
<g style="mix-blend-mode:overlay">
<path d="M455.196 285.287C455.196 288.686 452.791 291.438 449.817 291.438C446.843 291.438 444.438 288.686 444.438 285.287C444.438 281.888 446.894 279.217 449.817 279.217C452.74 279.217 455.196 281.938 455.196 285.287Z" fill="#DAAD78"/>
</g>
<g style="mix-blend-mode:overlay">
<path d="M449.817 277.791C447.9 277.791 446.346 276.015 446.346 273.825C446.346 271.635 447.9 269.859 449.817 269.859C451.734 269.859 453.288 271.635 453.288 273.825C453.288 276.015 451.734 277.791 449.817 277.791Z" fill="#DAAD78"/>
</g>
<g style="mix-blend-mode:overlay">
<path d="M308.742 272.995H311.787V292.449H308.742V272.995Z" fill="#DAAD78"/>
</g>
<g style="mix-blend-mode:overlay">
<path d="M316.202 281.888H325.498V286.39H316.202V281.888Z" fill="#DAAD78"/>
</g>
<g style="mix-blend-mode:overlay">
<path d="M316.202 274.948H325.498V279.45H316.202V274.948Z" fill="#DAAD78"/>
</g>
<g style="mix-blend-mode:overlay">
<path d="M300.633 272.995H303.677V292.449H300.633V272.995Z" fill="#DAAD78"/>
</g>
<g style="mix-blend-mode:overlay">
<path d="M298.999 274.391V270.911H305.301V274.391H298.999Z" fill="#DAAD78"/>
</g>
<g style="mix-blend-mode:overlay">
<path d="M339.839 285.287C339.839 288.686 337.434 291.438 334.46 291.438C331.486 291.438 329.091 288.686 329.091 285.287C329.091 281.888 331.497 279.217 334.46 279.217C337.424 279.217 339.839 281.938 339.839 285.287Z" fill="#DAAD78"/>
</g>
<g style="mix-blend-mode:overlay">
<path d="M334.46 277.791C332.543 277.791 330.989 276.015 330.989 273.825C330.989 271.635 332.543 269.859 334.46 269.859C336.377 269.859 337.931 271.635 337.931 273.825C337.931 276.015 336.377 277.791 334.46 277.791Z" fill="#DAAD78"/>
</g>
<g style="mix-blend-mode:overlay">
<path d="M392.301 285.287C392.301 288.686 389.896 291.438 386.922 291.438C383.948 291.438 381.553 288.686 381.553 285.287C381.553 281.888 383.968 279.217 386.922 279.217C389.875 279.217 392.301 281.938 392.301 285.287Z" fill="#DAAD78"/>
</g>
<g style="mix-blend-mode:overlay">
<path d="M386.922 277.791C385.005 277.791 383.451 276.015 383.451 273.825C383.451 271.635 385.005 269.859 386.922 269.859C388.839 269.859 390.393 271.635 390.393 273.825C390.393 276.015 388.839 277.791 386.922 277.791Z" fill="#DAAD78"/>
</g>
<g style="mix-blend-mode:overlay">
<path d="M404.673 274.321C407.972 274.321 410.651 277.356 410.651 281.169C410.651 284.983 407.972 288.008 404.673 288.008C401.375 288.008 398.685 284.973 398.685 281.169C398.685 277.366 401.364 274.321 404.673 274.321ZM404.673 284.336C405.32 284.422 405.978 284.31 406.559 284.014C407.14 283.718 407.617 283.252 407.925 282.679C408.234 282.106 408.36 281.453 408.286 280.806C408.212 280.16 407.942 279.551 407.513 279.062C407.083 278.572 406.513 278.225 405.88 278.067C405.247 277.908 404.581 277.946 403.97 278.175C403.359 278.404 402.833 278.814 402.462 279.349C402.091 279.884 401.892 280.519 401.892 281.169C401.842 281.956 402.106 282.731 402.627 283.324C403.149 283.918 403.884 284.281 404.673 284.336V284.336Z" fill="#DAAD78"/>
</g>
<g style="mix-blend-mode:overlay">
<path d="M420.506 335.738C425.256 335.738 429.113 340.149 429.113 345.582C429.113 351.014 425.256 355.415 420.506 355.415C415.756 355.415 411.909 351.014 411.909 345.582C411.909 340.149 415.736 335.738 420.506 335.738ZM420.506 350.144C421.437 350.257 422.38 350.085 423.21 349.651C424.04 349.217 424.718 348.541 425.153 347.714C425.589 346.886 425.762 345.946 425.648 345.019C425.535 344.091 425.141 343.22 424.519 342.521C423.897 341.822 423.076 341.328 422.166 341.105C421.255 340.882 420.298 340.94 419.422 341.273C418.546 341.605 417.792 342.195 417.26 342.965C416.729 343.735 416.445 344.647 416.446 345.582C416.411 346.147 416.487 346.714 416.672 347.25C416.857 347.786 417.147 348.281 417.524 348.705C417.901 349.129 418.359 349.474 418.871 349.721C419.383 349.968 419.938 350.112 420.506 350.144V350.144Z" fill="#DAAD78"/>
</g>
<g style="mix-blend-mode:overlay">
<path d="M367.679 269.455C370.013 269.455 371.901 271.62 371.901 274.29C371.901 276.961 370.013 279.126 367.679 279.126C365.344 279.126 363.447 276.961 363.447 274.29C363.447 271.62 365.334 269.455 367.679 269.455ZM367.679 276.536C368.137 276.598 368.604 276.519 369.016 276.309C369.428 276.1 369.766 275.77 369.985 275.364C370.205 274.958 370.294 274.495 370.242 274.036C370.19 273.578 370 273.147 369.695 272.799C369.391 272.452 368.987 272.206 368.539 272.093C368.09 271.98 367.618 272.007 367.184 272.169C366.751 272.331 366.378 272.621 366.115 273C365.851 273.379 365.71 273.829 365.71 274.29C365.674 274.848 365.86 275.397 366.229 275.818C366.598 276.239 367.119 276.497 367.679 276.536V276.536Z" fill="#DAAD78"/>
</g>
<g style="mix-blend-mode:overlay">
<path d="M364.249 287.128V283.648H373.769V287.128H364.249Z" fill="#DAAD78"/>
</g>
<g style="mix-blend-mode:overlay">
<path d="M364.927 288.982L363.222 288.982L363.223 281.769L364.928 281.769L364.927 288.982Z" fill="#DAAD78"/>
</g>
<g style="mix-blend-mode:overlay">
<path d="M346.731 253.015H343.686V233.561H346.731V253.015Z" fill="#DAAD78"/>
</g>
<g style="mix-blend-mode:overlay">
<path d="M339.281 244.113H329.984V239.611H339.281V244.113Z" fill="#DAAD78"/>
</g>
<g style="mix-blend-mode:overlay">
<path d="M339.281 251.052H329.984V246.551H339.281V251.052Z" fill="#DAAD78"/>
</g>
<g style="mix-blend-mode:overlay">
<path d="M417.035 238.033V252.641H413.097V238.033H417.035Z" fill="#DAAD78"/>
</g>
<g style="mix-blend-mode:overlay">
<path d="M483.909 235.675V250.284H479.971V235.675H483.909Z" fill="#DAAD78"/>
</g>
<g style="mix-blend-mode:overlay">
<path d="M423.104 238.022V252.631H419.166V238.022H423.104Z" fill="#DAAD78"/>
</g>
<g style="mix-blend-mode:overlay">
<path d="M354.85 253.015H351.805V233.561H354.85V253.015Z" fill="#DAAD78"/>
</g>
<g style="mix-blend-mode:overlay">
<path d="M356.474 251.609V255.089H350.171V251.609H356.474Z" fill="#DAAD78"/>
</g>
<g style="mix-blend-mode:overlay">
<path d="M385.664 319.764H370.927V302.708H385.664V319.764Z" fill="#DAAD78"/>
</g>
<g style="mix-blend-mode:overlay">
<path d="M469.872 354.757H455.135V337.701H469.872V354.757Z" fill="#DAAD78"/>
</g>
<g style="mix-blend-mode:overlay">
<path d="M284.597 255.22H278.619V236.181H284.597V255.22Z" fill="#DAAD78"/>
</g>
<g style="mix-blend-mode:overlay">
<path d="M260.056 244.821C260.056 241.047 262.735 237.982 266.044 237.982C269.352 237.982 272.022 241.017 272.022 244.821C272.022 248.625 269.342 251.67 266.044 251.67C262.745 251.67 260.056 248.614 260.056 244.821Z" fill="#DAAD78"/>
</g>
<g style="mix-blend-mode:overlay">
<path d="M315.643 240.673C315.643 237.274 318.049 234.522 321.012 234.522C323.976 234.522 326.392 237.274 326.392 240.673C326.392 244.072 323.986 246.844 321.043 246.844C318.1 246.844 315.643 244.062 315.643 240.673Z" fill="#DAAD78"/>
</g>
<g style="mix-blend-mode:overlay">
<path d="M317.552 252.175C317.643 251.511 317.925 250.888 318.363 250.379C318.8 249.87 319.376 249.497 320.02 249.306C320.665 249.115 321.351 249.112 321.997 249.299C322.643 249.486 323.221 249.854 323.662 250.36C324.104 250.866 324.39 251.488 324.486 252.151C324.582 252.815 324.485 253.492 324.205 254.101C323.926 254.711 323.476 255.228 322.91 255.589C322.344 255.951 321.685 256.143 321.013 256.141C320.028 256.068 319.111 255.611 318.463 254.868C317.815 254.126 317.487 253.158 317.552 252.175V252.175Z" fill="#DAAD78"/>
</g>
<g style="mix-blend-mode:overlay">
<path d="M462.088 253.015H459.043V233.561H462.088V253.015Z" fill="#DAAD78"/>
</g>
<g style="mix-blend-mode:overlay">
<path d="M454.628 244.113H445.331V239.611H454.628V244.113Z" fill="#DAAD78"/>
</g>
<g style="mix-blend-mode:overlay">
<path d="M454.628 251.052H445.331V246.551H454.628V251.052Z" fill="#DAAD78"/>
</g>
<g style="mix-blend-mode:overlay">
<path d="M470.207 253.015H467.162V233.561H470.207V253.015Z" fill="#DAAD78"/>
</g>
<g style="mix-blend-mode:overlay">
<path d="M471.821 251.609V255.089H465.518V251.609H471.821Z" fill="#DAAD78"/>
</g>
<g style="mix-blend-mode:overlay">
<path d="M435.791 345.046C435.791 341.656 438.196 338.905 441.17 338.905C444.144 338.905 446.549 341.656 446.549 345.046C446.549 348.435 444.134 351.196 441.17 351.196C438.206 351.196 435.791 348.445 435.791 345.046Z" fill="#DAAD78"/>
</g>
<g style="mix-blend-mode:overlay">
<path d="M430.584 252.175C430.676 251.512 430.957 250.888 431.394 250.38C431.832 249.871 432.407 249.499 433.051 249.307C433.695 249.115 434.38 249.112 435.026 249.298C435.672 249.484 436.25 249.852 436.692 250.356C437.133 250.861 437.42 251.482 437.518 252.145C437.615 252.808 437.519 253.484 437.241 254.094C436.963 254.704 436.515 255.222 435.95 255.585C435.385 255.947 434.727 256.141 434.055 256.141C433.069 256.071 432.15 255.615 431.499 254.872C430.849 254.129 430.52 253.159 430.584 252.175V252.175Z" fill="#DAAD78"/>
</g>
<g style="mix-blend-mode:overlay">
<path d="M378.528 240.673C378.528 237.274 380.944 234.522 383.908 234.522C386.871 234.522 389.287 237.274 389.287 240.673C389.287 244.072 386.881 246.824 383.908 246.824C380.934 246.824 378.528 244.062 378.528 240.673Z" fill="#DAAD78"/>
</g>
<g style="mix-blend-mode:overlay">
<path d="M380.437 252.175C380.528 251.512 380.809 250.888 381.247 250.38C381.684 249.871 382.259 249.499 382.903 249.307C383.547 249.115 384.233 249.112 384.878 249.298C385.524 249.484 386.102 249.852 386.544 250.356C386.986 250.861 387.273 251.482 387.37 252.145C387.467 252.808 387.371 253.484 387.093 254.094C386.816 254.704 386.367 255.222 385.802 255.585C385.237 255.947 384.58 256.141 383.908 256.141C382.921 256.071 382.002 255.615 381.352 254.872C380.701 254.129 380.372 253.159 380.437 252.175V252.175Z" fill="#DAAD78"/>
</g>
<g style="mix-blend-mode:overlay">
<path d="M366.167 251.68C362.858 251.68 360.178 248.645 360.178 244.831C360.178 241.017 362.858 237.992 366.167 237.992C369.475 237.992 372.145 241.027 372.145 244.831C372.145 248.635 369.465 251.68 366.167 251.68ZM366.167 241.664C365.517 241.574 364.855 241.683 364.27 241.977C363.684 242.272 363.203 242.738 362.891 243.313C362.579 243.888 362.45 244.544 362.522 245.194C362.595 245.843 362.864 246.455 363.295 246.948C363.726 247.441 364.298 247.79 364.934 247.95C365.57 248.11 366.24 248.072 366.854 247.841C367.467 247.611 367.996 247.199 368.368 246.661C368.741 246.123 368.939 245.484 368.937 244.831C368.974 244.049 368.707 243.282 368.191 242.692C367.674 242.102 366.949 241.734 366.167 241.664V241.664Z" fill="#DAAD78"/>
</g>
<g style="mix-blend-mode:overlay">
<path d="M403.161 256.546C400.826 256.546 398.929 254.381 398.929 251.71C398.929 249.039 400.826 246.874 403.161 246.874C405.495 246.874 407.393 249.039 407.393 251.71C407.393 254.381 405.495 256.546 403.161 256.546ZM403.161 249.464C402.702 249.4 402.235 249.477 401.822 249.685C401.408 249.893 401.069 250.222 400.848 250.628C400.627 251.034 400.536 251.497 400.586 251.956C400.637 252.414 400.827 252.847 401.13 253.195C401.434 253.543 401.838 253.791 402.286 253.905C402.735 254.018 403.208 253.993 403.642 253.831C404.075 253.67 404.449 253.38 404.714 253.001C404.978 252.622 405.119 252.172 405.12 251.71C405.156 251.154 404.971 250.606 404.604 250.185C404.237 249.765 403.718 249.506 403.161 249.464V249.464Z" fill="#DAAD78"/>
</g>
<g style="mix-blend-mode:overlay">
<path d="M406.591 238.882V242.362H397.071V238.882H406.591Z" fill="#DAAD78"/>
</g>
<g style="mix-blend-mode:overlay">
<path d="M405.901 237.021H407.606V244.234H405.901V237.021Z" fill="#DAAD78"/>
</g>
</g>
<path d="M487.319 384.621C485.543 381.86 485.289 378.622 486.74 377.408C488.192 376.194 490.8 377.408 492.576 380.211C494.352 383.013 494.606 386.21 493.155 387.424C491.703 388.638 489.085 387.383 487.319 384.621Z" fill="#B42817"/>
<path d="M321.317 430.055L335.201 423.58L359.641 429.165L394.361 436.52L411.595 410.641L391.53 434.172L359.894 427.991L334.684 417.996L321.317 430.055Z" fill="#A04E35"/>
<path d="M529.855 343.326L525.957 337.337C537.649 332.723 549.087 331.995 553.228 346.077C557.369 360.16 549.818 370.104 536.675 376.427L534.726 371.369C534.726 371.369 553.228 358.996 548.844 348.101C544.459 337.205 529.855 343.326 529.855 343.326Z" fill="#D43131"/>
<path d="M530.271 346.522L526.931 341.93C536.949 337.731 546.763 336.649 550.275 347.676C553.787 358.703 547.352 366.958 536.066 372.562L534.391 368.597C534.391 368.597 550.255 357.914 546.499 349.375C542.744 340.837 530.271 346.522 530.271 346.522Z" fill="#BA2526"/>
<path d="M481.016 343.326L484.974 337.337C473.09 332.723 461.448 331.995 457.236 346.077C453.024 360.16 460.707 370.104 474.074 376.427L476.104 371.369C476.104 371.369 457.277 358.996 461.732 348.101C466.188 337.205 481.016 343.326 481.016 343.326Z" fill="#EB3838"/>
<path d="M481.341 346.158L484.69 341.1C474.642 337.205 464.798 336.588 461.235 348.495C457.673 360.402 464.168 368.809 475.444 374.151L477.119 369.831C477.119 369.831 461.205 359.371 464.94 350.134C468.675 340.898 481.341 346.158 481.341 346.158Z" fill="#BA2526"/>
<path d="M522.466 451.623H482.173C480.884 448.457 492.383 449.428 492.17 442.013C491.774 428.163 471.313 407.131 471.455 372.593C471.526 355.931 486.436 327.119 486.436 327.119L485.289 296.719C485.289 296.719 479.859 295.505 479.686 292.672C479.686 291.903 479.615 291.215 479.605 290.649C479.6 290.356 479.662 290.066 479.787 289.801C479.912 289.536 480.096 289.303 480.326 289.12C480.555 288.937 480.824 288.81 481.111 288.747C481.397 288.684 481.695 288.687 481.98 288.757L523.592 298.944C523.844 299.007 524.075 299.133 524.265 299.308C524.454 299.484 524.597 299.704 524.679 299.949C524.761 300.194 524.779 300.456 524.733 300.71C524.687 300.964 524.577 301.202 524.414 301.403C523.339 302.698 521.065 303.982 516.295 303.021L517.635 323.831C517.635 323.831 540.856 343.053 537.446 380.615C534.036 418.178 513.007 437.622 512.256 442.013C511.088 448.821 523.562 447.729 522.466 451.623Z" fill="#EB3838"/>
<path d="M502.289 297.478C509.607 299.232 517.032 300.509 524.516 301.302C523.501 302.647 521.228 304.033 516.396 303.042L517.635 323.831C517.635 323.831 540.856 343.053 537.446 380.615C534.036 418.178 513.007 437.622 512.256 442.013C511.088 448.821 523.562 447.729 522.466 451.613H482.173C480.884 448.457 492.383 449.428 492.17 442.013C491.968 439.098 491.282 436.236 490.14 433.545C491.867 434.015 493.648 434.253 495.438 434.253C513.991 434.253 529.256 409.255 529.52 378.43C529.783 347.605 514.965 322.617 496.413 322.617C492.901 322.64 489.447 323.508 486.344 325.146L485.329 296.719C485.329 296.719 479.9 295.505 479.727 292.672C479.676 291.853 479.656 291.155 479.646 290.538C487.022 293.374 494.588 295.693 502.289 297.478V297.478Z" fill="#D43131"/>
<path d="M508.429 303.365C508.064 303.365 487.116 298.752 487.116 298.752C487.116 298.752 483.949 319.38 496.25 320.594C508.551 321.808 508.429 303.365 508.429 303.365Z" fill="#EB3838"/>
<path d="M511.19 361.768L508.023 367.353L512.509 377.378L507.891 388L509.241 387.98L520.446 373.17L519.218 363.711L515.087 356.427L506.318 353.594L505.283 354.252L511.19 361.768Z" fill="#B82020"/>
<path d="M501.782 419.655L484.639 395.224L480.387 369.659L483.787 366.553L480.174 360.281L489.724 345.47L505.506 348.758L495.367 370.104L486.832 379.988L488.151 391.582L501.782 419.655Z" fill="#B82020"/>
<g style="mix-blend-mode:multiply" opacity="0.46">
<g style="mix-blend-mode:multiply" opacity="0.46">
<path d="M479.088 343.326H531.458C533.239 347.233 534.653 351.297 535.68 355.466H474.713C476.012 351.287 477.555 347.13 479.088 343.326Z" fill="#803434"/>
</g>
<g style="mix-blend-mode:multiply" opacity="0.46">
<path d="M478.103 406.746H531.712C530.92 408.952 530.091 411.056 529.225 413.059H480.712C479.819 411.036 478.949 408.932 478.103 406.746Z" fill="#803434"/>
</g>
<g style="mix-blend-mode:multiply" opacity="0.46">
<path d="M486.253 424.825H523.227C522.588 425.927 521.948 426.98 521.319 427.981H487.745C487.265 426.963 486.767 425.911 486.253 424.825Z" fill="#803434"/>
</g>
</g>
<path d="M509.891 361.93L506.724 367.514L510.134 378.643C510.134 378.643 507.455 388.84 507.942 388.112C508.429 387.383 519.106 373.301 519.106 373.301L517.889 363.842L513.748 356.558L505.222 354.13L506.877 359.977L509.891 361.93Z" fill="#4C1C1C"/>
<path d="M502.259 419.948L485.462 393.676L482.447 369.548L485.847 366.432L482.234 360.16L490.496 347.352L505.638 348.768L497.438 369.983L488.892 379.877L490.211 391.46L502.259 419.948Z" fill="#4C1C1C"/>
<g style="mix-blend-mode:overlay">
<path d="M488.973 313.553C487.958 311.034 488.567 309.263 489.988 309.435C491.236 309.587 492.799 311.186 493.662 313.098C494.525 315.01 494.525 317.144 493.419 317.529C492.14 318.034 490.018 316.224 488.973 313.553Z" fill="white"/>
</g>
<g style="mix-blend-mode:overlay">
<path d="M487.806 304.883C487.928 303.578 488.618 302.94 489.257 303.335C489.579 303.64 489.825 304.015 489.976 304.431C490.128 304.847 490.18 305.293 490.13 305.732C490.13 306.795 489.602 307.655 488.983 307.594C488.364 307.533 487.674 306.279 487.806 304.883Z" fill="white"/>
</g>
<g style="mix-blend-mode:overlay">
<path d="M485.462 331.692C487.755 327.089 493.145 323.032 494.708 329.547C495.489 332.784 490.232 340.21 485.644 345.582C473.648 359.563 481.158 340.23 485.462 331.692Z" fill="white"/>
</g>
<path d="M487.877 449.539C488.659 447.911 497.011 443.955 501.853 443.955C506.694 443.955 515.047 447.911 515.838 449.539H487.877Z" fill="#EB3838"/>
<g style="mix-blend-mode:overlay">
<path d="M478.804 401.941C478.347 400.039 478.641 399.372 479.24 399.705C480.352 400.688 481.247 401.89 481.869 403.236C483.777 406.706 486.06 412.645 484.792 412.948C483.198 413.322 479.707 405.765 478.804 401.941Z" fill="white"/>
</g>
<g style="mix-blend-mode:overlay">
<path d="M479.149 354.343C479.249 354.283 479.362 354.247 479.478 354.236C479.594 354.224 479.711 354.238 479.821 354.277C479.932 354.315 480.032 354.377 480.116 354.459C480.199 354.54 480.264 354.638 480.306 354.747C480.448 355.39 480.376 356.061 480.103 356.659C479.463 358.339 477.403 360.939 476.479 359.462C475.393 357.762 477.829 354.848 479.149 354.343Z" fill="white"/>
</g>
<path d="M630.157 462.666L423 460.953C423 460.953 480.792 421.925 493.418 423.301C506.044 424.677 594.797 444.666 594.797 444.666L630.157 462.666Z" fill="#FFC943"/>
<g style="mix-blend-mode:multiply" opacity="0.47">
<path d="M174.832 211.901C179.876 210.893 185.013 210.421 190.157 210.495L190.249 210.101C187.562 209.337 184.763 209.046 181.977 209.241C179.094 209.635 166.124 212.549 164.723 211.477C163.322 210.404 172.842 207.228 179.196 206.631C185.06 206.299 190.941 206.823 196.653 208.189C204.545 209.394 212.241 211.639 219.539 214.866C221.427 215.078 223.325 215.321 225.274 215.614L225.528 213.287L241.695 216.424V218.71C246.039 219.661 250.488 220.706 255.042 221.846L258.919 221.31L261.7 220.925L274.447 225.033H274.264H274.214L273.95 225.104H273.869L273.503 225.205H273.432L272.925 225.346L271.159 225.862L272.326 226.166L272.519 225.923L281.531 225.134V225.215C281.46 225.427 281.247 226.054 280.912 227.016C284.515 225.842 290.118 223.798 296.684 221.31L304.804 216.504L305.636 216.191L330.908 206.489L335.414 204.769L334.013 206.661L336.378 205.71L337.728 203.586C337.728 203.586 341.473 202.321 346.934 200.621C350.189 199.027 353.546 197.645 356.981 196.484C357.027 194.457 356.936 192.429 356.707 190.414C355.692 191.021 354.596 191.628 353.52 192.215L347.106 187.227L344.751 187.713L335.84 189.584H335.658C334.419 189.898 333.262 190.161 332.176 190.394L330.613 190.707C329.598 190.889 328.685 191.051 327.822 191.173L326.594 191.334C325.813 191.426 325.102 191.496 324.453 191.547C322.764 191.748 321.056 191.711 319.378 191.436L318.921 188.148H318.627H318.495V187.935L316.861 176.261H317.298L316.729 172.214L319.398 171.799C319.348 171.552 319.348 171.298 319.398 171.051L319.256 170.98L319.084 170.889L318.8 170.707L318.637 170.606L318.394 170.413L318.262 170.292C318.183 170.23 318.108 170.162 318.038 170.09L317.937 169.978L317.744 169.746C317.598 169.55 317.472 169.34 317.369 169.118V169.068C317.329 168.983 317.295 168.895 317.267 168.805C317.248 168.769 317.231 168.732 317.216 168.694L317.155 168.441V168.309C317.155 168.228 317.155 168.147 317.155 168.056C317.16 168.016 317.16 167.975 317.155 167.935C317.155 167.844 317.155 167.763 317.155 167.682V167.581C317.14 167.396 317.14 167.21 317.155 167.024V166.974C317.155 166.893 317.155 166.822 317.206 166.751V166.599C317.22 166.535 317.237 166.47 317.257 166.407C317.278 166.358 317.295 166.308 317.308 166.256C317.308 166.195 317.308 166.134 317.379 166.084C317.396 166.027 317.42 165.973 317.45 165.922C317.469 165.869 317.493 165.818 317.521 165.77L317.622 165.598C317.64 165.557 317.664 165.52 317.693 165.487C317.745 165.396 317.806 165.311 317.876 165.234L317.937 165.153L318.079 165.011L318.17 164.93L318.312 164.819L318.404 164.758L318.556 164.677H318.647L318.82 164.617H318.891C318.975 164.607 319.06 164.607 319.145 164.617H319.358H319.449L319.622 164.687H319.713L319.875 164.799L319.967 164.87L320.129 165.042L320.2 165.122C320.286 165.224 320.364 165.333 320.434 165.446C320.729 165.943 321.135 166.366 321.621 166.68C322.394 167.138 323.28 167.373 324.179 167.358C324.886 167.362 325.591 167.284 326.28 167.126C326.655 167.055 327.031 166.954 327.416 166.842C328.239 166.603 329.046 166.312 329.832 165.972C331.135 165.408 332.403 164.767 333.628 164.05L334.44 163.575C335.244 161.463 335.822 159.272 336.165 157.039L335.719 156.797C334.805 156.24 335.028 155.603 336.449 154.53C336.449 154.106 336.47 153.701 336.51 153.316L335.648 152.932C335.105 153.907 334.251 154.673 333.222 155.107C332.566 155.238 331.885 155.138 331.294 154.824C330.704 154.511 330.241 154.003 329.984 153.387C329.558 152.527 330.076 151.92 331.73 151.222C330.461 150.696 329.7 150.433 329.7 150.433L331.963 148.258L332.593 147.671C332.187 147.55 331.963 147.499 331.963 147.499L337.373 142.32L335.982 141.915C364.502 110.928 376.884 104.413 378.122 103.816H378.224C371.495 109.886 364.4 119.669 359.884 126.386L360.463 126.123C361.112 125.83 361.772 125.577 362.492 125.344C364.519 124.657 366.616 124.196 368.744 123.968C369.14 123.968 369.536 123.908 369.932 123.887C380.802 113.133 392.961 101.54 392.961 101.54C392.961 101.54 386.942 109.927 374.804 123.908C375.9 123.989 376.996 124.12 378.102 124.302C379.391 124.504 380.68 124.778 381.979 125.111C405.982 103.452 418.517 95.4497 418.517 95.4497C417.329 96.8256 415.776 98.5454 413.949 100.508C412.123 102.471 410.042 104.676 407.799 107.013C406.682 108.186 405.525 109.38 404.348 110.604L400.745 114.307L396.34 118.809L394.199 120.984C393.522 121.658 392.863 122.333 392.22 123.007L388.099 127.175C389.327 127.661 390.545 128.187 391.763 128.784C399.882 121.884 407.454 115.723 407.454 115.723C407.454 115.723 403.506 120.529 394.26 130.048C394.909 130.402 395.559 130.756 396.198 131.131C396.838 131.505 397.213 131.758 397.7 132.092L398.025 132.325C398.502 132.658 398.949 133.002 399.375 133.336C399.694 133.604 399.999 133.887 400.288 134.186C409.199 126.548 418.709 117.817 422.343 114.449L422.86 113.973L423.003 113.842L423.449 113.427L423.733 113.164L423.794 113.103L423.886 113.022C421.369 117.322 415.949 123.756 410.164 130.129L407.241 133.306L405.789 134.864L402.998 137.808C403.431 138.621 403.772 139.479 404.013 140.367V140.468C404.165 141.044 404.28 141.628 404.358 142.219C416.811 132.466 430.462 122.127 430.462 122.127C430.462 122.127 421.419 131.738 404.074 147.105C403.518 149.405 402.581 151.596 401.303 153.59L403.11 152.295C407.626 149.037 412.843 145.213 418.111 141.166L420.374 139.457L424.88 136.058L427.143 134.55L431.467 131.262L435.527 128.136L439.292 125.243L442.641 122.653L445.504 120.438L450.335 116.694C447.442 120.387 439.363 128.076 429.975 136.523L425.57 140.458C421.835 143.766 417.999 147.115 414.274 150.302C409.808 154.136 405.515 157.758 401.76 160.853L399.933 162.351C397.132 164.637 394.716 166.559 392.829 167.955C395.549 173.408 399.568 177.586 405.942 179.468C406.419 179.609 406.906 179.741 407.413 179.852L407.87 179.943C408.225 180.024 408.58 180.095 408.956 180.156L409.545 180.247L410.56 180.378L411.229 180.439L412.244 180.52H412.965H414.071H414.822H416.01H416.761C417.207 180.52 417.664 180.459 418.121 180.419L418.791 180.358C419.481 180.287 420.171 180.206 420.892 180.105L412.031 194.167C412.031 194.167 382.476 193.742 378.427 175.31C375.615 177.586 372.104 180.307 368.075 183.13C367.175 186.448 367.213 189.949 368.186 193.246C377.321 190.96 384.689 189.969 384.689 189.969C384.689 189.969 384.76 190.616 384.872 191.78H385.186C385.457 191.764 385.728 191.764 385.998 191.78H386.414C386.755 191.799 387.094 191.839 387.429 191.901L387.896 201.876L387.683 201.937H387.551L387.297 202.007L387.145 202.058L386.364 202.281H386.211L385.582 202.463H385.481C385.481 202.908 385.481 203.373 385.481 203.839L388.363 206.651L387.419 207.339L389.043 208.614L392.453 211.335L396.868 214.855C396.868 214.855 396.604 215.594 396.229 216.788C397.913 218.376 399.649 220.035 401.405 221.714C402.15 221.01 402.978 220.399 403.871 219.894L415.391 231.345L414.822 231.639L424.261 240.41L424.931 241.027L423.48 243.141L430.452 250L431.843 249.545L434.552 251.74L439.993 256.141L438.775 256.606C439.179 257.449 439.383 258.372 439.37 259.306C439.358 260.239 439.13 261.157 438.704 261.989C438.592 262.252 438.49 262.504 438.379 262.757L439.15 262.848L439.79 262.312L435.354 272.874L433.984 274.482C432.282 279.755 430.956 285.14 430.016 290.598L431.366 291.074L430.016 298.155H429.6V313.027L428.666 313.33C428.767 314.928 428.899 316.365 429.041 317.66C431.116 318.856 433.001 320.353 434.634 322.101C438.064 325.369 442.164 329.739 446.316 330.356C452.182 331.236 451.898 334.767 445.158 334.534C441.515 334.403 437.912 329.992 433.649 328.97C433.846 331.04 434.296 333.079 434.989 335.04C435.131 335.334 435.232 335.506 435.232 335.506H435.172C436.247 338.207 437.607 339.785 438.602 340.361C440.48 341.454 450 345.238 449.766 346.998C449.533 348.758 441.535 346.998 437.658 344.358C435.203 342.461 433.164 340.082 431.67 337.367L430.716 337.863C431.163 341.839 432.452 344.175 433.466 345.005C435.08 346.3 443.524 351.075 442.966 352.876C442.408 354.676 435.131 352.157 431.873 349.052C429.64 346.927 427.813 343.063 426.849 339.886L426.352 340.149C426.017 343.447 426.474 345.561 427.083 346.442C428.179 348.06 434.532 354.383 433.527 356.184C432.523 357.985 426.585 354.221 424.494 350.458C422.647 347.15 422.221 340.948 422.627 337.377C422.492 331.651 423.196 325.935 424.718 320.412C424.196 318.649 423.772 316.859 423.449 315.05L423.063 315.181L421.876 310.801L420.861 307.098L420.628 306.228L421.825 304.842L422.343 304.245C422.252 302.05 422.221 299.764 422.241 297.417L420.79 297.275L421.358 289.283L421.176 289.495L421.744 277.608L423.307 276.182C423.51 273.754 423.73 271.289 423.967 268.787H423.246L423.865 262.343L423.51 262.474L421.277 253.086L423.104 252.469C421.898 251.322 420.575 250.305 419.156 249.434L418.253 250.749L408.174 246.338L409.342 243.465C407.312 242.302 405.16 241.098 402.937 239.884L402.308 240.44L392.879 237.061C392.879 237.061 392.93 236.879 393.032 236.555L385.105 241.766C384.566 241.587 384.037 241.378 383.522 241.138L383.004 242.605C382.913 243.111 382.811 243.617 382.72 244.123H383.167L383.816 244.052L383.288 255.008L380.071 255.362C379.959 255.787 379.827 256.202 379.706 256.617C380.721 256.414 381.664 256.202 382.598 255.989V256.101C384.811 255.676 386.82 255.261 388.536 254.866L382.953 269.1C379.227 271.772 375.365 274.251 371.383 276.526C370.937 277.325 370.47 278.104 369.983 278.873H372.895L366.4 293.158H366.197L365.517 295.12L364.674 295.545L364.411 295.667L363.081 302.141L362.35 302.677L361.62 303.213L356.383 317.791L356.129 325.622L348.009 345.116L340.539 369.345C340.448 369.568 339.717 370.934 338.682 372.856L338.276 373.594C337.647 374.758 336.936 376.083 336.185 377.449C340.834 377.449 345.979 378.015 348.263 380.605C349.034 381.485 349.755 383.903 350.435 387.343L354.535 386.857L354.322 393.322L354.119 399.776C354.119 399.776 353.571 400.919 352.708 402.811C353.013 405.178 353.317 407.637 353.622 410.135L359.265 411.279L358.859 421.456L355.043 421.749C355.378 424.42 355.733 427.05 356.058 429.59C356.108 429.418 356.139 429.286 356.149 429.235L358.595 444.137C358.839 445.199 359.092 446.16 359.356 447.111L365.791 452.716L365.091 453.465C366.248 454.082 367.221 454.994 367.909 456.109C368.597 457.223 368.977 458.499 369.008 459.808H359.174L359.031 459.959H331.77L332.156 459.808H326.452C326.452 459.808 340.326 451.634 349.339 452.21C349.572 452.21 349.785 452.21 349.999 452.271L351.673 442.569C351.673 442.569 352.759 439.534 353.876 436.327C352.683 431.53 351.178 426.816 349.369 422.215L346.071 422.467L345.726 420.849C344.198 425.329 343.047 429.927 342.285 434.597L322.849 443.014C322.849 443.014 329.771 417.531 339.91 401.233L339.078 399.604H335.911L332.105 389.427L333.486 389.265C332.816 388.061 332.166 386.928 331.567 385.896L329.629 389.427L326.909 388.587L317.511 385.714L327.132 373.048C325.549 366.027 324.798 356.68 324.463 347.989L322.869 346.978L321.855 337.195L324.219 336.396V335.566C324.025 335.835 323.851 336.12 323.702 336.416L314.567 328.444L301.373 335.435L299.343 335.253L294.269 338.288C289.559 345.794 279.786 361.252 279.786 361.252L263.902 364.955L267.535 356.68L246.009 374.818C246.303 374.95 246.597 375.082 246.861 375.233L239.188 384.095L238.366 384.025C238.133 385.441 237.879 386.857 237.595 388.294C237.199 390.256 236.763 392.249 236.265 394.252C235.247 398.372 233.98 402.426 232.47 406.392C230.416 411.77 227.872 416.947 224.868 421.86C224.391 422.639 223.914 423.398 223.416 424.167L223.153 424.582L221.722 426.757C221.63 426.878 221.549 427 221.468 427.131L219.966 429.306L218.413 431.461C218.342 431.572 218.261 431.674 218.179 431.785C217.672 432.473 217.164 433.161 216.657 433.808L216.485 434.031L216.038 434.617C213.12 439.739 209.886 444.675 206.355 449.398C207.431 453.92 204.823 459.848 204.823 459.848H170.833C170.833 459.848 182.515 454.739 191.791 452.767C191.712 452.714 191.622 452.68 191.527 452.665V452.665L201.433 448.295L202.448 447.83L211.958 420.849C212.892 420.05 213.805 419.21 214.698 418.36C218.545 405.836 221.498 393.898 223.335 385.896C222.355 386.307 221.444 386.866 220.636 387.555L223.356 374.404H223.579C222.665 372.38 229.181 369.275 229.181 369.275C229.181 369.275 230.846 364.004 237.473 364.732L250.353 354.363L252.098 350.033L274.955 333.007L274.437 334.828L276.518 333.148L274.955 333.007L289.488 317.943C290.689 317.935 291.888 317.996 293.081 318.125L294.766 307.958C295.521 307.918 296.272 307.813 297.009 307.645L297.273 306.188L297.801 303.153C296.014 303.943 294.395 305.066 293.031 306.461C292.604 306.876 292.168 307.321 291.731 307.786C290.219 309.405 288.687 311.297 287.053 313.29C286.119 314.433 285.145 315.606 284.119 316.78C283.602 317.367 283.105 317.963 282.526 318.55C281.752 319.388 280.907 320.156 279.999 320.847C278.909 321.679 277.731 322.392 276.487 322.971C273.854 324.163 270.996 324.781 268.104 324.782C265.952 324.817 263.807 324.531 261.74 323.932L261.964 323.457L266.226 314.352C273.036 317.093 280.608 307.796 288.331 300.067C289.314 299.083 290.384 298.189 291.528 297.396V297.396C292.701 296.583 293.978 295.93 295.324 295.454L295.7 295.312C296.045 295.201 296.39 295.11 296.715 295.029L297.243 294.898C297.577 294.827 297.923 294.766 298.257 294.716L298.856 294.645C299.201 294.645 299.546 294.574 299.871 294.554H300.521C300.873 294.554 301.228 294.554 301.586 294.554H302.287C303.068 294.614 303.88 294.716 304.712 294.857C306.935 293.633 309.3 293.198 310.802 293.846C307.069 291.249 303.762 288.093 300.998 284.488C299.12 289.839 296.613 293.4 293.782 294.665C293.079 294.992 292.314 295.164 291.539 295.171C290.752 295.171 289.978 294.976 289.285 294.604C287.763 293.805 287.042 292.773 287.144 291.569C287.367 290.389 287.986 289.318 288.9 288.534L289.915 289.091C289.286 289.651 288.858 290.4 288.697 291.225C288.616 292.146 289.194 292.945 290.432 293.593C290.876 293.844 291.373 293.987 291.883 294.01C292.393 294.033 292.901 293.935 293.365 293.724C295.832 292.632 298.247 288.666 299.993 283.082L299.516 282.363C298.095 281.677 296.736 280.868 295.456 279.945V279.945C294.976 279.595 294.529 279.231 294.117 278.853L297.699 273.875L302.611 263.971H303.19H303.921L306.052 259.631H305.534C304.783 259.581 304.428 259.54 304.428 259.54L311.979 245.65H313.207V245.549H312.609H313.238C315.156 241.897 317.155 238.184 319.175 234.563C317.896 231.679 316.232 228.017 315.176 225.68L278.04 234.896C277.685 235.817 277.289 236.778 276.883 237.78L276.822 237.921C276.609 238.447 276.386 238.994 276.152 239.54C276.091 239.681 276.041 239.823 275.98 239.955C275.767 240.471 275.543 240.966 275.32 241.513C275.259 241.634 275.219 241.755 275.158 241.867C274.884 242.524 274.599 243.172 274.295 243.89C274.276 243.942 274.252 243.993 274.224 244.042C273.96 244.639 273.696 245.246 273.412 245.853C273.331 246.045 273.239 246.237 273.148 246.439L272.458 247.926C272.367 248.129 272.265 248.341 272.164 248.544C271.879 249.164 271.585 249.781 271.281 250.395C271.25 250.475 271.212 250.553 271.169 250.628C270.834 251.326 270.489 252.024 270.154 252.722L269.839 253.339C269.586 253.855 269.322 254.35 269.058 254.877L268.682 255.595C268.412 256.128 268.128 256.664 267.83 257.203L267.535 257.76C267.15 258.478 266.764 259.186 266.358 259.904L266.094 260.38L265.079 262.059C264.947 262.302 264.805 262.535 264.673 262.767L263.76 264.305L263.364 264.953C262.938 265.661 262.491 266.379 262.045 267.077L252.027 256.961L252.2 256.687L252.372 256.414C253.986 253.875 260.654 243.394 266.125 235.17C263.261 233.326 260.3 231.637 257.254 230.111L253.834 231.123L239.97 225.275L224.624 221.897L224.939 219.054C221.092 218.224 217.56 217.597 214.526 217.132C211.54 218.162 208.489 218.99 205.391 219.61C198.561 221.219 189.843 223.04 185.651 225.68C179.724 229.444 175.654 228.482 181.52 224.001C184.697 221.573 193.05 220.096 197.83 217.445C195 217.124 192.152 216.989 189.305 217.041L188.533 217.101C185.569 217.117 182.621 217.543 179.774 218.366C176.882 219.378 164.388 224.992 162.47 224.436C160.552 223.879 169.26 218.892 175.715 216.848C180.124 215.599 184.639 214.756 189.203 214.329L189.386 213.571C185.733 213.071 182.022 213.18 178.404 213.894C175.481 214.694 162.673 219.357 160.937 218.599C159.202 217.84 168.346 213.459 174.832 211.901ZM340.956 160.165C341.305 158.81 341.553 157.43 341.696 156.038L341.27 155.825C341.095 156.477 340.673 157.036 340.093 157.383C339.739 157.56 339.359 157.676 338.966 157.727C338.57 159.102 338.096 160.453 337.545 161.774C338.549 160.993 339.714 160.444 340.956 160.165V160.165ZM422.414 287.917H422.475V287.826L422.414 287.917ZM412.772 232.721L413.432 233.359L413.949 232.064L412.772 232.721ZM244.537 367.059L244.923 367.231L245.156 366.685L244.537 367.059ZM311.969 294.776L312.101 294.705L311.837 294.523C311.908 294.604 311.908 294.695 311.969 294.776ZM241.756 223.657H241.807H241.756Z" fill="#876870"/>
</g>
<path d="M219.651 221.755L236.194 210.627L245.329 219.023C245.329 219.023 236.529 231.558 219.428 242.868L219.651 221.755Z" fill="#BCA06F"/>
<path d="M144.293 68.0845L148.657 70.4922C148.657 70.4922 153.955 81.1449 149.032 101.803L146.891 100.963C152.838 84.6655 144.293 68.0845 144.293 68.0845Z" fill="#44312A"/>
<path d="M226.126 33.7185C226.126 33.7185 218.535 53.5267 201.129 82.9558L197.688 77.7862C202.742 67.781 226.126 33.7185 226.126 33.7185Z" fill="#FF9F36"/>
<path d="M179.227 7.68848C179.227 7.68848 174.893 28.4477 162.49 60.2946L158.258 55.7421C161.638 45.0692 179.227 7.68848 179.227 7.68848Z" fill="#FF9F36"/>
<path d="M200.144 25.5645C200.144 25.5645 196.085 39.6467 182.89 67.4369L180.099 61.367C184.717 50.9469 200.144 25.5645 200.144 25.5645Z" fill="#FF9F36"/>
<path d="M263.77 378.542L275.949 383.974C275.949 383.974 275.452 409.913 279.918 427.951L264.207 438.573C264.207 438.573 258.31 397.581 263.77 378.542Z" fill="#BCA06F"/>
<path d="M196.206 256.961C175.573 247.33 165.17 232.327 165.17 232.327L178.952 223.981L211.105 247.856L196.206 256.961Z" fill="#BCA06F"/>
<path d="M169.595 180.692C169.098 179.68 155.721 161.177 155.721 161.177L172.569 149.816L169.595 180.692Z" fill="#BCA06F"/>
<path d="M178.831 291.468L188.726 301.281C188.726 301.939 184.027 335.324 184.027 335.324L169.818 339.997L169.483 312.045L178.831 291.468Z" fill="#BCA06F"/>
<path d="M188.706 250.334C189.864 250.323 191.011 250.111 192.096 249.707L191.731 248.301C190.778 248.722 189.742 248.924 188.7 248.893C187.659 248.861 186.637 248.597 185.712 248.119C183.54 246.874 182.048 244.173 181.277 240.086L179.846 240.349C180.708 244.881 182.434 247.916 184.981 249.373C186.115 250.018 187.401 250.349 188.706 250.334V250.334Z" fill="#B22934"/>
<path d="M165.819 251.902C166.546 251.913 167.256 251.693 167.849 251.275C170.62 249.312 171.33 243.01 169.879 233.521L168.448 233.743C169.798 242.403 169.28 248.513 167.047 250.091C166.296 250.628 165.281 250.567 164.003 249.909C163.358 249.627 162.777 249.218 162.294 248.707C161.811 248.196 161.436 247.594 161.191 246.935C160.951 246.033 161.041 245.076 161.445 244.234L160.176 243.526C159.579 244.706 159.441 246.065 159.791 247.34C160.087 248.185 160.552 248.963 161.157 249.625C161.762 250.287 162.496 250.821 163.313 251.194C164.077 251.631 164.938 251.874 165.819 251.902Z" fill="#C9474D"/>
<path d="M149.154 276.182C157.213 279.632 160.552 267.907 164.764 258.144C168.976 248.382 177.897 249.039 196.856 258.893L184.098 262.596C171.706 256.91 171.828 269.677 167.372 281.493C162.917 293.309 149.032 288.281 149.032 288.281L149.154 276.182Z" fill="#EDD9A9"/>
<path d="M153.813 288.909C162.023 288.909 168.722 278.792 168.773 266.278C168.809 262.346 168.121 258.44 166.743 254.755C171.564 248.685 180.444 250.324 196.846 258.873L184.088 262.575C171.696 256.89 171.818 269.657 167.362 281.473C162.906 293.289 149.022 288.261 149.022 288.261V287.675C150.495 288.467 152.139 288.891 153.813 288.909V288.909Z" fill="#D3BB8C"/>
<path d="M149.124 68.2666C155.538 77.5334 155.853 98.0396 151.752 100.164L174.304 90.5331C174.304 90.5331 170.965 72.1615 149.124 68.2666Z" fill="#44312A"/>
<path d="M174.802 87.5689C158.563 85.0296 155.518 77.8064 151.012 83.6133C146.505 89.4202 140.233 93.7299 135.788 88.4288C131.342 83.1277 131.088 97.3213 142.983 96.4613C154.878 95.6014 169.473 94.084 169.473 94.084L174.802 87.5689Z" fill="#C9474D"/>
<path d="M135.767 88.4288C140.233 93.74 146.556 89.4405 150.991 83.6133C151.052 83.5324 151.113 83.4818 151.174 83.4009C151.954 83.9438 152.6 84.657 153.063 85.4862C153.525 86.3153 153.792 87.2387 153.843 88.186C153.843 92.5361 148.078 96.0567 140.974 96.0567C140.027 96.0552 139.081 95.991 138.142 95.8645C131.251 93.2848 132.022 83.9674 135.767 88.4288Z" fill="#F7525F"/>
<path d="M261.284 359.775C268.388 366.442 298.46 443.136 308.123 451.29L301.018 452.028C296.563 423.874 238.945 356.811 238.945 356.811C238.945 356.811 254.23 353.068 261.284 359.775Z" fill="#4F3933"/>
<path d="M286.535 459.808H318.16C318.16 459.808 315.187 450.915 305.89 450.177C296.593 449.438 286.535 459.808 286.535 459.808Z" fill="#685047"/>
<path d="M119.853 459.798H151.448C151.448 459.798 153.255 450.592 144.344 449.823C135.432 449.054 119.853 459.798 119.853 459.798Z" fill="#685047"/>
<path d="M247.166 363.852C234.52 357.55 211.481 287.523 211.481 287.523L238.986 255.281L247.166 363.852Z" fill="#4F3933"/>
<path d="M212.222 280.482C176.537 319.754 149.773 344.216 149.773 344.216L140.852 343.477L181.744 277.902L212.222 280.482Z" fill="#4F3933"/>
<path d="M187.853 249.879C190.817 248.109 194.359 248.554 195.77 250.891C197.181 253.228 195.932 256.566 192.969 258.347C190.005 260.127 186.463 259.672 185.052 257.335C183.641 254.998 184.9 251.66 187.853 249.879Z" fill="#B22934"/>
<path d="M190.482 246.045C192.238 243.081 195.557 241.796 197.932 243.182C200.307 244.568 200.773 248.099 199.018 251.063C197.262 254.027 193.943 255.312 191.568 253.926C189.193 252.54 188.726 249.009 190.482 246.045Z" fill="#B22934"/>
<path d="M178.261 242.434C172.7 240.134 169.042 236.229 170.09 233.71C171.138 231.192 176.496 231.014 182.056 233.313C187.617 235.613 191.275 239.518 190.227 242.037C189.179 244.555 183.821 244.733 178.261 242.434Z" fill="#B22934"/>
<path d="M177.471 253.329C179.227 250.365 182.545 249.08 184.92 250.476C187.295 251.872 187.762 255.393 186.006 258.357C184.251 261.321 180.932 262.596 178.557 261.21C176.182 259.824 175.715 256.293 177.471 253.329Z" fill="#B22934"/>
<path d="M227.832 278.995C205.503 296.041 182.86 294.564 182.86 294.564L175.045 259.358L225.233 229.717L237.494 236.798C237.494 236.798 240.63 269.222 227.832 278.995Z" fill="#685047"/>
<path d="M181.997 264.113C191.67 260.38 197.891 250 196.663 246.622L225.233 229.717L237.494 236.798C237.494 236.798 240.63 269.262 227.832 279.035C205.503 296.081 182.86 294.604 182.86 294.604L176.496 265.924C178.362 265.42 180.198 264.816 181.997 264.113V264.113Z" fill="#4F3933"/>
<path d="M136.396 353.847L139.735 346.432L148.291 346.067C148.291 346.067 162.044 411.643 148.657 453.88L147.175 453.515C149.398 417.571 136.396 353.847 136.396 353.847Z" fill="#4F3933"/>
<path d="M143.613 354.08C125.344 354.282 137.026 345.4 137.026 345.4C137.026 345.4 135.828 334.474 151.093 342.547C166.357 350.62 143.613 354.08 143.613 354.08Z" fill="#4F3933"/>
<path d="M142.912 350.124C130.733 350.266 138.528 344.358 138.528 344.358C138.528 344.358 137.736 337.084 147.896 342.456C158.055 347.828 142.912 350.124 142.912 350.124Z" fill="#685047"/>
<path d="M173.066 138.202C182.485 124.373 211.227 119.183 211.227 119.183C211.227 119.183 246.171 196.008 235.515 238.488L222.879 246.389C178.516 245.903 163.647 231.821 163.647 231.821C163.647 231.821 163.647 152.032 173.066 138.202Z" fill="#4F3933"/>
<path d="M121.771 167.105C131.433 163.645 186.94 128.571 186.94 128.571L177.278 156.726C165.88 155.987 117.306 175.745 117.306 175.745C117.306 175.745 112.109 170.565 121.771 167.105Z" fill="#4F3933"/>
<path d="M277.888 198.001C269.941 190.667 210.811 160.115 210.811 160.115L212.628 135.056C227.568 146.184 287.733 198.032 287.733 198.032C287.733 198.032 285.835 205.366 277.888 198.001Z" fill="#4F3933"/>
<path d="M42.4748 149.563C63.0373 149.068 92.0338 158.213 123.507 167.348L115.58 177.728C80.3824 154.46 41.4903 151.789 41.4903 151.789L42.4748 149.563Z" fill="#4F3933"/>
<path d="M314.953 290.639C300.409 271.539 291.366 236.475 280.638 199.054L285.287 198.77C286.864 198.639 288.452 198.831 289.952 199.335C291.452 199.84 292.832 200.645 294.007 201.703C295.181 202.76 296.126 204.046 296.782 205.482C297.438 206.918 297.792 208.473 297.821 210.05C298.45 256.465 318.211 289.738 318.211 289.738L314.953 290.639Z" fill="#BCA06F"/>
<path d="M192.4 97.2C192.4 97.2 186.696 111.768 199.332 127.833L188.676 134.995C183.723 115.976 175.796 107.084 175.796 107.084L192.4 97.2Z" fill="#4F3933"/>
<path d="M169.473 84.3518C171.188 84.4732 171.503 85.6568 171.016 88.7525L167.616 90.6544C167.616 90.6544 164.845 87.8015 165.332 86.2537C165.819 84.7059 167.788 84.2304 169.473 84.3518Z" fill="#E8DAB3"/>
<path d="M147.124 77.5029C145.652 76.6228 145.906 75.5909 147.733 73.4563L151.61 73.6182C151.61 73.6182 152.808 77.0376 151.671 77.9683C150.534 78.899 148.606 78.3932 147.124 77.5029Z" fill="#E8DAB3"/>
<path d="M154.462 80.467C152.991 79.5869 153.254 78.555 155.071 76.4204L158.958 76.5823C158.958 76.5823 160.146 80.0017 159.009 80.9324C157.872 81.8631 155.944 81.3573 154.462 80.467Z" fill="#E8DAB3"/>
<path d="M139.837 73.2035C138.822 71.8276 139.441 70.9677 141.867 69.7234L145.46 71.3218C145.46 71.3218 145.267 74.9435 143.866 75.3684C142.466 75.7933 140.872 74.5793 139.837 73.2035Z" fill="#E8DAB3"/>
<path d="M141.471 92.8802C143.186 92.9915 143.501 94.1852 143.014 97.2708L139.614 99.1423C139.614 99.1423 136.843 96.2895 137.33 94.7518C137.817 93.214 139.756 92.7588 141.471 92.8802Z" fill="#E8DAB3"/>
<path d="M148.779 90.7758C150.494 90.8972 150.808 92.0808 150.321 95.1765L146.921 97.1189C146.921 97.1189 144.15 94.266 144.638 92.7182C145.125 91.1703 147.063 90.6544 148.779 90.7758Z" fill="#E8DAB3"/>
<path d="M156.462 88.8032C158.177 88.9145 158.492 90.1082 158.004 93.1938L154.594 95.0957C154.594 95.0957 151.823 92.2428 152.311 90.7051C152.798 89.1674 154.746 88.6818 156.462 88.8032Z" fill="#E8DAB3"/>
<path d="M163.525 86.5776C165.241 86.699 165.555 87.8827 165.068 90.9783L161.699 92.8802C161.699 92.8802 158.928 90.0274 159.415 88.4795C159.902 86.9317 161.81 86.4562 163.525 86.5776Z" fill="#E8DAB3"/>
<path d="M191.132 101.894C160.684 125.162 146.525 121.115 146.525 121.115L135.118 96.9065C135.118 96.9065 167.829 90.4926 175.715 83.0772C183.601 75.6618 191.132 101.894 191.132 101.894Z" fill="#685047"/>
<path d="M151.093 100.154C167.037 96.2187 178.871 88.6414 177.481 83.229C177.4 82.871 177.259 82.529 177.065 82.2174C184.484 78.5754 191.122 101.914 191.122 101.914C160.674 125.182 146.515 121.136 146.515 121.136L137.625 102.258C142.166 101.945 146.673 101.241 151.093 100.154V100.154Z" fill="#4F3933"/>
<path d="M188.615 100.043C173.348 87.5494 156.395 77.2579 138.254 69.4704L142.313 60.76C142.313 60.76 189.914 72.4345 197.729 82.2577C205.544 92.0809 188.615 100.043 188.615 100.043Z" fill="#685047"/>
<path d="M141.298 67.2548C140.722 67.0431 140.132 66.8707 139.532 66.7389L142.344 60.76C142.344 60.76 189.914 72.4345 197.729 82.2577C205.544 92.0809 188.594 100.043 188.594 100.043C184.423 96.5524 180.17 93.3556 175.999 90.4521C176.679 83.6336 158.654 74.7209 141.298 67.2548Z" fill="#4F3933"/>
<path d="M242.893 106.679L240.467 124.434C240.467 124.434 200.124 123.726 193.781 87.225L200.51 77.3613C210.588 96.0365 222.594 110.584 242.893 106.679Z" fill="#D3BB8C"/>
<path d="M240.468 124.434C233.673 124.063 226.987 122.565 220.687 120.003C219.8 118.733 219.313 117.229 219.286 115.683C219.286 111.758 222.534 108.247 227.619 105.92C232.572 107.489 237.85 107.747 242.934 106.669L240.468 124.434Z" fill="#EDD9A9"/>
<path d="M198.47 85.9907L202.742 92.6575C202.742 92.6575 194.755 109.522 180.992 122.117L170.772 114.702C170.772 114.702 194.176 94.4785 198.47 85.9907Z" fill="#EDD9A9"/>
<path d="M178.953 56.8754C173.563 97.0786 159.669 119.487 159.669 119.487L174.893 115.046C174.893 115.046 190.878 95.8242 195.344 75.5911C199.81 55.3579 178.953 56.8754 178.953 56.8754Z" fill="#EDD9A9"/>
<path d="M179.886 84.1091L175.238 104.12C162.785 113.933 144.201 117.079 144.201 117.079L137.097 102.076C137.097 102.076 150.89 103.927 179.886 84.1091Z" fill="#EDD9A9"/>
<path d="M145.866 51.5034C145.866 51.5034 192.553 68.5498 201.443 86.6989L196.206 100.599C169.473 74.6602 139.177 65.7577 139.177 65.7577L145.866 51.5034Z" fill="#EDD9A9"/>
<path d="M203.311 91.1501C217.997 72.2524 211.491 54.0932 195.871 45.0186C180.251 35.9441 166.327 32.9799 157.964 38.716C149.601 44.4521 141.481 60.9725 141.481 60.9725L203.311 91.1501Z" fill="#D3BB8C"/>
<path d="M157.954 38.716C166.317 32.9799 180.282 35.9441 195.861 45.0186C201.577 48.1904 206.181 53.0307 209.055 58.8884C202.022 62.7631 189.772 63.9467 176.415 61.3872C165.119 59.2223 155.538 54.8418 149.773 49.7734C151.328 45.3545 154.178 41.5025 157.954 38.716Z" fill="#EDD9A9"/>
<path d="M206.092 70.0267C199.718 52.8893 186.027 43.8957 168.732 38.9082C183.225 39.2724 198.835 46.5361 206.092 70.0267Z" fill="#685047"/>
<path d="M168.61 137.959L163.15 162.158L119.792 177.475L143.328 152.78L168.61 137.959Z" fill="#D3BB8C"/>
<path d="M143.328 152.76L164.885 140.114C160.486 146.777 155.235 152.84 149.266 158.152C138.792 167.763 134.174 167.449 128.094 168.319L143.328 152.76Z" fill="#EDD9A9"/>
<path d="M115.327 164.637L124.004 163.625C124.004 163.625 126.978 192.033 123.507 216.231L108.922 203.656C108.922 203.656 113.347 172.042 115.327 164.637Z" fill="#EDD9A9"/>
<path d="M116.818 163.403C115.803 163.645 98.9759 171.051 98.9759 171.051L79.6415 162.411L102.193 158.213L116.818 163.403Z" fill="#D3BB8C"/>
<path d="M80.1389 152.527L84.3508 164.141L65.5137 159.447L62.54 148.582L80.1389 152.527Z" fill="#EDD9A9"/>
<path d="M162.906 221.886C180.505 233.015 239.727 231.325 239.727 231.325V249.353C239.727 249.353 181.246 247.795 160.927 231.325L162.906 221.886Z" fill="#EDD9A9"/>
<path d="M162.663 212.549C162.663 212.549 213.957 210.576 238.986 202.432L240 220.47C203.818 232.327 162.186 227.38 162.186 227.38L162.663 212.549Z" fill="#EDD9A9"/>
<path d="M217.429 135.977L222.625 140.428C196.856 174.763 183.225 223.92 183.225 223.92L166.378 222.19C166.378 222.19 185.215 160.185 217.429 135.977Z" fill="#EDD9A9"/>
<path d="M163.647 189.331C163.647 189.331 223.873 189.089 234.774 187.308L239.229 201.137C182.728 209.534 162.409 206.823 162.409 206.823L163.647 189.331Z" fill="#EDD9A9"/>
<path d="M173.066 158.951C188.432 176.979 232.744 178.709 232.744 178.709L233.759 192.053C233.759 192.053 186.676 194.026 165.616 169.078L173.066 158.951Z" fill="#EDD9A9"/>
<path d="M196.612 142.401C180.587 187.268 181.744 199.215 181.744 199.215L165.261 198.416C169.443 178.76 179.805 158.881 188.056 144.313L196.612 142.401Z" fill="#EDD9A9"/>
<path d="M206.772 291.357C186.94 280.229 174.061 280.734 174.061 280.734L166.377 299.754L193.882 302.718L206.772 291.357Z" fill="#EDD9A9"/>
<path d="M208.253 266.652L208.01 288.878L201.565 293.077L186.199 276.779L208.253 266.652Z" fill="#D3BB8C"/>
<path d="M151.265 321.241L152.371 359.401L170.214 328.647L166.377 299.744L151.265 321.241Z" fill="#EDD9A9"/>
<path d="M149.773 351.247C154.787 370.145 159.253 390.894 156.654 411.825C154.94 424.879 151.5 437.649 146.424 449.803L143.268 410.53C151.468 395.972 152.838 375.527 149.773 351.247Z" fill="#EDD9A9"/>
<path d="M138.254 459.808H153.864C153.864 459.808 153.742 448.568 148.038 443.136L137.259 450.673C137.259 450.673 140.609 451.29 138.254 459.808Z" fill="#D3BB8C"/>
<path d="M157.456 352.977L153.802 364.105C139.461 362.335 136.812 368.455 136.812 368.455L133.544 351.814C133.544 351.814 149.144 348.283 157.456 352.977Z" fill="#EDD9A9"/>
<path d="M220.149 139.932L234.52 150.555C234.52 150.555 236.255 172.164 241.716 176.615L235.017 184.516C219.164 178.962 211.725 151.546 220.149 139.932Z" fill="#D3BB8C"/>
<path d="M243.817 156.918L260.543 171.364C255.336 175.411 251.621 182.847 251.621 182.847L240.66 178.588C240.66 178.588 238.427 161.916 243.817 156.918Z" fill="#EDD9A9"/>
<path d="M272.255 195.816L260.177 190.262L259.426 171.182L274.488 183.595L272.255 195.816Z" fill="#EDD9A9"/>
<path d="M296.42 202.675L285.266 194.339L276.345 198.78L282.851 210.637L296.42 202.675Z" fill="#EDD9A9"/>
<path d="M299.019 210.455L287.865 229.717L292.696 244.73L299.394 223.788L299.019 210.455Z" fill="#EDD9A9"/>
<path d="M282.658 208.786L285.449 218.609L297.161 218.973L299.019 211.193L282.658 208.786Z" fill="#EDD9A9"/>
<path d="M292.137 242.322L303.667 246.763L305.524 255.656L295.862 254.543L292.137 242.322Z" fill="#EDD9A9"/>
<path d="M304.033 252.691L299.76 265.843L306.265 277.143L311.837 274.371L304.033 252.691Z" fill="#EDD9A9"/>
<path d="M248.445 345.562C248.445 346.664 246.669 370.853 246.669 370.853L232.866 366.179L244.69 317.994L248.445 345.562Z" fill="#EDD9A9"/>
<path d="M245.43 333.098L220.646 317.286L215.196 304.933L244.192 290.365L245.43 333.098Z" fill="#EDD9A9"/>
<path d="M224.361 284.184L241.96 302.708L244.192 290.366L235.271 263.688L224.361 284.184Z" fill="#EDD9A9"/>
<path d="M249.145 370.883L270.459 367.676L275.909 383.984L257.569 383.731L249.145 370.883Z" fill="#EDD9A9"/>
<path d="M268.469 394.354L286.322 398.552L290.534 411.4L278.142 412.634L268.469 394.354Z" fill="#EDD9A9"/>
<path d="M291.397 421.213C291.64 422.225 292.889 438.017 292.889 438.017L295.862 451.35L280.994 460H308.245L311.716 450.895L302.297 443.49L291.397 421.213Z" fill="#D3BB8C"/>
<path d="M275.594 459.808H295.669C295.669 459.808 304.225 450.915 294.929 450.177C285.632 449.438 275.594 459.808 275.594 459.808Z" fill="#685047"/>
<path d="M57.9624 150.878C39.105 141.935 25.2512 141.349 25.2512 141.349L27.2811 153.408C27.2811 153.408 37.5014 152.052 40.2316 155.937C42.9618 159.821 57.9624 150.878 57.9624 150.878Z" fill="#685047"/>
<path d="M152.717 425.907C153.802 411.511 152.605 398.663 149.875 390.944C151.854 379.442 151.651 366.058 149.773 351.237C154.787 370.135 159.253 390.884 156.654 411.815C155.644 419.624 153.997 427.338 151.732 434.881C152.148 431.977 152.473 429.003 152.717 425.907Z" fill="#D3BB8C"/>
<path d="M144.82 355.941C144.82 354.1 144.729 352.309 144.577 350.569C149.012 350.478 153.904 350.974 157.456 352.977L153.802 364.105C150.62 363.644 147.385 363.674 144.211 364.196C144.614 361.463 144.818 358.704 144.82 355.941V355.941Z" fill="#D3BB8C"/>
<path d="M158.938 336.305C163.566 336.305 167.484 329.162 168.965 319.208L170.214 328.647L152.371 359.401L151.488 328.92C153.407 333.482 156.035 336.305 158.938 336.305Z" fill="#D3BB8C"/>
<path d="M189.021 287.189C188.722 285.579 187.98 284.084 186.879 282.869C193.817 284.916 200.493 287.761 206.772 291.347L193.882 302.708L179.125 301.119C185.844 297.67 189.934 292.369 189.021 287.189Z" fill="#D3BB8C"/>
<path d="M171.188 317.66L169.493 303.082L184.859 303.699C179.876 308.859 175.289 313.522 171.188 317.66Z" fill="#685047"/>
<path d="M148.028 368.536C148.21 369.548 148.403 370.559 148.596 371.733C148.758 381.586 147.368 391.258 144.871 397.945C143.258 384.743 141.552 374.292 140.669 369.224L148.028 368.536Z" fill="#685047"/>
<path d="M137.259 450.673L148.038 443.105C148.641 443.692 149.185 444.335 149.662 445.028C148.633 447.523 147.304 449.884 145.703 452.059C143.678 454.869 141.198 457.323 138.365 459.322C140.466 451.29 137.259 450.673 137.259 450.673Z" fill="#EDD9A9"/>
<path d="M238.245 234.047L239.727 251.832C229.324 260.936 178.019 282.181 178.019 282.181L174.801 268.089C174.801 268.089 185.458 268.382 238.245 234.047Z" fill="#EDD9A9"/>
<path d="M201.504 260.936C202.155 259.164 202.694 257.353 203.118 255.514C211.978 250.557 223.417 243.657 238.245 234.047L239.727 251.832C232.622 258.033 206.772 269.809 190.858 276.738C195.694 272.457 199.358 267.019 201.504 260.936Z" fill="#D3BB8C"/>
<path d="M179.968 281.402L178.039 282.212L177.826 281.25C178.533 281.372 179.25 281.423 179.968 281.402V281.402Z" fill="#D3BB8C"/>
<path d="M237.494 245.65L240.468 260.724C216.678 293.573 216.678 303.952 216.678 303.952L203.798 293.836C203.798 293.836 210.486 265.418 237.494 245.65Z" fill="#EDD9A9"/>
<path d="M111.734 194.238C118.625 194.238 124.238 184.779 124.704 172.821C125.303 183.171 125.719 200.571 123.507 216.221L108.922 203.657C108.922 203.657 109.491 199.61 110.313 194.117C110.781 194.205 111.257 194.246 111.734 194.238V194.238Z" fill="#D3BB8C"/>
<path d="M102.193 158.213L116.818 163.403C116.356 163.551 115.903 163.724 115.458 163.919C111.005 164.753 106.481 165.156 101.95 165.123C93.414 165.123 85.9746 163.858 81.996 161.976L102.193 158.213Z" fill="#EDD9A9"/>
<path d="M76.6678 154.783C78.1293 154.783 79.5401 154.783 80.9103 154.682L84.3508 164.172L65.5137 159.478L63.9508 153.741C68.1486 154.478 72.4056 154.827 76.6678 154.783Z" fill="#D3BB8C"/>
<path d="M163.576 206.985C162.785 206.924 162.409 206.874 162.409 206.874L163.647 189.332H167.179C165.294 195.056 164.085 200.981 163.576 206.985Z" fill="#D3BB8C"/>
<path d="M163.221 212.529C163.221 213.682 163.16 214.835 163.16 216.009C163.15 222.056 163.704 228.091 164.814 234.037C163.459 233.222 162.16 232.316 160.927 231.325L162.237 225.053L162.663 212.549L163.221 212.529Z" fill="#D3BB8C"/>
<path d="M209.248 220.207C209.251 216.329 209.024 212.455 208.568 208.603C219.732 207.106 236.154 203.687 244.375 201.006L245.39 219.034C233.519 222.702 221.357 225.359 209.035 226.975C209.17 224.77 209.241 222.514 209.248 220.207Z" fill="#D3BB8C"/>
<path d="M186.199 170.191C179.612 169.594 173.675 174.804 169.473 183.646C170.407 180.948 171.422 178.281 172.518 175.644C170.014 173.696 167.718 171.496 165.667 169.078L173.096 158.962C174.552 160.636 176.182 162.152 177.958 163.484C181.328 156.513 184.87 150.008 188.107 144.323L196.663 142.411C192.837 153.124 189.995 161.936 187.884 169.189C188.412 169.422 188.899 169.655 189.467 169.877C197.12 156.827 206.518 144.222 217.479 135.987L222.676 140.438C214.924 151.031 208.183 162.323 202.54 174.167C212.476 176.626 222.623 178.15 232.845 178.719L233.495 187.541C233.992 187.49 234.439 187.43 234.824 187.369L239.28 201.198C227.324 202.979 217.012 204.233 208.152 205.164C205.077 185.74 196.42 171.122 186.199 170.191Z" fill="#D3BB8C"/>
<path d="M208.67 230.809C225.355 231.73 239.727 231.325 239.727 231.325V249.353C228.258 248.922 216.822 247.855 205.473 246.156C207.053 241.161 208.124 236.019 208.67 230.809V230.809Z" fill="#D3BB8C"/>
<path d="M170.387 136.472C170.387 136.472 204.143 119.426 214.901 121.652L219.905 134.247C219.905 134.247 181.642 149.816 165.637 169.817L170.387 136.472Z" fill="#EDD9A9"/>
<path d="M186.839 128.966C196.988 124.717 209.167 120.478 214.901 121.652L219.905 134.247C219.905 134.247 198.957 142.775 181.581 155.31C187.559 144.667 189.589 134.338 186.839 128.966Z" fill="#D3BB8C"/>
<path d="M223.559 187.854L215.571 193.591L164.266 189.18C164.266 189.18 193.08 188.593 223.559 187.854Z" fill="#D3BB8C"/>
<path d="M235.454 346.634L238.529 333.705L224.299 322.536L235.454 346.634Z" fill="#685047"/>
<path d="M232.104 307.25C232.12 303.792 231.78 300.341 231.089 296.951L244.192 290.345L245.43 333.078L229.526 322.961C231.302 317.915 232.174 312.597 232.104 307.25V307.25Z" fill="#D3BB8C"/>
<path d="M212.09 274.3C218.434 263.079 227.08 253.317 237.463 245.65L240.437 260.724C238.942 262.788 237.541 264.764 236.235 266.652L244.192 290.345L241.96 302.688L226.736 286.633C222.808 279.935 217.347 275.363 212.09 274.3Z" fill="#D3BB8C"/>
<path d="M243.908 357.297C243.908 349.547 242.274 342.638 239.727 338.075L244.659 313.057L248.414 345.531C248.414 346.634 246.638 370.822 246.638 370.822L242.447 369.406C243.433 365.445 243.924 361.378 243.908 357.297V357.297Z" fill="#D3BB8C"/>
<path d="M265.221 378.046C265.238 374.875 264.897 371.712 264.207 368.617L270.438 367.676L275.888 383.974L264.856 383.832C265.105 381.914 265.227 379.981 265.221 378.046Z" fill="#D3BB8C"/>
<path d="M282.1 408.931C282.139 404.907 281.48 400.906 280.151 397.105L286.322 398.592L290.534 411.44L281.948 412.29C282.039 411.167 282.1 410.065 282.1 408.931Z" fill="#D3BB8C"/>
<path d="M222.26 246.945L231.739 245.65L236.012 240.835L222.26 246.945Z" fill="#4F3933"/>
<path d="M144.069 116.816C155 115.025 168.57 105.354 175.979 91.5245C180.054 84.1728 181.871 75.7896 181.206 67.4167L195.861 72.0805C195.751 73.2608 195.568 74.4332 195.313 75.5909C195.12 76.4711 194.897 77.331 194.664 78.201C197.414 80.612 199.71 83.4932 201.443 86.709L200.52 89.1674L202.742 92.6373C202.742 92.6373 194.755 109.502 180.992 122.097L172.315 115.804L159.628 119.497C161.28 116.676 162.771 113.765 164.094 110.776C157.734 113.65 151.057 115.769 144.201 117.089L144.069 116.816ZM190.858 95.6419C190.096 94.9844 189.345 94.3268 188.584 93.6895C186.778 97.2909 184.849 100.609 183.022 103.513C185.671 100.973 188.401 98.2621 190.858 95.6419V95.6419Z" fill="#D3BB8C"/>
<path d="M195.861 104.12L194.379 91.0896L198.216 100.721L195.861 104.12Z" fill="#4F3933"/>
<path d="M165.576 10.5617C159.07 23.1568 156.096 48.3572 156.096 48.3572L171.848 51.6855C190.117 13.5258 202.002 0 202.002 0C197.536 13.89 179.135 55.9446 179.135 55.9446L191.223 64.4728C198.094 57.6644 215.378 22.2564 215.378 22.2564C213.897 36.713 198.652 70.4315 198.652 70.4315L207.787 78.029C218.951 64.1289 243.472 26.7077 243.472 26.7077C240.498 38.19 217.083 80.2446 209.096 91.737C187.864 76.987 164.886 66.4456 140.7 58.757C155.903 17.4106 165.576 10.5617 165.576 10.5617Z" fill="#FFCF48"/>
<path d="M214.424 24.1685C215.033 22.9444 215.378 22.2261 215.378 22.2261C213.897 36.6826 198.652 70.4011 198.652 70.4011L207.787 77.9987C218.951 64.0985 243.472 26.6774 243.472 26.6774C240.498 38.1597 217.083 80.2142 209.096 91.7066C202.446 86.9819 195.458 82.7486 188.188 79.0407C190.269 76.6026 211.106 38.2912 214.424 24.1685Z" fill="#FF9F36"/>
<path d="M171.29 111.606C183.104 105.536 188.402 94.9944 190.523 82.1768C191.497 92.5867 187.63 104.393 171.29 111.606Z" fill="#4F3933"/>
<path d="M163.211 91.6054L155.345 94.2964C159.77 86.8911 156.583 75.5808 156.583 75.5808L163.343 79.6274C163.343 79.6274 159.506 88.186 163.211 91.6054Z" fill="#685047"/>
<path d="M52.411 151.05C48.2904 147.752 40.6885 149.027 37.4915 153.074C34.2944 157.12 25.6472 158.85 23.4144 162.179C19.5881 167.844 24.0944 169.058 28.3064 164.303C34.0204 157.818 57.6988 155.279 52.411 151.05Z" fill="#685047"/>
<path d="M42.3428 154.783C29.7373 152.082 21.5874 153.59 19.1008 154.925C16.6143 156.26 6.72882 163.291 4.54672 162.573C2.36462 161.855 8.80945 155.572 14.3408 152.993C20.2376 150.251 31.3409 148.946 34.6902 149.391C38.0394 149.836 42.3428 154.783 42.3428 154.783Z" fill="#685047"/>
<path d="M38.7905 151.799C26.6114 147.682 18.3194 148.248 15.6907 149.29C13.062 150.332 2.43573 156.19 0.355119 155.228C-1.72549 154.267 5.42975 148.754 11.1844 146.832C17.3552 144.808 28.5397 144.707 31.8078 145.577C35.0759 146.447 38.7905 151.799 38.7905 151.799Z" fill="#685047"/>
<path d="M39.2778 150.433C28.1136 144.009 19.9028 142.947 17.1219 143.463C14.341 143.979 2.77077 147.641 0.883003 146.295C-1.00477 144.95 7.09439 140.934 13.1434 140.175C19.5983 139.366 30.5697 141.48 33.6145 142.967C36.6593 144.454 39.2778 150.433 39.2778 150.433Z" fill="#685047"/>
<path d="M309.533 278.013C311.716 298.712 318.445 310.801 318.445 310.801L327.701 302.768C327.701 302.768 321.195 294.786 323.103 290.436C325.011 286.086 309.533 278.013 309.533 278.013Z" fill="#D3BB8C"/>
<path d="M312.568 282.647C311.898 287.857 316.983 293.643 322.058 294.281C327.132 294.918 333.222 301.362 337.17 301.524C344.021 301.817 342.701 297.356 336.439 296.253C327.955 294.746 313.431 275.939 312.568 282.647Z" fill="#D3BB8C"/>
<path d="M321.043 289.232C325.306 301.372 330.847 307.503 333.293 308.929C335.739 310.356 346.903 315.08 347.431 317.306C347.959 319.532 339.21 317.306 334.125 313.978C328.706 310.396 321.753 301.666 320.424 298.56C319.094 295.454 321.043 289.232 321.043 289.232Z" fill="#D3BB8C"/>
<path d="M320.322 293.825C323.164 306.36 327.955 313.097 330.218 314.787C332.481 316.476 343.047 322.455 343.3 324.721C343.554 326.988 335.181 323.821 330.461 319.896C325.488 315.728 319.602 306.249 318.637 303.021C317.673 299.794 320.322 293.825 320.322 293.825Z" fill="#D3BB8C"/>
<path d="M318.901 294.129C319.216 306.977 322.606 314.514 324.494 316.608C326.381 318.702 335.556 326.623 335.363 328.91C335.171 331.196 327.538 326.421 323.722 321.666C319.663 316.608 315.745 306.168 315.44 302.809C315.136 299.45 318.901 294.129 318.901 294.129Z" fill="#D3BB8C"/>
<path d="M217.175 157.96C217.175 149.695 220.149 142.967 223.863 142.674L228.501 146.103C230.3 149.792 231.177 153.86 231.059 157.96C231.059 166.417 227.953 173.276 224.117 173.276C223.307 173.255 222.527 172.971 221.894 172.467C219.593 168.334 218.008 163.843 217.205 159.184C217.195 158.83 217.175 158.375 217.175 157.96Z" fill="#EDD9A9"/>
<path d="M273.534 182.806L274.488 183.595L272.255 195.816L260.177 190.262L259.781 180.146C264.179 181.811 268.831 182.711 273.534 182.806Z" fill="#D3BB8C"/>
<path d="M250.657 176.281C251.946 176.939 253.235 177.536 254.504 178.092C253.448 179.618 252.486 181.205 251.622 182.847L240.66 178.588C240.309 175.664 240.16 172.72 240.214 169.776C243.498 172.244 246.993 174.42 250.657 176.281V176.281Z" fill="#D3BB8C"/>
<path d="M292.797 221.188L294.137 218.882L292.056 218.811C290.971 215.503 289.844 212.427 288.687 209.706L298.623 211.163L299.019 210.485L299.384 223.819L296.157 233.935C295.152 229.403 294.015 225.144 292.797 221.188Z" fill="#D3BB8C"/>
<path d="M280.912 196.504L285.266 194.339L296.431 202.675L287.865 207.733C285.52 202.523 283.145 198.629 280.912 196.504Z" fill="#D3BB8C"/>
<path d="M300.328 264.093L303.16 255.382L299.679 254.988C299.344 251.7 298.877 248.25 298.288 244.689L303.667 246.713L305.525 255.605L305.088 255.554L311.837 274.321L306.265 277.093L300.389 266.895C300.389 266.066 300.369 265.054 300.328 264.093Z" fill="#D3BB8C"/>
<path d="M197.597 183.777L190.046 210.202L177.897 232.681L197.597 183.777Z" fill="#D3BB8C"/>
<path d="M182.667 58.9087L175.045 58.3523L202.001 0C197.536 13.89 179.135 55.9446 179.135 55.9446L182.799 58.5344L182.667 58.9087Z" fill="#FF9F36"/>
<path d="M165.484 10.6225L165.576 10.5618C159.07 23.1569 156.096 48.3572 156.096 48.3572L171.452 51.5945L148.779 50.5829C148.779 50.5829 156.949 23.2682 165.484 10.6225Z" fill="#FF9F36"/>
</svg>
