<svg width="93" height="29" viewBox="0 0 93 29" fill="none" xmlns="http://www.w3.org/2000/svg">
<path d="M20.8369 13.5228H39.3252V27.7392H35.6258L34.2751 24.297C31.4016 26.8184 26.1107 28.4449 20.3551 28.4449C13.137 28.4449 9.60968 26.7754 7.44167 25.4501C0.980658 21.6034 0.808594 17.0511 0.808594 14.2371C0.808594 7.75711 7.02872 0.459595 20.7681 0.459595C28.6314 0.459595 37.3809 3.27361 38.6111 9.23726H33.0965C31.2812 4.60747 25.1127 3.64365 20.4755 3.64365C12.9047 3.64365 6.67599 7.45591 6.67599 14.4178C6.67599 19.8221 9.48924 25.3813 20.7078 25.3813C22.8242 25.3813 26.2225 25.235 29.3369 23.6774C33.0362 21.8272 33.974 19.4521 33.974 16.6036H20.8369V13.5228Z" fill="#682615"/>
<path d="M48.1349 1.15664V27.7392H75.2006V24.5552H53.8302V1.15664H48.1349Z" fill="#682615"/>
<path d="M87.9506 1.15664H82.2552V27.7392H87.9506V1.15664Z" fill="#682615"/>
<path d="M90.9617 2.33561V1.89672H91.2542C91.4091 1.89672 91.5639 1.93115 91.5639 2.10326C91.5639 2.327 91.4005 2.33561 91.2198 2.33561H90.9617ZM90.9617 2.52493H91.2112L91.5897 3.14453H91.8306L91.4263 2.51632C91.6328 2.49051 91.7962 2.37863 91.7962 2.12047C91.7962 1.83648 91.6328 1.71601 91.2886 1.71601H90.7466V3.14453H90.9617V2.52493ZM91.2284 3.66947C91.9081 3.66947 92.4845 3.14453 92.4845 2.42166C92.4845 1.7074 91.9081 1.18246 91.2284 1.18246C90.5488 1.18246 89.9723 1.7074 89.9723 2.42166C89.9637 3.14453 90.5488 3.66947 91.2284 3.66947ZM90.2132 2.42166C90.2132 1.83648 90.652 1.389 91.2198 1.389C91.779 1.389 92.2264 1.82788 92.2264 2.42166C92.2264 3.01545 91.779 3.46293 91.2198 3.46293C90.6606 3.46293 90.2132 3.02405 90.2132 2.42166Z" fill="#682615"/>
</svg>
