<svg preserveAspectRatio="none" width="1280" height="10" viewBox="0 0 1280 10" fill="none" xmlns="http://www.w3.org/2000/svg">
<path d="M288.227 10H270.128V0H288.227V10Z" fill="#FFE3AF"/>
<path d="M360.329 10H342.23V0H360.329V10Z" fill="#FFE3AF"/>
<path d="M432.431 10H414.333V0H432.431V10Z" fill="#FFE3AF"/>
<path d="M504.534 10H486.435V0H504.534V10Z" fill="#FFE3AF"/>
<path d="M576.636 10H558.538V0H576.636V10Z" fill="#FFE3AF"/>
<path d="M648.739 10H630.64V0H648.739V10Z" fill="#FFE3AF"/>
<path d="M720.841 10H702.742V0H720.841V10Z" fill="#FFE3AF"/>
<path d="M792.943 10H774.845V0H792.943V10Z" fill="#FFE3AF"/>
<path d="M865.046 10H846.947V0H865.046V10Z" fill="#FFE3AF"/>
<path d="M937.148 10H919.049V0H937.148V10Z" fill="#FFE3AF"/>
<path d="M1009.25 10H991.152V0H1009.25V10Z" fill="#FFE3AF"/>
<path d="M1081.35 10H1063.25V0H1081.35V10Z" fill="#FFE3AF"/>
<path d="M1153.46 10H1135.36V0H1153.46V10Z" fill="#FFE3AF"/>
<path d="M1225.59 10H1207.46V0H1225.59V10Z" fill="#FFE3AF"/>
<path d="M1280 10H1279.56V0H1280V10Z" fill="#FFE3AF"/>
<path d="M216.307 10H198.208V0H216.307V10Z" fill="#FFE3AF"/>
<path d="M144.205 10H126.106V0H144.205V10Z" fill="#FFE3AF"/>
<path d="M72.1024 10H54.0037V0H72.1024V10Z" fill="#FFE3AF"/>
<path d="M282.596 10H275.795V0H282.596V10Z" fill="#747474"/>
<path d="M354.698 10H347.897V0H354.698V10Z" fill="#747474"/>
<path d="M426.801 10H420V0H426.801V10Z" fill="#747474"/>
<path d="M498.903 10H492.102V0H498.903V10Z" fill="#747474"/>
<path d="M571.005 10H564.205V0H571.005V10Z" fill="#747474"/>
<path d="M643.071 10H636.307V0H643.071V10Z" fill="#747474"/>
<path d="M715.174 10H708.373V0H715.174V10Z" fill="#747474"/>
<path d="M787.313 10H780.512V0H787.313V10Z" fill="#747474"/>
<path d="M859.415 10H852.614V0H859.415V10Z" fill="#747474"/>
<path d="M931.517 10H924.717V0H931.517V10Z" fill="#747474"/>
<path d="M1003.62 10H996.819V0H1003.62V10Z" fill="#747474"/>
<path d="M1075.72 10H1068.92V0H1075.72V10Z" fill="#747474"/>
<path d="M1147.82 10H1141.02V0H1147.82V10Z" fill="#747474"/>
<path d="M1219.89 10H1213.09V0H1219.89V10Z" fill="#747474"/>
<path d="M210.676 10H203.876V0H210.676V10Z" fill="#747474"/>
<path d="M138.574 10H131.773V0H138.574V10Z" fill="#747474"/>
<path d="M66.4716 10H59.6709V0H66.4716V10Z" fill="#747474"/>
<path d="M342.23 10H288.227V0H342.23V10Z" fill="#86CFAC"/>
<path d="M486.435 10H432.431V0H486.435V10Z" fill="#86CFAC"/>
<path d="M630.677 10H576.673V0H630.677V10Z" fill="#86CFAC"/>
<path d="M774.845 10H720.841V0H774.845V10Z" fill="#86CFAC"/>
<path d="M919.049 10H865.046V0H919.049V10Z" fill="#86CFAC"/>
<path d="M1063.25 10H1009.25V0H1063.25V10Z" fill="#86CFAC"/>
<path d="M1207.46 10H1153.49V0H1207.46V10Z" fill="#86CFAC"/>
<path d="M198.208 10H144.205V0H198.208V10Z" fill="#86CFAC"/>
<path d="M54.0037 10H0V0H54.0037V10Z" fill="#86CFAC"/>
<path d="M414.333 10H360.329V0H414.333V10Z" fill="#9DA4D6"/>
<path d="M558.574 10H504.57V0H558.574V10Z" fill="#9DA4D6"/>
<path d="M702.742 10H648.739V0H702.742V10Z" fill="#9DA4D6"/>
<path d="M846.947 10H792.943V0H846.947V10Z" fill="#9DA4D6"/>
<path d="M991.152 10H937.148V0H991.152V10Z" fill="#9DA4D6"/>
<path d="M1135.36 10H1081.35V0H1135.36V10Z" fill="#9DA4D6"/>
<path d="M1279.56 10H1225.59V0H1279.56V10Z" fill="#9DA4D6"/>
<path d="M270.311 10H216.307V0H270.311V10Z" fill="#9DA4D6"/>
<path d="M126.106 10H72.1024V0H126.106V10Z" fill="#9DA4D6"/>
</svg>
