<svg width="1514" height="404" viewBox="0 0 1514 404" fill="none" xmlns="http://www.w3.org/2000/svg" preserveAspectRatio="none">
<g style="mix-blend-mode:screen" opacity="0.6">
<path d="M532.624 372.676L501.148 398.758L102.069 400.015L92.4665 394.101L85.4816 400.015L2.122 401.701C2.122 401.701 17.8425 334.609 12.1662 277.616C6.48979 220.623 6.86114 201.468 6.86114 201.468L53.2447 196.256L6.98494 191.206L10.9107 162.602L73.3154 152.09H10.9107L2.17505 46.31L36.6577 51.9878L2.17505 41.0018L0 2.75021C0 2.75021 496.904 2.32881 576.709 2.75021C656.514 3.17161 702.88 2.55799 702.88 2.55799L716.408 17.041L718.654 2.55799L1115.06 5.89964L1127.72 29.6609L1139.52 5.26385L1511.88 0L1505.34 46.6944L1469.1 53.8435L1504.03 51.9509L1499.23 99.6877L1501 153.524L1489.65 162.144L1503.18 175.821L1498.83 283.072L1469.58 290.014L1494.9 297.585L1514 404L1417.96 402.314L1408.8 387.802L1401.39 401.472L1157.77 395.165L1120.63 397.479L1096.19 387.595L1079.61 397.686L748.662 400.644L600.228 399.387C600.228 399.387 603.287 386.974 600.228 387.817C597.169 388.659 586.311 399.564 586.311 399.564L555.312 398.307L546.152 387.58L536.514 399.172H526.028L532.624 372.676Z" fill="#F3C89A" fill-opacity="0.85"/>
</g>
</svg>
