<svg width="46" height="43" viewBox="0 0 46 43" fill="none" xmlns="http://www.w3.org/2000/svg">
<path d="M14.1489 1.82372C18.8261 -0.184635 24.1702 -0.527524 29.0875 0.761866C33.6889 1.92326 37.8968 4.59527 40.8801 8.28805C43.9297 12.0298 45.6347 16.7955 45.8085 21.607C44.5002 21.6149 43.1902 21.656 41.885 21.5833C41.5738 17.9917 40.6494 14.223 38.1449 11.502C35.9532 9.02123 33.2386 6.96705 30.1557 5.72981C30.1178 5.56705 30.083 5.40272 30.0483 5.23997C29.8002 5.15464 29.5632 5.03929 29.3435 4.89708C29.1255 5.04719 28.89 5.16886 28.6435 5.26367C28.6151 5.53387 28.5487 5.79617 28.4555 6.05058C28.6609 6.22123 28.841 6.41875 28.9627 6.66051C29.2361 6.6289 29.5126 6.61942 29.7875 6.64787C29.8602 6.51039 29.9313 6.37292 30.0024 6.23387C32.3584 7.14877 34.4679 8.61672 36.3009 10.3422C37.516 11.5115 38.7058 12.7598 39.4659 14.2831C40.6194 16.5474 41.2088 19.0819 41.3478 21.6102C40.8564 21.5675 40.2749 21.754 39.8435 21.5106C39.5939 18.9129 39.0013 16.2962 37.6819 14.0176C36.1428 11.3187 33.474 9.45103 30.6582 8.26592C28.8584 7.56118 26.9307 7.03974 24.9839 7.11401C25.1356 6.94493 25.2826 6.76954 25.4279 6.59414C25.0408 6.47089 24.6505 6.35396 24.2665 6.22439C24.2318 5.81039 24.2002 5.3964 24.1417 4.98556C23.813 5.19256 23.5018 5.43432 23.151 5.60498C22.7417 5.50543 22.4257 5.19098 22.067 4.98714C22.0212 5.39008 21.9896 5.79617 21.9706 6.20227C21.5835 6.35238 21.1853 6.46931 20.7903 6.5973C21.0494 6.92281 21.348 7.21197 21.6498 7.49798C21.5092 7.87721 21.367 8.25644 21.258 8.64674C21.6641 8.59775 22.0702 8.53929 22.4778 8.49662C22.6754 8.86322 22.8855 9.22507 23.1273 9.56637C23.3343 9.22033 23.527 8.86321 23.7135 8.5061C24.1338 8.53613 24.551 8.59617 24.9681 8.64516C24.8544 8.28331 24.7279 7.92778 24.6063 7.56909C28.6451 7.56118 32.646 9.24561 35.5392 12.0503C37.3469 13.8517 38.3693 16.2898 38.916 18.7454C39.1293 19.6856 39.2747 20.6415 39.2762 21.6086C38.2918 21.6133 37.3042 21.6607 36.323 21.5786C36.1966 19.8025 35.7952 18.0264 34.9277 16.4573C33.9954 14.6844 32.5875 13.1849 30.9363 12.063C31.0911 11.9081 31.2476 11.7549 31.404 11.6016C31.1101 11.4515 30.8146 11.3029 30.5207 11.1576C30.5239 10.8336 30.5239 10.5097 30.5223 10.1874C30.2221 10.3138 29.925 10.4513 29.6327 10.595C29.3577 10.3754 29.0923 10.1447 28.8205 9.9219C28.7589 10.2601 28.6878 10.595 28.623 10.9316C28.2927 11.0138 27.9593 11.0849 27.6259 11.1607C27.8282 11.4262 28.0336 11.6901 28.2358 11.9555C28.1015 12.2605 27.9514 12.5576 27.7997 12.8546C28.1426 12.8531 28.4839 12.8452 28.8268 12.8531C28.9501 13.1517 29.0875 13.444 29.2234 13.7364C29.481 13.5088 29.669 13.1833 29.9866 13.0348C30.2679 13.0664 30.5444 13.1312 30.8225 13.1865C30.813 12.9858 30.8067 12.7867 30.7988 12.586C33.7189 14.6149 35.7115 17.9996 35.7794 21.5833C34.4347 21.6418 33.0837 21.6418 31.7374 21.5817C31.6695 19.3395 30.2758 17.3517 28.4539 16.1334C27.8898 15.7479 27.2072 15.2406 27.283 14.4727C27.0744 14.5075 26.8675 14.5438 26.6605 14.5817C26.4961 14.4363 26.3334 14.291 26.169 14.1472C26.0821 14.3336 25.9984 14.5217 25.9146 14.7097C25.6982 14.7634 25.4817 14.8172 25.2668 14.8693C25.4991 15.2485 25.507 15.6689 25.2636 16.0449C25.7045 16.0718 26.011 16.3404 26.1501 16.7544C26.4598 16.4542 26.8532 16.3625 27.2641 16.4874C27.2862 16.3815 27.332 16.1698 27.3541 16.0639C28.6498 16.8397 29.8571 17.8652 30.576 19.2131C30.9616 19.9321 31.1386 20.7411 31.2002 21.5485C30.0562 21.7002 28.8995 21.6007 27.7539 21.5312C24.0675 21.5264 20.3763 21.4284 16.6945 21.6196C13.6307 21.6102 10.5668 21.6275 7.50132 21.6133C7.60719 24.516 8.46994 27.4582 10.1923 29.8221C10.4151 30.2424 10.9602 30.1729 11.2731 30.4889C11.3142 30.6707 11.3505 30.8524 11.3806 31.0357C11.2304 31.181 11.0819 31.328 10.9397 31.4813C10.7185 31.456 10.4988 31.4402 10.2776 31.437C10.1781 31.1241 10.1401 30.7986 10.1117 30.4731C9.90787 30.0797 9.59816 29.751 9.36904 29.3734C7.89319 27.0648 7.23428 24.3327 7.03518 21.6244C5.83902 21.6149 4.64444 21.6133 3.44986 21.626C3.52412 22.4382 3.56837 23.2614 3.76272 24.0562C3.81329 24.3675 4.19094 24.3169 4.42006 24.3817C4.64918 24.7214 4.62548 25.0912 4.45166 25.4499C4.24308 25.491 4.03925 25.5858 3.82435 25.5858C3.67107 25.4673 3.52728 25.3409 3.37875 25.2192C3.39771 24.0104 3.0801 22.83 3.02954 21.6244C2.388 21.6149 1.74647 21.6117 1.10652 21.6275C1.1002 26.5181 3.24286 31.219 6.36362 34.9102C7.03834 35.6639 7.67514 36.4666 8.48574 37.0828C8.64534 36.9896 8.80493 36.8948 8.96453 36.7984C9.1652 36.9959 9.39116 37.1682 9.64398 37.2946C9.63134 37.5664 9.6424 37.8381 9.67401 38.1083C9.43541 38.2553 9.24895 38.4639 9.10674 38.7041C8.85392 38.5445 8.56317 38.5018 8.26927 38.5318C8.1713 38.2743 8.05437 38.0262 7.90267 37.7971C7.97378 37.6659 8.04647 37.5348 8.11757 37.4036C4.68236 34.1217 2.00719 29.9201 1.04489 25.2271C0.515545 22.7273 0.608773 20.1343 0.989586 17.6203C1.22503 16.0228 1.8318 14.5138 2.49703 13.0537C4.82931 8.04945 9.06407 3.9727 14.1489 1.82372Z" fill="#682615"/>
<path d="M37.2347 25.8402C37.6898 25.5289 38.4846 25.7153 38.5762 26.3237C38.6711 27.1549 38.6 27.9971 38.6047 28.833C39.3094 28.2846 40.2164 27.8786 41.1187 28.1409C42.0367 28.3178 42.7036 29.198 42.7146 30.1176C42.7367 31.328 42.7225 32.5384 42.7241 33.7488C42.7446 34.1169 42.5629 34.4835 42.2532 34.6842C41.7981 34.8311 41.1424 34.7427 41.0365 34.1865C40.8785 32.9508 41.065 31.6946 40.9433 30.4558C40.8785 30.0986 40.76 29.6451 40.3602 29.5361C39.6729 29.3181 38.8875 29.7542 38.7185 30.4558C38.5004 31.6772 38.7137 32.9271 38.5747 34.1533C38.4514 34.7664 37.6392 34.8959 37.1794 34.5957C36.8855 34.3508 36.8713 33.9415 36.8665 33.5907C36.8681 31.3754 36.8713 29.1585 36.865 26.9431C36.8602 26.5512 36.8855 26.0898 37.2347 25.8402Z" fill="#682615"/>
<path d="M13.4158 25.8275C13.9657 25.5479 14.7304 25.9903 14.6625 26.6334C14.7225 27.4298 13.5927 27.7711 13.1092 27.2165C12.7079 26.8056 12.8801 26.0361 13.4158 25.8275Z" fill="#682615"/>
<path d="M15.5189 26.2526C15.7812 25.7817 16.3848 25.8196 16.8462 25.8212C18.6334 25.8512 20.4221 25.7833 22.2061 25.8544C22.9661 25.8939 23.1747 27.0711 22.4699 27.3539C21.6957 27.5515 20.8803 27.395 20.0887 27.4614C20.1076 29.4508 20.0903 31.4402 20.0997 33.428C20.1061 33.8673 20.0808 34.4187 19.6368 34.651C19.267 34.7774 18.7582 34.8153 18.4848 34.4788C18.202 34.207 18.2304 33.7883 18.221 33.4296C18.2289 31.4386 18.2225 29.446 18.2257 27.4551C17.5146 27.4282 16.802 27.4851 16.0925 27.4203C15.5584 27.3729 15.2203 26.7029 15.5189 26.2526Z" fill="#682615"/>
<path d="M13.4489 28.1314C14.0162 27.8738 14.6973 28.3795 14.6514 28.9941C14.6704 30.579 14.6625 32.1655 14.6546 33.7503C14.6767 34.2149 14.367 34.7648 13.844 34.7363C13.3447 34.8311 12.9164 34.3824 12.907 33.9052C12.8833 32.3187 12.9085 30.7323 12.8959 29.1458C12.8785 28.7429 13.0192 28.2594 13.4489 28.1314Z" fill="#682615"/>
<path d="M23.1747 29.3275C24.0169 28.0634 25.8103 27.7648 27.1582 28.3068C28.2674 28.7476 29.0006 29.9865 28.8379 31.1684C28.7794 31.693 28.2153 31.8921 27.7571 31.9032C26.6494 31.949 25.5386 31.9079 24.4293 31.9174C24.423 32.5763 24.7912 33.2747 25.4596 33.4612C26.2322 33.7472 26.9781 33.2241 27.5121 32.7138C27.7776 32.3977 28.288 32.2808 28.6151 32.5668C28.9185 32.9334 28.6957 33.4517 28.4302 33.7725C27.7286 34.5989 26.572 34.8201 25.5386 34.73C24.4388 34.7126 23.3501 34.0648 22.9171 33.0345C22.4289 31.8558 22.4794 30.4147 23.1747 29.3275ZM24.9413 29.6657C24.581 29.9485 24.4909 30.4178 24.4246 30.8445C25.3252 30.8539 26.2275 30.8539 27.1298 30.8429C27.0634 30.4542 27.0191 30.0165 26.7079 29.7352C26.2528 29.2564 25.4264 29.2043 24.9413 29.6657Z" fill="#682615"/>
<path d="M32.2383 28.1314C33.5688 27.8501 35.2848 28.3004 35.8363 29.6625C36.0717 30.146 35.7083 30.756 35.1742 30.7844C34.6322 30.8508 34.3984 30.2598 34.0744 29.9422C33.5925 29.2959 32.4975 29.3117 31.9981 29.928C31.5051 30.4858 31.5004 31.2853 31.5778 31.9853C31.6742 32.5068 31.9444 33.0614 32.4706 33.2637C32.9367 33.4375 33.5135 33.4185 33.9149 33.1009C34.272 32.8102 34.4489 32.363 34.7776 32.0454C35.1521 31.7483 35.7715 31.9348 35.9216 32.3883C36.1112 32.8765 35.8237 33.3901 35.5124 33.7567C34.8503 34.5246 33.7837 34.7822 32.8056 34.7174C31.6916 34.7537 30.5476 34.1454 30.0909 33.1041C29.5 31.7941 29.6422 30.1065 30.6045 29.0068C31.0311 28.5422 31.6268 28.2594 32.2383 28.1314Z" fill="#682615"/>
<path d="M13.0997 36.4334C13.0555 35.9041 13.6291 35.4332 14.13 35.6623C14.593 35.7887 14.6483 36.3323 14.6578 36.7352C14.6688 38.3153 14.6546 39.8971 14.6593 41.4788C15.6833 41.5372 16.7198 41.4014 17.7374 41.5467C18.3663 41.6889 18.2731 42.7318 17.6252 42.7618C16.369 42.8124 15.1065 42.7919 13.8471 42.7729C13.4047 42.8013 13.0745 42.3731 13.0982 41.9544C13.0887 40.1151 13.0855 38.2727 13.0997 36.4334Z" fill="#682615"/>
<path d="M24.8164 35.6797C25.172 35.4695 25.7076 35.7065 25.7582 36.1269C25.8514 36.7968 25.7882 37.4779 25.7898 38.151C26.6984 37.3467 28.2785 37.2772 29.0654 38.2853C29.6722 39.0959 29.7243 40.202 29.4921 41.1564C29.2898 42.0966 28.4397 42.9325 27.4395 42.8961C26.8422 42.9499 26.3081 42.6496 25.8625 42.2862C25.6855 42.5706 25.4848 42.9609 25.0819 42.893C24.5715 42.9357 24.4009 42.381 24.4182 41.9702C24.4056 40.2257 24.4182 38.4797 24.4135 36.7352C24.4419 36.3686 24.4009 35.8424 24.8164 35.6797ZM26.5767 38.7467C25.9541 39.0849 25.8009 39.8939 25.8751 40.5433C25.9209 41.1217 26.3255 41.749 26.9575 41.7632C27.5406 41.8248 28.0304 41.3287 28.1221 40.7819C28.2216 40.1625 28.2311 39.4167 27.765 38.9348C27.4742 38.6061 26.9591 38.5776 26.5767 38.7467Z" fill="#682615"/>
<path d="M19.779 37.7576C20.6401 37.4162 21.6309 37.4194 22.5047 37.7133C22.9598 37.865 23.2726 38.2869 23.3675 38.7467C23.5824 39.8244 23.26 40.9463 23.6092 42.0065C23.7862 42.3779 23.5571 42.8472 23.1352 42.8835C22.6927 42.9831 22.4336 42.5327 22.1634 42.272C21.5977 42.5912 21.0036 42.9436 20.3273 42.8961C19.5009 42.9609 18.6239 42.3494 18.586 41.4835C18.5054 40.7661 19.0711 40.1151 19.7458 39.9492C20.5153 39.7454 21.3133 39.6553 22.0686 39.3914C21.9659 39.107 21.9327 38.693 21.5693 38.6266C21.1 38.5018 20.4884 38.535 20.1677 38.9506C20.0033 39.1354 19.858 39.3361 19.6794 39.5083C19.3523 39.6253 18.8909 39.4925 18.8356 39.107C18.744 38.4939 19.2512 37.9756 19.779 37.7576ZM20.0618 41.0806C19.839 41.7347 20.6891 42.1329 21.2042 41.8533C21.8616 41.681 22.0875 40.981 22.0654 40.3711C21.4033 40.5813 20.5169 40.4849 20.0618 41.0806Z" fill="#682615"/>
<path d="M30.8826 37.9614C31.5099 37.4874 32.3505 37.4889 33.0948 37.5948C33.7 37.6959 34.3541 38.0341 34.5485 38.6567C34.6907 39.1765 34.0571 39.5352 33.6304 39.2998C33.2101 39.0153 32.9225 38.4101 32.3331 38.4813C31.9966 38.456 31.7501 38.6977 31.5873 38.9616C32.183 39.7201 33.327 39.5036 34.0871 40.0314C35.051 40.4643 35.0241 42.0223 34.0887 42.4664C33.3318 42.9767 32.3537 42.9831 31.4957 42.7792C30.8715 42.5896 30.1699 42.0761 30.2663 41.3429C30.2916 40.9305 30.8051 40.7614 31.1433 40.9289C31.5194 41.2765 31.7453 41.8785 32.33 41.918C32.755 42.0144 33.5167 41.8011 33.3855 41.2402C33.0711 40.7898 32.4595 40.7709 31.9808 40.6081C31.4167 40.4454 30.7909 40.2431 30.4607 39.7169C30.1194 39.1323 30.3485 38.3454 30.8826 37.9614Z" fill="#682615"/>
</svg>
