<svg width="92" height="29" viewBox="0 0 92 29" fill="none" xmlns="http://www.w3.org/2000/svg">
<path fill-rule="evenodd" clip-rule="evenodd" d="M28.1487 12.8624C29.1721 12.6353 30.3157 12.6948 31.2255 13.2572C32.1002 13.7925 32.618 14.7956 32.6869 15.8027C32.7329 16.5044 32.6923 17.2087 32.6437 17.909C30.2427 17.9117 27.8418 17.9009 25.4423 17.9144C25.3435 18.835 25.4057 19.8611 26.0059 20.6141C26.6467 21.436 27.8161 21.6564 28.7895 21.4184C29.8804 21.1818 30.7281 20.2774 31.0606 19.2338C31.4378 19.223 31.8177 19.2217 32.1962 19.2284C31.9258 20.1058 31.4838 20.9588 30.7645 21.5496C29.6182 22.4999 27.9662 22.6662 26.5737 22.2444C25.4679 21.9146 24.6487 20.9264 24.4121 19.8138C24.1066 18.3713 24.3256 16.8261 24.9813 15.5081C25.6031 14.2373 26.7468 13.1801 28.1487 12.8624ZM27.2754 14.2819C26.3926 14.9146 25.8599 15.9217 25.5842 16.9532C27.5796 16.9572 29.5763 16.9464 31.5716 16.9586C31.5838 16.3976 31.6325 15.819 31.4391 15.2809C31.2458 14.6658 30.7781 14.1413 30.1792 13.8993C29.2302 13.5154 28.0986 13.683 27.2754 14.2819ZM7.01623 16.4165C9.06294 15.9163 11.1178 15.4431 13.1727 14.9781C13.0271 15.3749 13.0665 15.5849 12.8815 15.7716C12.5379 16.1185 12.4769 16.3126 11.5788 16.5706C10.5987 16.841 9.60235 17.0451 8.61279 17.2736L7.43335 17.0824L7.01623 16.4165ZM0 18.059C1.40461 17.7021 2.81865 17.3831 4.23134 17.0654C4.56148 17.0917 5.14602 17.0468 5.26497 17.2243C5.38756 17.4074 5.05294 17.7847 4.95595 18.1469C4.06779 18.3335 3.18772 18.5606 2.29952 18.7539C4.75048 21.3779 7.15683 24.0424 9.5902 26.6826C13.3322 25.5606 17.0782 24.448 20.8323 23.3705C18.9874 21.6782 17.0682 20.0756 15.2342 18.3835C15.1451 18.0208 15.1971 17.8508 15.32 17.6707C15.4241 17.5183 15.5791 17.305 15.9169 17.3858C18.3892 19.4987 20.9003 21.7421 23.2874 23.9167C18.5882 25.2794 13.8932 26.6623 9.20626 28.0683C6.13481 24.7346 3.09444 21.3698 0 18.059Z" fill="#682615"/>
<path fill-rule="evenodd" clip-rule="evenodd" d="M27.3051 0.836182L10.135 25.8282L2.01157 13.7831L10.1147 18.0509L27.3051 0.836182Z" fill="#682615"/>
<path fill-rule="evenodd" clip-rule="evenodd" d="M36.1072 11.1104C37.3833 9.96401 39.1313 9.3854 40.84 9.50304C42.1798 9.55305 43.5871 10.0262 44.4563 11.0942C45.1025 11.8715 45.3391 12.903 45.3458 13.8953C44.6145 13.9101 43.8845 13.9128 43.1545 13.9142C43.1247 13.2964 43.0139 12.6448 42.6056 12.1554C42.0554 11.4781 41.1361 11.2348 40.2939 11.2672C39.1191 11.2537 37.9863 11.8634 37.2765 12.7894C36.1774 14.2075 35.8246 16.0907 36.0193 17.8468C36.1518 18.8985 36.7574 19.9327 37.7483 20.3788C38.8379 20.8588 40.229 20.8588 41.1942 20.0963C41.908 19.542 42.2947 18.6917 42.5691 17.8535C43.2937 17.8657 44.0183 17.8468 44.7429 17.8671C44.4104 19.246 43.7358 20.6006 42.5691 21.4563C41.1686 22.5121 39.2705 22.6973 37.6037 22.2863C36.3721 21.993 35.2474 21.2238 34.5863 20.1369C33.8657 18.9783 33.6833 17.5615 33.8117 16.2218C33.9266 14.3211 34.6633 12.396 36.1072 11.1104Z" fill="#682615"/>
<path fill-rule="evenodd" clip-rule="evenodd" d="M51.0467 9.56386C52.4689 9.36244 53.9978 9.55305 55.2172 10.3547C56.3177 11.0563 57.0639 12.2311 57.3464 13.4965C57.6074 14.7551 57.5073 16.0691 57.2315 17.3182C56.8287 19.1 55.7539 20.783 54.1249 21.6699C52.527 22.5689 50.5452 22.723 48.8094 22.1566C47.494 21.7266 46.3895 20.706 45.8744 19.4203C45.4188 18.37 45.3918 17.202 45.477 16.0772C45.6135 14.2603 46.3273 12.4326 47.6846 11.1807C48.6106 10.3195 49.7989 9.75987 51.0467 9.56386ZM50.8885 11.424C49.1798 11.9256 48.1523 13.6195 47.7981 15.2755C47.5061 16.6842 47.448 18.3145 48.3429 19.5285C49.5177 21.0386 51.9781 21.0602 53.3733 19.8449C54.6832 18.7187 55.2321 16.9464 55.3173 15.2688C55.3511 14.2021 55.1753 13.0355 54.4331 12.2149C53.5571 11.2523 52.0877 11.0807 50.8885 11.424Z" fill="#682615"/>
<path fill-rule="evenodd" clip-rule="evenodd" d="M61.5129 10.1343C62.9107 9.44491 64.5411 9.34619 66.0525 9.65579C67.188 9.88698 68.3074 10.4791 68.9374 11.4835C69.3754 12.1527 69.5241 12.957 69.5633 13.7425C68.8333 13.7466 68.1046 13.7411 67.3746 13.7466C67.3448 12.884 66.9028 12.0094 66.0998 11.6322C64.7223 10.9901 62.958 11.1672 61.8022 12.1824C60.7477 13.1031 60.2043 14.4711 59.9853 15.8257C59.8393 17.0762 59.8379 18.4727 60.6355 19.5231C61.6224 20.8182 63.5691 20.998 64.9723 20.3369C66.1417 19.7705 66.7568 18.5214 67.0677 17.3196C65.9349 17.3087 64.8007 17.3168 63.6678 17.3155C63.7475 16.7572 63.903 16.2124 63.9963 15.6567C65.7767 15.6297 67.5598 15.6527 69.3416 15.6459C68.8847 17.8292 68.4034 20.0084 67.9573 22.1958C67.4855 22.2039 67.015 22.2025 66.5432 22.2012C66.5459 21.7537 66.5486 21.3062 66.5689 20.8588C65.7361 21.8754 64.4411 22.4959 63.127 22.4891C61.9806 22.4675 60.8086 22.1971 59.8582 21.532C58.8375 20.8371 58.1494 19.7218 57.8845 18.5241C57.6006 17.0897 57.7168 15.5783 58.1346 14.1805C58.6523 12.4488 59.869 10.9144 61.5129 10.1343Z" fill="#682615"/>
<path fill-rule="evenodd" clip-rule="evenodd" d="M72.0778 9.77206C73.919 9.78286 75.7589 9.76799 77.6002 9.78018C78.629 9.80313 79.7456 9.99646 80.5175 10.7346C81.3057 11.4862 81.453 12.6799 81.284 13.7074C81.161 14.4995 80.7514 15.2647 80.0741 15.7162C79.6172 16.0542 79.0588 16.1908 78.5195 16.3368C79.048 16.5422 79.528 16.9275 79.6942 17.4899C80.1241 18.8877 79.4766 20.3315 79.7091 21.7496C79.7362 21.8659 79.7862 21.9727 79.8578 22.0714C82.3074 17.9657 84.757 13.8601 87.2282 9.76799C87.9839 9.78018 88.741 9.78018 89.4967 9.76799C90.2443 13.9088 90.9188 18.0617 91.6759 22.1998C90.9364 22.2039 90.1969 22.1971 89.4588 22.2052C89.2587 21.1102 89.1262 20.003 88.937 18.9053C87.3093 18.8972 85.683 18.9175 84.0581 18.8945C83.3673 19.9787 82.7724 21.1224 82.0911 22.2133C80.5932 22.1876 79.0926 22.2093 77.5948 22.2025C77.2081 20.852 77.8029 19.4731 77.6313 18.109C77.5407 17.4602 76.8567 17.1235 76.2591 17.11C75.0992 17.0519 73.938 17.1032 72.7767 17.0803C72.4049 18.7891 72.0859 20.5086 71.6952 22.212C70.9584 22.1904 70.2217 22.2079 69.4849 22.1998C70.3771 18.0631 71.195 13.9101 72.0778 9.77206ZM73.1147 15.4337C74.157 15.4296 75.1992 15.4337 76.2415 15.4323C76.9567 15.4256 77.7056 15.3228 78.3099 14.9119C79.1048 14.3847 79.3887 13.2382 78.9912 12.3852C78.6573 11.7363 77.857 11.593 77.1973 11.5619C76.1023 11.5484 75.0086 11.5633 73.9136 11.5565C73.6527 12.8503 73.3891 14.1427 73.1147 15.4337ZM87.3553 12.999C86.5442 14.4049 85.7763 15.8379 84.9422 17.2303C86.2008 17.252 87.4621 17.2412 88.7207 17.2357C88.4544 15.4918 88.207 13.7439 87.965 11.9972C87.6946 12.2852 87.5594 12.665 87.3553 12.999Z" fill="#682615"/>
</svg>
