<svg width="1304" height="531" viewBox="0 0 1304 531"  xmlns="http://www.w3.org/2000/svg" preserveAspectRatio="none">
<g style="mix-blend-mode:multiply" opacity="0.38">
<path d="M1297.64 519.105L1303.11 519.245L1286.48 385.389L1284.3 384.459L1285.36 368.715L1289.82 367.153L1292.95 255.151L1298.76 255.021H1292.97L1293.61 232.228L1284.03 218.167L1289.7 213.518V206.422L1291.73 204.172L1290.25 136.453L1294.41 76.4072L1290.22 76.7327L1290.78 71.153L1295.54 69.7953L1300.94 13.7757L1301.21 11.0603L979.902 17.6815L977.66 24.4328L960.867 24.2469L959.709 21.0944L958.744 18.4719L618.73 14.2686H618.121L617.512 20.1551L608.604 19.7831L605.085 14.2779L604.506 14.3244V14.2779C604.506 14.2779 601.536 14.7057 571.306 14.6964C561.105 14.6964 514.127 14.6406 496.933 14.5104C473.682 14.3337 421.433 14.2779 362.309 14.2779H250.06C160.646 14.2779 28.8278 14.4639 5.84346 14.5011H0.260681L2.14635 62.6441L13.0298 67.6657L15.7321 72.3154L2.75512 69.2838V69.4233L2.13151 69.2838L9.68902 202.33H17.588L18.5977 213.425L9.68902 215.582L6.30373 251.552L12.3319 252.482L12.8961 263.399L6.30373 264.488C6.30373 264.488 5.93254 288.564 10.8471 360.271C15.7618 431.979 2.14635 516.343 2.14635 516.343H2.75512L5.44256 516.259L9.1545 516.148C8.8724 517.431 8.61999 518.575 8.39728 519.505H8.60514C8.02608 522.072 7.66973 523.569 7.66973 523.569L15.4796 523.42V529.93C15.4796 529.93 342.903 522.351 348.441 522.351C353.979 522.351 384.209 522.871 384.209 522.871L386.065 520.23L387.55 518.119L405.724 517.766L445.159 522.797L644.119 526.414L647.371 521.867L647.594 521.56V525.708C647.594 525.708 880.05 526.414 880.05 525.884C880.05 525.717 880.629 523.504 881.446 520.519C881.684 519.663 881.936 518.733 882.188 517.729L893.042 517.58L894.379 520.295L897.125 525.875L931.884 524.945L935.136 517.329L936.427 514.325C939.07 513.767 941.55 513.265 943.257 512.949L944.044 515.543L947.43 525.884L1276.2 530.441V527.744L1298.88 528.842L1297.64 519.105Z" fill="#6D390C"/>
</g>
<path d="M839.768 433.895H68.4862L24.7446 506.142V518.9C24.7446 518.9 345.456 511.321 350.742 511.321C356.028 511.321 385.441 511.851 385.441 511.851L390.326 504.616L444.595 511.758L638.611 515.376L642.041 510.438V514.669C642.041 514.669 870.548 515.376 870.548 514.846C870.548 514.316 876.487 492.443 876.487 492.443L887.192 514.846L920.911 513.916L929.434 493.336L935.789 514.855L1255.65 519.44V497.558L839.768 433.895Z" fill="#A15542"/>
<g style="mix-blend-mode:multiply" opacity="0.4">
<path d="M1255.65 519.375V497.651L839.768 433.988H68.4862L24.7446 506.235V515.115L387.297 509.192L390.267 504.709L435.226 508.606L456.087 481.554L448.663 508.876L477.468 510.968C477.468 510.968 520.022 511.052 604.565 510.968C616.369 510.968 628.9 510.903 641.684 510.828L641.892 510.522V510.828C687.549 510.559 838.18 509.945 871.765 509.48C873.502 502.85 876.22 492.537 876.22 492.537L884.267 509.276C901.624 509.024 912.389 508.848 912.389 508.848C912.389 508.848 918.328 507.527 923.896 506.309L929.241 493.392L932.522 504.551C932.965 504.456 933.423 504.391 933.888 504.356C935.373 504.356 947.073 505.76 947.073 505.76L1255.65 519.375Z" fill="#A15542"/>
</g>
<path d="M1265.81 337.962L1262.44 389.453L1277.69 517.84L947.266 503.026C947.266 503.026 935.537 501.622 934.082 501.622C932.626 501.622 912.582 506.142 912.582 506.142C912.582 506.142 689.182 508.141 604.654 508.215C520.126 508.29 477.557 508.215 477.557 508.215L448.752 506.123L456.176 478.801L435.093 506.123L17.113 512.549C17.113 512.549 28.8427 460.705 28.8427 443.417C28.8427 426.13 22.4879 258.601 22.4879 258.601L20.6764 220.864L27.9816 205.65L26.0216 181.007L28.0261 66.7265L17.113 47.328L590.43 8.17749L654.439 10.9673L988.261 13.6734L1270.8 50.4991L1268.36 75.5423L1268.85 202.516L1254.18 214.866L1265.81 337.962Z" fill="#D07956"/>
<g style="mix-blend-mode:multiply" opacity="0.26">
<path d="M633.622 507.286L646.302 507.211L652.85 507.072L646.822 315.588V9.76785L613.177 8.27995L611.514 24.8236L600.868 7.74058L590.474 7.28491L17.113 46.454L25.5168 61.5376L40.7061 68.7539L27.8182 65.5642L27.9816 65.8525L26.0216 180.133L27.2095 194.677H71.6043L27.551 205.836L20.721 220.055L21.9533 244.912L54.7372 250.269L22.4879 255.765L22.5918 257.774C22.5918 257.774 28.9467 425.311 28.9467 442.59C28.9467 457.292 20.4537 497.001 17.9296 508.541L81.8641 506.607L87.729 499.167L95.7913 506.607L430.861 505.017L457.245 472.218L451.752 505.528H451.96H460.542L468.604 490.984L476.265 504.496L502.279 506.077C502.279 506.077 511.44 492.323 514.008 491.263C516.577 490.203 514.008 505.816 514.008 505.816L633.622 507.286Z" fill="#A15542"/>
</g>
<path d="M457.795 468.814L431.366 501.622L96.2812 503.203L88.2189 495.764L82.354 503.203L12.3616 505.323C12.3616 505.323 25.5613 420.931 20.7951 349.242C16.029 277.553 16.3408 253.458 16.3408 253.458L55.2865 246.902L16.4448 240.551L19.741 204.571L72.1387 191.348H19.741L12.4062 58.292L41.3593 65.4339L12.4062 51.615L10.5799 3.4999C10.5799 3.4999 427.802 2.96984 494.81 3.4999C561.818 4.02997 600.749 3.25812 600.749 3.25812L612.108 21.4756L613.993 3.25812L946.836 7.46144L957.467 37.3497L967.37 6.6617L1280.02 0.0405273L1274.53 58.7755L1244.1 67.768L1273.43 65.3874L1269.4 125.434L1270.89 193.152L1261.36 203.995L1272.71 221.199L1269.06 356.105L1244.5 364.837L1265.77 374.36L1281.8 508.215L1201.16 506.095L1193.47 487.84L1187.25 505.035L982.693 497.103L951.513 500.013L930.993 487.58L917.066 500.274L639.19 503.994L514.558 502.413C514.558 502.413 517.126 486.799 514.558 487.859C511.989 488.919 502.873 502.636 502.873 502.636L476.844 501.055L469.153 487.561L461.061 502.143H452.256L457.795 468.814Z" fill="#EEB980"/>
<path opacity="0.55" d="M10.5799 3.4996L12.4062 51.6147L41.3593 65.3778L12.4062 58.2359L13.98 86.7757L37.7365 76.2209L253.282 3.25781C154.321 3.25781 10.5799 3.4996 10.5799 3.4996Z" fill="#C48A57"/>
<path opacity="0.29" d="M982.693 497.121L1187.25 505.054L1193.47 487.859L1201.18 506.114L1281.8 508.234L1265.91 376.434L978.744 497.493L982.693 497.121Z" fill="#FFEAB6"/>
<g style="mix-blend-mode:overlay" opacity="0.43">
<g style="mix-blend-mode:overlay" opacity="0.43">
<path d="M614.305 24.1352L616.131 5.90836L947.712 10.0931L946.776 7.47066L613.934 3.26733L612.182 20.7316L614.305 24.1352Z" fill="#FFEAB6"/>
</g>
<g style="mix-blend-mode:overlay" opacity="0.43">
<path d="M61.6562 193.961L19.741 204.543L16.4448 240.523L18.8501 240.913L21.9384 207.194L74.3362 193.961H61.6562Z" fill="#FFEAB6"/>
</g>
<g style="mix-blend-mode:overlay" opacity="0.43">
<path d="M14.5442 52.6657L12.7774 6.16869C12.7774 6.16869 430 5.63863 497.008 6.16869C554.157 6.61506 600.066 6.16869 602.427 5.97341L600.749 3.25798C600.749 3.25798 561.878 4.02053 494.81 3.49047C427.743 2.9604 10.5799 3.49047 10.5799 3.49047L12.4062 51.6149L14.5442 52.6657Z" fill="#FFEAB6"/>
</g>
<g style="mix-blend-mode:overlay" opacity="0.43">
<path d="M959.605 40.0091L969.493 9.32104L1279.71 2.77426L1279.96 0.0588379L967.311 6.68001L958.016 35.5081L959.605 40.0091Z" fill="#FFEAB6"/>
</g>
<g style="mix-blend-mode:overlay" opacity="0.43">
<path d="M1265.68 374.378L1248.68 366.762L1246.61 367.497L1265.87 376.127L1265.68 374.378Z" fill="#FFEAB6"/>
</g>
<g style="mix-blend-mode:overlay" opacity="0.43">
<path d="M1273.17 68.2426L1273.37 65.4062L1259.41 66.5408L1246.24 70.4279L1273.17 68.2426Z" fill="#FFEAB6"/>
</g>
<g style="mix-blend-mode:overlay" opacity="0.43">
<path d="M1195.67 490.51L1195.16 491.886L1201.18 506.114L1202.26 506.142L1195.67 490.51Z" fill="#FFEAB6"/>
</g>
<g style="mix-blend-mode:overlay" opacity="0.43">
<path d="M471.351 490.24L471.009 490.853L476.844 501.092L477.557 501.129L471.351 490.24Z" fill="#FFEAB6"/>
</g>
<g style="mix-blend-mode:overlay" opacity="0.43">
<path d="M517.171 502.459C517.78 498.07 518.656 489.728 516.785 490.509C516.37 490.73 516.014 490.99 515.731 491.281C515.731 495.596 514.587 502.44 514.587 502.44L517.171 502.459Z" fill="#FFEAB6"/>
</g>
<g style="mix-blend-mode:overlay" opacity="0.43">
<path d="M23.052 351.893C18.2859 280.204 18.5977 256.109 18.5977 256.109L57.4395 249.497L48.3972 248.018L16.4002 253.468C16.4002 253.468 16.029 277.544 20.8546 349.252C25.6801 420.959 12.421 505.333 12.421 505.333L15.0342 505.249C17.202 490.24 27.2985 415.993 23.052 351.893Z" fill="#FFEAB6"/>
</g>
<g style="mix-blend-mode:overlay" opacity="0.43">
<path d="M19.741 191.32H21.79L14.6037 60.9049L43.5568 68.0469L34.3512 63.6762L12.4062 58.2639L19.741 191.32Z" fill="#FFEAB6"/>
</g>
<g style="mix-blend-mode:overlay" opacity="0.43">
<path d="M459.992 471.464L456.681 475.583L452.286 502.152H454.929L459.992 471.464Z" fill="#FFEAB6"/>
</g>
</g>
<path opacity="0.63" d="M244.655 6.72656L13.401 86.8037L109.035 51.2056L131.515 64.606L112.154 49.0853L244.655 6.72656Z" fill="#A57142"/>
<path opacity="0.29" d="M1263.46 402.863L1277.64 505.323L1207.28 500.915L1192.61 481.87L1181.39 500.562L1134.96 498.33L1263.46 402.863Z" fill="#FFEAB6"/>
<path opacity="0.1" d="M240.334 13.9431L241.299 125.759L240.334 391.564L245.427 496.693V240.672L240.334 13.9431Z" fill="#A57142"/>
<path opacity="0.1" d="M507.564 13.9431L508.53 125.759L507.564 391.564L512.657 496.693V240.672L507.564 13.9431Z" fill="#A57142"/>
<path opacity="0.1" d="M774.795 13.9431L775.775 125.759L774.795 391.564L779.887 496.693V240.672L774.795 13.9431Z" fill="#A57142"/>
<path opacity="0.1" d="M1042.02 13.9431L1042.99 125.759L1042.02 391.564L1047.12 496.693V240.672L1042.02 13.9431Z" fill="#A57142"/>
<g opacity="0.49">
<g style="mix-blend-mode:multiply" opacity="0.82">
<path d="M1021.56 84.7301C1042.6 84.4418 1032.14 75.347 1018.16 76.6396C1010.24 77.3836 1013.47 83.9304 1021.56 84.7301Z" fill="#E7D9C9"/>
</g>
<g style="mix-blend-mode:multiply" opacity="0.82">
<path d="M1060.91 97.0145C1068.19 97.2842 1069.63 95.8614 1076.65 96.0846C1081.55 97.3958 1089.63 102.343 1096.89 99.637C1105.34 96.5031 1070.8 93.4436 1075.54 89.296C1069.41 87.9473 1062.95 87.277 1056.46 87.3153C1042.41 89.1937 1053.22 94.9222 1060.91 97.0145Z" fill="#E7D9C9"/>
</g>
<g style="mix-blend-mode:multiply" opacity="0.82">
<path d="M966.479 95.3966C972.38 97.2572 979.051 97.9357 985.589 97.3402C996.531 93.2949 967.578 90.7283 966.479 95.3966Z" fill="#E7D9C9"/>
</g>
<g style="mix-blend-mode:multiply" opacity="0.82">
<path d="M317.988 131.59C307.209 131.841 301.73 133.598 301.106 136.769C309.05 138.043 318.701 138.825 325.843 140.322C328.322 136.927 317.795 134.649 317.988 131.59Z" fill="#E7D9C9"/>
</g>
<g style="mix-blend-mode:multiply" opacity="0.82">
<path d="M341.581 130.325C338.151 130.567 338.285 129.767 334.826 130.009V131.292C336.711 130.865 341.997 131.413 341.581 130.325Z" fill="#E7D9C9"/>
</g>
<g style="mix-blend-mode:multiply" opacity="0.82">
<path d="M404.536 87.3159C407.505 88.4969 409.688 89.2409 415.761 88.934C435.538 87.9297 410.044 80.983 404.536 87.3159Z" fill="#E7D9C9"/>
</g>
<g style="mix-blend-mode:multiply" opacity="0.82">
<path d="M773.176 93.4622C774.513 95.4615 768.321 95.3221 768.722 97.0145C794.201 102.008 751.617 108.76 770.964 115.446C779.219 113.837 780.11 107.3 795.671 106.723C800.377 107.309 805.069 107.895 809.182 108.667C829.776 106.416 809.182 101.395 808.039 97.0145C804.52 96.3171 799.13 96.1311 796.814 95.071C800.6 89.9098 773.607 85.2322 765.322 90.8769C765.277 92.5322 772.523 92.0301 773.176 93.4622Z" fill="#E7D9C9"/>
</g>
<g style="mix-blend-mode:multiply" opacity="0.82">
<path d="M703.466 140.033C703.169 140.759 703.763 141.242 705.723 141.326C706.079 140.88 707.312 140.703 706.836 140.033H703.466Z" fill="#E7D9C9"/>
</g>
<g style="mix-blend-mode:multiply" opacity="0.82">
<path d="M897.898 256.769C907.563 255.988 912.879 253.979 917.036 251.589C906.984 249.692 893.131 254.435 897.898 256.769Z" fill="#E7D9C9"/>
</g>
<g style="mix-blend-mode:multiply" opacity="0.82">
<path d="M657.378 103.161C651.9 106.621 662.412 108.146 664.149 110.601C660.066 112.247 649.747 113.391 654.023 116.422C664.342 117.185 662.026 111.643 674.26 111.894C673.741 113.66 680.363 113.372 679.873 115.13C678.626 116.171 672.033 115.678 668.648 116.06C666.421 117.762 669.955 119.138 665.248 119.938C660.318 118.645 652.434 119.752 645.055 119.612C637.512 118.738 637.052 116.301 638.299 114.442C637.127 114.341 635.988 114.121 634.929 113.791C624.075 114.349 623.05 117.706 622.56 121.23C632.226 123.09 646.911 122.411 660.749 123.825C669.658 122.56 675.047 118.877 687.742 120.589C694.097 118.459 698.136 112.489 685.485 111.856C689.494 109.997 700.734 108.676 691.098 106.36C690.311 104.947 693.028 104.501 692.241 103.124C682.545 100.325 669.494 103.877 657.378 103.161ZM683.258 116.422C683.911 117.91 680.719 118.282 680.986 119.649C676.532 119.519 682.085 118.115 678.759 117.39C674.557 117.557 680.422 119.333 673.117 119.008C673.013 118.003 674.483 117.464 675.404 116.739C679.323 117.008 679.68 116.255 683.258 116.422Z" fill="#E7D9C9"/>
</g>
<g style="mix-blend-mode:multiply" opacity="0.82">
<path d="M349.451 232.842C351.693 230.052 343.022 230.052 346.08 227.987C341.626 227.141 329.272 226.76 329.213 228.917C330.609 230.647 333.742 231.391 331.455 233.446C337.142 234.906 345.501 234.376 349.451 232.842Z" fill="#E7D9C9"/>
</g>
<g style="mix-blend-mode:multiply" opacity="0.82">
<path d="M350.594 222.807C357.053 222.575 358.968 220.166 353.949 218.929C349.673 217.879 329.302 217.618 326.956 216.344C326.763 216.884 323.794 217.172 323.601 217.646C322.294 220.585 333.846 219.776 339.324 220.557C345.249 221.375 345.501 222.993 350.594 222.807Z" fill="#E7D9C9"/>
</g>
<g style="mix-blend-mode:multiply" opacity="0.82">
<path d="M423.63 192.092C410.935 192.25 408.782 199.485 398.894 199.857C392.301 200.098 389.168 197.922 383.155 196.946H358.448C349.644 200.015 330.683 200.163 321.329 203.083C322.368 205.808 336.37 204.795 341.566 206.32C342.576 207.25 339.25 209.361 343.808 209.23C352.955 208.198 358.374 202.656 369.658 201.791C378.815 201.174 388.075 201.95 396.652 204.051C395.642 204.981 395.642 205.036 396.652 205.994C410.876 205.762 410.015 209.9 419.101 211.165C434.766 209.351 419.205 205.232 419.101 202.107C419.027 198.545 438.448 194.063 423.63 192.092Z" fill="#E7D9C9"/>
</g>
<g style="mix-blend-mode:multiply" opacity="0.82">
<path d="M686.629 134.845C691.588 134.845 696.294 134.845 697.853 133.915C692.508 131.785 683.793 130.632 677.616 128.735C669.004 128.995 671.677 131.069 664.149 131.32C656.116 131.599 645.545 128.316 637.185 131.32C637.052 132.65 636.963 133.98 638.299 134.872C645.411 135.328 657.839 135.886 669.761 135.858C671.944 134.928 669.465 132.743 675.404 132.938C683.095 132.417 680.689 134.826 686.629 134.845Z" fill="#E7D9C9"/>
</g>
<g style="mix-blend-mode:multiply" opacity="0.82">
<path d="M688.885 253.858C688.885 253.663 689.049 253.477 689.984 253.533V252.891C689.301 252.891 688.648 252.845 688.885 252.566H686.629C686.629 252.761 686.436 252.947 685.485 252.891V253.533C686.168 253.533 686.822 253.589 686.629 253.858H688.885Z" fill="#E7D9C9"/>
</g>
<g style="mix-blend-mode:multiply" opacity="0.82">
<path d="M948.499 242.866C948.855 242.429 950.087 242.253 949.627 241.564H945.173C944.148 242.615 946.865 242.587 948.499 242.866Z" fill="#E7D9C9"/>
</g>
<g style="mix-blend-mode:multiply" opacity="0.82">
<path d="M353.949 246.093C356.429 244.373 353.727 243.461 350.594 242.541C342.324 243.294 330.193 242.922 325.843 244.81C335.375 248.706 338.998 252.593 342.725 258.387C375.286 259.233 370.49 249.245 353.949 246.093Z" fill="#E7D9C9"/>
</g>
<g style="mix-blend-mode:multiply" opacity="0.82">
<path d="M115.672 196.621C112.48 199.587 121.612 203.195 128.055 203.084C141.834 202.861 126.259 196.844 115.672 196.621Z" fill="#E7D9C9"/>
</g>
<g style="mix-blend-mode:multiply" opacity="0.82">
<path d="M40.3646 183.667C31.8716 184.438 28.1597 188 28.0261 190.176C40.4239 190.176 51.1589 185.629 40.3646 183.667Z" fill="#E7D9C9"/>
</g>
<g style="mix-blend-mode:multiply" opacity="0.82">
<path d="M346.08 111.243C343.823 111.782 340.854 112.117 340.468 113.187C348.634 114.2 359.206 116.153 367.431 116.097C369.376 113.159 353.237 112.638 346.08 111.243Z" fill="#E7D9C9"/>
</g>
<g style="mix-blend-mode:multiply" opacity="0.82">
<path d="M252.777 123.537C266.14 125.88 258.909 134.008 240.409 131.293C236.459 132.715 240.275 134.445 239.295 136.798C244.907 136.528 248.471 138.537 256.177 137.123C253.534 134.585 261.225 132.66 267.402 131.618C265.219 135.208 261.27 141.048 244.907 141.643C243.051 145.409 246.585 149.138 248.308 151.668C251.737 151.9 252.391 151.342 255.034 151.342C255.85 149.743 255.939 149.622 253.92 148.431C260.453 144.544 293.371 143.912 273.014 139.058C275.167 134.408 281.923 131.069 287.639 127.415C287.832 126.392 284.67 126.336 285.382 125.155C287.016 124.55 287.892 123.723 292.138 123.862C295.464 124.839 297.558 126.178 304.506 126.122C305.917 122.002 317.201 120.728 317.988 116.423C315.761 115.976 311.559 116.116 308.976 115.772C299.473 116.925 299.31 120.747 290.995 122.281C276.696 121.872 266.199 120.366 268.545 115.167C261.388 112.443 239.829 113.605 238.196 117.111C244.195 118.896 255.939 119.073 252.777 123.537Z" fill="#E7D9C9"/>
</g>
<g style="mix-blend-mode:multiply" opacity="0.82">
<path d="M471.959 124.504C480.185 121.444 471.559 119.547 461.833 118.357C457.037 118.701 455.182 119.891 456.221 121.918C462.68 122.43 464.031 124.42 471.959 124.504Z" fill="#E7D9C9"/>
</g>
<g style="mix-blend-mode:multiply" opacity="0.82">
<path d="M258.389 162.994C258.849 157.256 241.685 156.587 228.07 154.894C230.297 157.898 220.334 158.065 223.616 160.4C229.718 161.562 242.116 160.902 247.209 162.343V164.277C244.603 163.821 241.827 163.936 239.34 164.603C237.855 166.556 242.71 166.658 246.095 167.188C250.95 165.998 253.564 164.184 258.389 162.994Z" fill="#E7D9C9"/>
</g>
<g style="mix-blend-mode:multiply" opacity="0.82">
<path d="M785.515 247.07C788.677 252.649 799.442 248.325 810.251 248.046C818.15 247.832 821.535 249.72 828.232 248.362C831.008 245.926 834.334 242.783 825.975 242.541C820.333 242.346 817.23 245.284 810.251 245.768C798.536 246.595 787.831 244.336 785.515 247.07Z" fill="#E7D9C9"/>
</g>
<g style="mix-blend-mode:multiply" opacity="0.82">
<path d="M153.891 201.8C148.328 201.695 145.71 202.448 146.036 204.06C148.709 204.794 152.822 204.116 154.945 203.734C155.197 202.934 155.197 202.172 153.891 201.8Z" fill="#E7D9C9"/>
</g>
<g style="mix-blend-mode:multiply" opacity="0.82">
<path d="M41.5078 179.807C52.9851 180.476 57.8403 176.682 57.2316 174.636C54.6184 165.012 21.983 178.672 41.5078 179.807Z" fill="#E7D9C9"/>
</g>
<g style="mix-blend-mode:multiply" opacity="0.82">
<path d="M1270.53 181.007L1270.44 176.413C1266.66 177.826 1265.13 180.086 1270.53 181.007Z" fill="#E7D9C9"/>
</g>
<g style="mix-blend-mode:multiply" opacity="0.82">
<path d="M747.297 135.83C757.052 137.746 770.207 138.183 778.789 139.699C793.636 138.415 790.311 134.696 790.014 130.976C783.525 130.79 784.074 128.577 784.401 126.447C790.34 126.447 790.608 124.782 794.512 124.178C792.025 123.547 789.321 123.326 786.658 123.536C783.288 123.973 782.412 125.117 779.902 125.796C777.23 125.164 774.542 126.122 772.033 125.154C769.167 124.29 772.716 123.453 772.033 122.244C753.726 119.454 752.092 127.702 757.423 132.268C752.478 133.003 746.911 133.552 747.297 135.83Z" fill="#E7D9C9"/>
</g>
<g style="mix-blend-mode:multiply" opacity="0.82">
<path d="M956.353 138.406C961.847 133.161 928.142 132.426 932.76 126.447C937.214 124.922 945.188 124.42 951.854 123.536C958.313 119.891 955.314 115.009 966.479 113.186C985.306 115.288 1006.12 117.529 1018.16 112.256C1008.87 108.257 1034.62 103.012 1020.42 101.906C1007.89 100.976 1007.56 107.671 996.828 109.02C983.807 108.136 987.92 101.878 974.334 102.231C962.456 102.529 964.683 109.28 950.741 110.312C944.475 110.08 943.406 108.332 936.131 108.369C922.768 110.368 936.353 113.735 935.017 117.752C928.974 120.114 923.139 122.541 912.523 123.573C912.166 122.811 909.033 122.848 908.068 122.281C908.068 121.221 911.231 121.044 910.281 119.686C907.163 118.756 901.936 118.431 899.071 117.426C900.362 115.223 897.304 114.255 894.616 113.223C907.148 113.102 912.73 108.35 917.111 104.854C913.903 103.189 909.167 101.962 903.629 100.967C897.229 102.11 890.533 101.301 883.391 101.896C878.729 103.012 885.618 105.923 878.937 106.751C871.201 105.821 858.833 103.635 849.687 105.133C846.717 106.444 852.656 107.151 849.687 108.694C845.232 109.541 836.324 109.141 832.849 110.303C833.829 112.563 839.679 114.097 848.588 113.539C854.527 113.177 857.007 110.136 862.1 109.978C874.334 109.615 880.244 115.557 868.811 118.068C856.74 117.426 853.384 116.58 841.862 118.068C834.156 117.045 820.422 111.689 814.869 116.766C821.818 118.933 833.993 120.709 830.607 124.857C834.72 124.857 835.656 125.787 838.462 126.149C842.768 125.554 845.544 124.522 849.687 123.89C858.7 125.055 868.055 124.607 876.68 122.597C887.786 124.262 901.03 125.294 905.886 128.735C900.733 130.873 890.355 131.041 891.305 133.589C891.825 135.077 901.461 136.053 904.787 137.467C910.949 140.08 911.246 143.465 919.367 143.614C915.745 140.219 910.949 133.989 918.298 131.645C926.093 132.11 925.44 134.779 923.881 137.15C929.271 139.875 952.864 141.763 956.353 138.406Z" fill="#E7D9C9"/>
</g>
<g style="mix-blend-mode:multiply" opacity="0.82">
<path d="M1085.62 143.586C1084.22 146.013 1087.33 148.45 1082.23 150.7C1086.54 155.666 1081.09 163.217 1096.86 166.221C1103.48 166.574 1111.11 166.649 1115.97 167.513C1121.22 166.77 1124.59 165.477 1129.45 164.603C1132.55 164.9 1137.35 164.705 1139.56 165.254C1143.72 164.24 1152.6 163.301 1153.04 161.05C1153.31 159.73 1148.74 158.958 1147.43 157.489C1141.49 150.756 1152.06 147.985 1176.65 148.431C1183.43 147.148 1187.15 144.981 1191.26 142.935C1192.37 138.434 1184.47 135.682 1176.65 132.91C1167.44 133.189 1171.75 137.3 1173.28 139.057C1161.62 145.837 1142.25 135.524 1124.95 140.034C1122.41 139.039 1122.99 137.142 1119.34 136.472C1100.57 137.114 1088.39 138.713 1085.62 143.586Z" fill="#E7D9C9"/>
</g>
<g style="mix-blend-mode:multiply" opacity="0.82">
<path d="M1072.11 109.95C1085.56 109.541 1073.49 103.608 1066.49 102.51C1055.14 104.538 1062.65 110.201 1072.11 109.95Z" fill="#E7D9C9"/>
</g>
<g style="mix-blend-mode:multiply" opacity="0.82">
<path d="M1085.62 116.711C1083.93 114.953 1081.16 114.46 1077.76 114.451C1063.08 114.451 1065.89 121.063 1078.86 120.598C1083.41 120.431 1088.01 119.278 1085.62 116.711Z" fill="#E7D9C9"/>
</g>
<g style="mix-blend-mode:multiply" opacity="0.82">
<path d="M1237.35 129.358C1231.6 130.678 1223.41 131.441 1218.22 132.91C1212.15 134.649 1209.6 138.49 1205.88 141.642C1203.33 143.8 1194.01 149.259 1206.98 149.407C1211.85 149.463 1211.72 147.78 1216 146.171C1218.85 145.093 1228.77 141.745 1232.83 140.675C1237.93 139.355 1242.93 139.345 1244.07 137.765C1245.56 135.784 1239.28 134.9 1241.85 133.561C1253.81 133.924 1258.09 136.509 1269.58 137.021L1269.4 128.493C1266.82 127.587 1263.9 127.104 1260.94 127.089C1252 127.014 1249.23 131.181 1237.35 129.358Z" fill="#E7D9C9"/>
</g>
<g style="mix-blend-mode:multiply" opacity="0.82">
<path d="M810.251 234.134C816.19 235.203 823.169 233.836 825.975 232.19C823.629 229.112 807.089 230.861 810.251 234.134Z" fill="#E7D9C9"/>
</g>
<g style="mix-blend-mode:multiply" opacity="0.82">
<path d="M1049.66 150.7C1041.21 147.473 1035.76 144.516 1018.16 146.822C1018.52 150.449 1023.26 154.318 1021.56 157.489C1008.77 158.123 995.892 157.581 983.346 155.88C981.908 156.271 980.417 156.582 978.892 156.81C976.962 164.798 1020.93 159.6 1020.47 167.151C1019.57 167.225 1019.16 167.43 1019.35 167.802C1015.14 168.667 1009.14 167.411 1005.84 168.127C1001.39 168.834 1008.26 171.847 1000.26 172.005C993.176 172.098 994.319 169.829 989.003 169.42C970.013 172.61 961.787 168.109 948.543 166.184C944.089 167.588 947.89 169.903 948.543 171.689C951.602 172.74 958.165 172.796 960.911 173.949C960.615 175.269 956.724 175.548 957.541 177.176C960.778 178.254 972.032 178.515 977.749 177.827C986.524 178.756 983.525 181.788 987.89 183.648C990.859 184.922 997.066 185.061 1001.37 185.917C1008.1 187.238 1014.29 190.446 1022.72 189.144C1024.58 186.447 1024.88 183.304 1028.34 181.063C1019.13 179.203 1002.02 179.575 999.115 175.892C1005.78 175.223 1010.99 174.125 1017.1 173.298C1027.03 177.947 1036.4 173.298 1041.85 170.387C1041.19 169.066 1036.65 168.862 1036.19 167.476C1043.24 164.11 1028.94 163.431 1028.34 160.362C1030.03 159.666 1031.96 159.223 1033.98 159.07C1042.53 160.483 1040.47 164.956 1053.07 165.217C1061.39 162.864 1075.71 162.25 1074.41 157.126C1069.37 154.931 1057.01 153.518 1049.66 150.7Z" fill="#E7D9C9"/>
</g>
<g style="mix-blend-mode:multiply" opacity="0.82">
<path d="M540.527 241.565C545.248 241.565 546.956 240.635 549.435 239.956C547.282 238.096 561.907 234.004 549.435 232.842C542.353 234.376 533.444 238.979 540.527 241.565Z" fill="#E7D9C9"/>
</g>
<g style="mix-blend-mode:multiply" opacity="0.82">
<path d="M796.769 130.976C805.099 130.567 810.414 129.442 807.994 126.773C802.486 127.442 797.334 128.223 794.513 129.683C793.651 130.567 796.74 130.334 796.769 130.976Z" fill="#E7D9C9"/>
</g>
<g style="mix-blend-mode:multiply" opacity="0.82">
<path d="M955.24 239.956C960.407 238.645 967.519 237.882 968.721 235.427C959.62 234.144 945.915 237.919 955.24 239.956Z" fill="#E7D9C9"/>
</g>
<g style="mix-blend-mode:multiply" opacity="0.82">
<path d="M996.828 227.671C993.621 228.731 986.91 228.452 990.072 230.247C1006.03 229.019 1013.72 225.411 1021.56 221.877C1008.02 220.957 1004.49 225.104 996.828 227.671Z" fill="#E7D9C9"/>
</g>
<g style="mix-blend-mode:multiply" opacity="0.82">
<path d="M427.015 234.813C421.24 234.022 420.037 237.324 411.262 236.747C408.292 233.799 412.494 230.238 415.716 228.015C414.514 226.973 410.193 226.806 407.847 226.071C411.663 222.947 428.47 221.905 424.714 217.702C408.381 216.949 402.992 224.119 393.222 224.165C376.577 224.249 393.786 221.096 395.479 219.636C398.196 217.311 393.845 216.168 395.479 213.499C389.777 210.439 377.201 211.313 365.13 210.253C359.191 211.546 360.913 215.089 362.903 217.051C366.273 217.479 371.811 217.274 375.241 217.702C377.385 219.334 380.07 220.654 383.11 221.571C381.626 223.3 374.068 223.282 369.629 224.165C364.417 225.923 364.091 229.745 369.629 231.605C373.905 232.209 380.69 232.088 383.11 233.213C386.377 235.324 382.784 238.793 387.565 240.978C386.303 242.448 381.7 242.959 380.854 244.54C385.27 246.606 388.416 249.562 389.762 252.91C404.61 252.519 408.144 247.758 400.987 244.54C403.333 242.829 411.529 242.494 415.612 240.978C417.736 240.188 417.097 238.877 418.968 238.068C421.833 236.831 431.648 236.459 427.015 234.813Z" fill="#E7D9C9"/>
</g>
<g style="mix-blend-mode:multiply" opacity="0.82">
<path d="M549.495 221.199C549.331 224.593 566.762 224.984 566.362 221.199C562.59 220.595 553.444 220.809 549.495 221.199Z" fill="#E7D9C9"/>
</g>
<g style="mix-blend-mode:multiply" opacity="0.82">
<path d="M664.149 118.357V117.073C661.18 116.98 659.309 117.185 659.695 118.003C661.142 118.263 662.644 118.382 664.149 118.357V118.357Z" fill="#E7D9C9"/>
</g>
<g style="mix-blend-mode:multiply" opacity="0.82">
<path d="M30.2681 376.75C30.2681 374.443 25.4128 372.332 22.369 371.895H21.7751C21.7751 373.709 21.7752 375.522 21.8494 377.335C24.688 377.634 27.6035 377.432 30.2681 376.75V376.75Z" fill="#E7D9C9"/>
</g>
<g style="mix-blend-mode:multiply" opacity="0.82">
<path d="M116.786 327.268C117.306 329.807 126.482 330.327 126.912 333.405C127.135 334.893 122.176 336.316 123.542 337.609C124.908 338.901 130.134 339.701 135.91 339.227C139.147 335.07 135.91 330.746 138.167 326.626C130.327 326.357 120.765 324.897 116.786 327.268Z" fill="#E7D9C9"/>
</g>
<g style="mix-blend-mode:multiply" opacity="0.82">
<path d="M265.145 287.82C228.53 288.601 280.349 296.45 265.145 287.82V287.82Z" fill="#E7D9C9"/>
</g>
<g style="mix-blend-mode:multiply" opacity="0.82">
<path d="M93.193 327.593C90.7876 327.593 84.9079 328.867 85.3236 330.504C95.8062 332.782 105.799 327.435 93.193 327.593Z" fill="#E7D9C9"/>
</g>
<g style="mix-blend-mode:multiply" opacity="0.82">
<path d="M117.929 322.739C127.952 322.739 134.648 317.745 123.542 317.243C118.078 317.922 112.807 321.056 117.929 322.739Z" fill="#E7D9C9"/>
</g>
<g style="mix-blend-mode:multiply" opacity="0.82">
<path d="M217.959 293.306C228.827 292.934 219.919 289.01 213.504 291.046C213 292.358 213.876 293.306 217.959 293.306Z" fill="#E7D9C9"/>
</g>
<g style="mix-blend-mode:multiply" opacity="0.82">
<path d="M49.3623 375.773C52.1685 375.513 55.3756 375.346 54.9747 374.165C52.7792 373.718 50.4146 373.718 48.219 374.165C48.0636 374.474 48.094 374.808 48.3046 375.104C48.5151 375.401 48.8913 375.639 49.3623 375.773V375.773Z" fill="#E7D9C9"/>
</g>
<g style="mix-blend-mode:multiply" opacity="0.82">
<path d="M24.6259 414.905C24.7743 413.733 21.9236 413.11 21.2109 412.218C21.1416 414.077 21.0624 415.897 20.9733 417.676C22.6957 416.756 24.5368 415.844 24.6259 414.905Z" fill="#E7D9C9"/>
</g>
<g style="mix-blend-mode:multiply" opacity="0.82">
<path d="M23.5125 385.464C27.7292 385.166 27.7589 383.669 32.4954 383.52C31.3521 382.59 31.649 381.177 29.1249 380.609C26.7167 380.459 24.2919 380.444 21.8792 380.563V384.078C22.4286 384.534 22.4137 385.185 23.5125 385.464Z" fill="#E7D9C9"/>
</g>
<g style="mix-blend-mode:multiply" opacity="0.82">
<path d="M41.5079 359.936C46.6897 360.42 52.4061 360.364 53.8612 358.96C54.3215 357.425 50.0156 357.258 50.4759 355.724C46.1998 355.463 46.1404 356.421 44.8635 357.016C39.6074 355.817 25.6356 354.85 32.4953 352.171C28.8576 351.716 24.819 350.814 20.8992 350.135C21.107 353.39 21.2802 356.669 21.4188 359.974C25.002 360.913 28.7079 361.656 32.4953 362.196C36.2815 361.657 40.424 361.285 41.5079 359.936Z" fill="#E7D9C9"/>
</g>
<g style="mix-blend-mode:multiply" opacity="0.82">
<path d="M66.1998 381.929C70.9956 382.218 71.8865 381.399 72.9555 380.627C70.5799 380.33 69.6296 379.642 66.1998 379.698C64.0171 380.544 64.0171 381.027 66.1998 381.929Z" fill="#E7D9C9"/>
</g>
<g style="mix-blend-mode:multiply" opacity="0.82">
<path d="M745.04 74.3802C742.845 74.0277 740.569 73.9176 738.314 74.0547V75.9983C742.204 75.9332 745.634 75.7286 745.04 74.3802Z" fill="#E7D9C9"/>
</g>
<g style="mix-blend-mode:multiply" opacity="0.82">
<path d="M475.657 498.916L476.845 500.999L478.107 501.073C477.518 500.263 476.686 499.53 475.657 498.916V498.916Z" fill="#E7D9C9"/>
</g>
<g style="mix-blend-mode:multiply" opacity="0.82">
<path d="M392.168 483.786C385.739 482.856 385.961 479.964 376.429 479.908C382.695 484.279 399.532 488.203 392.168 494.462C397.29 495.922 395.82 497.977 397.78 499.641C398.857 500.438 400.124 501.125 401.537 501.678L431.41 501.538L435.612 496.312C431.425 496.47 427.015 496.572 422.516 496.721C409.629 493.215 399.205 488.975 392.168 483.786Z" fill="#E7D9C9"/>
</g>
<g style="mix-blend-mode:multiply" opacity="0.82">
<path d="M488.827 496.722C492.687 498.833 491.484 500.2 489.346 501.771L502.873 502.599C501.121 501.911 500.2 501.074 501.195 500.292C502.29 500.118 503.426 500.064 504.55 500.134C505.248 499.121 506.035 497.884 507.045 496.582C501.848 497.335 494.573 496.21 488.827 496.722Z" fill="#E7D9C9"/>
</g>
<g style="mix-blend-mode:multiply" opacity="0.82">
<path d="M1162.92 504.031L1187.25 504.961L1188.25 502.171C1183.6 502.673 1178.82 503.194 1174.39 503.482C1169.97 503.77 1165.97 503.752 1162.92 504.031Z" fill="#E7D9C9"/>
</g>
<g style="mix-blend-mode:multiply" opacity="0.82">
<path d="M1255.33 501.25C1244.93 501.632 1246.64 505.193 1237.35 506.746C1231.82 505.872 1225.94 506.049 1220.47 504.812C1214.72 503.51 1214.53 501.297 1206.98 500.925C1204.36 500.843 1201.72 500.918 1199.11 501.148L1201.16 506.04L1281.8 508.151L1281.4 504.859C1270.98 503.78 1264.73 500.916 1255.33 501.25Z" fill="#E7D9C9"/>
</g>
<g style="mix-blend-mode:multiply" opacity="0.82">
<path d="M1214.88 274.884C1214.63 276.031 1216.49 276.57 1220.47 276.502C1224.44 275.377 1218.74 273.731 1214.88 274.884Z" fill="#E7D9C9"/>
</g>
<g style="mix-blend-mode:multiply" opacity="0.82">
<path d="M1148.51 8.40963C1155.24 9.33957 1160.23 7.303 1167.64 6.46605C1182.48 4.79216 1201.5 3.92732 1213.66 1.93725C1214.65 1.7704 1215.62 1.56542 1216.56 1.32349L1147.22 2.79279C1146.27 4.65267 1147.95 6.97752 1148.51 8.40963Z" fill="#E7D9C9"/>
</g>
<g style="mix-blend-mode:multiply" opacity="0.82">
<path d="M1255.33 5.18339C1257.78 3.39742 1260.51 1.77105 1263.48 0.329102L1244.07 0.738277C1246.15 2.50516 1247.83 4.50453 1255.33 5.18339Z" fill="#E7D9C9"/>
</g>
<g style="mix-blend-mode:multiply" opacity="0.82">
<path d="M969.835 16.8167C973.265 19.7553 965.455 23.3262 975.477 23.9307C985.499 24.5352 982.589 20.5643 993.458 20.6945C999.694 21.6988 996.427 25.4558 1002.37 26.5159C1025.23 27.0553 1028.5 21.9685 1043.94 20.3783C1050.76 18.4534 1050.59 14.7987 1058.55 12.2879C1065.65 10.0839 1081.01 9.95371 1072.03 4.84834C1072.31 4.65566 1072.63 4.48958 1072.98 4.35547L994.467 6.04796C1003.08 7.16389 996.531 11.0324 991.201 11.0231C982.634 11.0231 986.553 7.48007 991.201 6.12236L967.37 6.59662L964.727 14.7522C966.715 15.1133 968.491 15.831 969.835 16.8167V16.8167Z" fill="#E7D9C9"/>
</g>
<g style="mix-blend-mode:multiply" opacity="0.82">
<path d="M192.109 238.979C192.376 235.018 180.231 228.852 162.874 230.247C161.3 230.991 158.983 231.503 157.261 232.191C155.227 234.832 170.283 234.199 174.128 237.696C178.375 241.574 176.385 247.209 166.229 247.386C159.414 247.516 160.038 245.526 151.649 245.452C145.413 245.814 146.69 248.334 140.379 248.688C139.414 248 136.994 247.758 137.024 246.744C141.27 245.256 152.064 243.369 146.036 240.923C131.797 240.495 133.178 244.559 122.428 245.126C117.677 244.977 116.37 243.852 110.06 244.196C95.5092 247.823 119.667 252.566 132.525 251.31C141.923 254.054 130.001 259.429 116.786 259.68C111.827 263.093 102.859 265.362 86.4373 265.501C82.1017 266.877 84.3883 269.593 89.8374 270.03C94.9599 269.9 97.0534 268.877 102.176 268.737C107.387 269.072 109.778 270.225 115.673 270.346C127.952 268.217 138.523 270.681 151.649 270.997C158.167 269.491 152.391 267.566 151.649 265.501C155.465 263.837 161.508 264.794 168.486 264.218C171.975 261.186 178.597 256.118 183.096 250.948C185.739 247.916 185.056 244.726 187.551 242.215C188.917 240.932 192.005 240.272 192.109 238.979Z" fill="#E7D9C9"/>
</g>
<g style="mix-blend-mode:multiply" opacity="0.82">
<path d="M201.092 287.169C208.516 287.569 213.222 284.695 210.089 282.965C202.873 278.967 186.17 286.36 201.092 287.169Z" fill="#E7D9C9"/>
</g>
<g style="mix-blend-mode:multiply" opacity="0.82">
<path d="M190.965 262.59C186.333 264.013 190.149 266.068 196.578 266.143C202.487 265.064 199.295 262.311 190.965 262.59Z" fill="#E7D9C9"/>
</g>
<g style="mix-blend-mode:multiply" opacity="0.82">
<path d="M88.6941 256.453C81.6414 257.132 81.6414 260.61 88.6941 261.298C99.9784 260.991 98.7758 256.955 88.6941 256.453Z" fill="#E7D9C9"/>
</g>
<g style="mix-blend-mode:multiply" opacity="0.82">
<path d="M206.704 250.296C204.447 250.836 201.478 251.171 201.092 252.249C206.541 253.477 204.447 256.899 212.346 257.41C219.919 255.95 217.172 250.38 206.704 250.296Z" fill="#E7D9C9"/>
</g>
<g style="mix-blend-mode:multiply" opacity="0.82">
<path d="M1266.58 217.312C1267.75 217.382 1268.93 217.382 1270.1 217.312L1268.42 214.754C1265.34 214.968 1264.33 216.586 1266.58 217.312Z" fill="#E7D9C9"/>
</g>
<g style="mix-blend-mode:multiply" opacity="0.82">
<path d="M464.031 30.0778C462.498 29.7689 460.86 29.7259 459.291 29.9535C457.723 30.1811 456.282 30.6708 455.122 31.3704C458.418 32.0864 465.367 31.6866 464.031 30.0778Z" fill="#E7D9C9"/>
</g>
<g style="mix-blend-mode:multiply" opacity="0.82">
<path d="M603.437 29.426C608.366 27.2871 612.093 20.917 598.982 20.6938C591.395 22.8327 595.285 28.1055 603.437 29.426Z" fill="#E7D9C9"/>
</g>
<g style="mix-blend-mode:multiply" opacity="0.82">
<path d="M201.641 3.25781H190.03C193.886 3.55015 197.785 3.55015 201.641 3.25781Z" fill="#E7D9C9"/>
</g>
<g style="mix-blend-mode:multiply" opacity="0.82">
<path d="M380.883 60.4774C375.494 60.5611 365.798 64.8109 374.128 66.9404C381.106 66.057 396.934 60.2263 380.883 60.4774Z" fill="#E7D9C9"/>
</g>
<g style="mix-blend-mode:multiply" opacity="0.82">
<path d="M647.267 40.1022C663.451 39.2931 653.607 29.3707 643.912 27.1667C635.226 26.9249 631.647 28.1618 628.173 29.4265C630.786 33.8158 630.326 40.9484 647.267 40.1022Z" fill="#E7D9C9"/>
</g>
<g style="mix-blend-mode:multiply" opacity="0.82">
<path d="M485.426 11.9622C483.051 13.8221 467.936 14.5567 475.315 17.142C482.501 17.4767 482.13 15.6541 487.683 15.5239C490.951 16.237 494.357 16.6718 497.809 16.8165C511.514 14.3057 494.632 11.6367 493.355 10.3069C492.539 9.49787 494.959 7.85187 494.498 7.07072C493.86 5.98269 491.529 4.65288 488.47 3.35096L474.721 3.29517C482.011 5.52702 479.398 9.11659 485.426 11.9622Z" fill="#E7D9C9"/>
</g>
<g style="mix-blend-mode:multiply" opacity="0.82">
<path d="M676.517 39.4514C701.61 39.9536 695.211 31.4911 678.759 32.0119C667.445 32.3745 667.891 37.6659 676.517 39.4514Z" fill="#E7D9C9"/>
</g>
<g style="mix-blend-mode:multiply" opacity="0.82">
<path d="M614.127 3.19287H613.993L613.444 8.77251C614.576 6.99998 614.815 5.05279 614.127 3.19287Z" fill="#E7D9C9"/>
</g>
<g style="mix-blend-mode:multiply" opacity="0.82">
<path d="M603.437 8.73531C593.489 10.2511 580.17 16.6026 596.725 19.0762C600.621 17.663 604.234 15.9648 607.49 14.0174L603.377 7.41479C603.339 7.85524 603.358 8.29692 603.437 8.73531V8.73531Z" fill="#E7D9C9"/>
</g>
<g style="mix-blend-mode:multiply" opacity="0.82">
<path d="M467.446 70.818V72.4361H474.202C475.092 70.7715 470.98 70.3531 467.446 70.818Z" fill="#E7D9C9"/>
</g>
<g style="mix-blend-mode:multiply" opacity="0.82">
<path d="M460.735 72.7619V71.4692H453.979C452.405 73.0036 458.092 73.4221 460.735 72.7619Z" fill="#E7D9C9"/>
</g>
<g style="mix-blend-mode:multiply" opacity="0.82">
<path d="M725.96 52.3871C733.592 49.309 724.283 44.213 709.078 44.6314C703.704 45.9333 705.07 48.4163 706.837 50.769C712.903 52.283 719.47 52.8387 725.96 52.3871V52.3871Z" fill="#E7D9C9"/>
</g>
<g style="mix-blend-mode:multiply" opacity="0.82">
<path d="M565.233 66.9407C569.985 66.6804 574.142 65.1553 578.745 64.681C588.069 63.751 602.501 63.8347 615.864 63.3884C624.773 63.0815 634.765 61.8168 641.714 62.0957C647 62.3003 651.736 64.495 657.438 64.3462C659.483 64.3892 661.507 64.0809 663.292 63.4547C665.077 62.8285 666.555 61.9083 667.564 60.7938C654.929 59.7988 642.471 58.748 628.232 58.2086C620.14 55.7629 620.809 51.5223 618.121 48.1838C617.052 46.8726 613.266 45.6916 612.509 44.306C610.653 40.9768 617.705 36.1132 606.896 34.2812C600.007 35.6204 605.1 37.8615 605.753 39.7772C606.673 42.474 603.466 45.4963 604.639 47.8584C605.367 49.3277 610.846 50.3692 612.509 52.0617C615.018 54.6376 613.459 56.5719 612.509 59.185C610.318 59.7322 608.058 60.1645 605.753 60.4777C596.221 61.2774 582.085 61.0821 572.034 62.0957C566.362 62.663 563.259 64.5694 557.423 64.681C553.311 64.7554 549.005 63.4907 545.085 63.7045C536.176 64.5787 532.553 67.0058 522.605 67.5917C507.654 65.4063 494.142 69.2563 484.387 71.4696C494.009 74.3431 502.665 70.7349 511.366 70.1769C516.34 69.8608 522.115 70.5024 527.104 70.1769C536.013 69.5818 540.809 66.9407 550.697 66.6153C554.973 66.4944 560.541 67.2011 565.233 66.9407Z" fill="#E7D9C9"/>
</g>
<g style="mix-blend-mode:multiply" opacity="0.82">
<path d="M666.391 65.9731C667.965 67.6377 675.047 67.2378 678.759 66.2986C679.739 63.8342 666.777 63.8714 666.391 65.9731Z" fill="#E7D9C9"/>
</g>
<g style="mix-blend-mode:multiply" opacity="0.82">
<path d="M977.764 352.813C977.303 353.427 975.343 353.622 975.536 354.431C977.17 355.575 981.609 355.919 985.648 356.375C990.622 354.505 984.133 353.176 977.764 352.813Z" fill="#E7D9C9"/>
</g>
<g style="mix-blend-mode:multiply" opacity="0.82">
<path d="M215.702 400.677C212.51 401.161 210.906 402.1 206.704 402.295C203.66 401.979 201.285 401.486 201.092 400.352C202.645 399.503 204.643 399.043 206.704 399.059C210.906 399.059 210.089 400.454 215.702 400.035C218.226 399.449 218.345 398.399 216.815 397.441C201.092 395.851 181.567 397.487 180.854 402.937C193.772 403.634 200.364 406.173 211.203 407.466C219.889 406.498 229.807 401.895 215.702 400.677Z" fill="#E7D9C9"/>
</g>
<g style="mix-blend-mode:multiply" opacity="0.82">
<path d="M232.584 386.765C234.47 386.891 236.377 386.784 238.196 386.449V385.519C235.227 385.519 231.574 385.333 231.441 386.161C232.317 386.198 232.747 386.393 232.584 386.765Z" fill="#E7D9C9"/>
</g>
<g style="mix-blend-mode:multiply" opacity="0.82">
<path d="M557.364 419.434C554.914 420.504 560.66 422.308 556.25 422.986C546.228 422.196 535.82 424.195 532.657 427.19C538.596 429.44 568.099 427.506 574.231 424.605C581.64 421.099 567.876 416.198 557.364 419.434Z" fill="#E7D9C9"/>
</g>
<g style="mix-blend-mode:multiply" opacity="0.82">
<path d="M269.644 409.084C267.372 409.177 267.432 409.958 265.19 410.06C264.803 411.92 267.12 412.952 271.945 413.287C279.547 412.897 278.434 409.056 269.644 409.084Z" fill="#E7D9C9"/>
</g>
<g style="mix-blend-mode:multiply" opacity="0.82">
<path d="M300.008 383.864C294.751 392.466 329.376 383.334 300.008 383.864V383.864Z" fill="#E7D9C9"/>
</g>
<g style="mix-blend-mode:multiply" opacity="0.82">
<path d="M628.173 396.474C631.439 397.953 632.716 398.009 633.785 400.036C632.746 401.022 628.336 401.04 628.173 402.296C628.277 403.346 629.658 404.044 632.627 404.239C636.146 404.174 634.112 402.491 638.24 402.621C641.343 403.133 641.566 404.481 647.148 404.239C664.179 399.673 641.818 395.321 628.173 396.474Z" fill="#E7D9C9"/>
</g>
<g style="mix-blend-mode:multiply" opacity="0.82">
<path d="M176.385 404.555C175.539 403.569 178.3 403.625 177.484 402.621C173.341 402.723 167.536 402.333 165.116 402.937C165.383 403.551 163.853 403.653 164.017 404.239C166.957 405.392 170.565 404.332 176.385 404.555Z" fill="#E7D9C9"/>
</g>
<g style="mix-blend-mode:multiply" opacity="0.82">
<path d="M583.244 412.962C573.934 412.962 568.975 419.704 587.698 419.108C589.48 417.323 593.518 412.934 583.244 412.962Z" fill="#E7D9C9"/>
</g>
<g style="mix-blend-mode:multiply" opacity="0.82">
<path d="M346.08 418.783C340.007 419.164 340.497 422.233 347.194 422.345C353.266 421.964 352.776 418.885 346.08 418.783Z" fill="#E7D9C9"/>
</g>
<g style="mix-blend-mode:multiply" opacity="0.82">
<path d="M380.883 416.839C383.482 415.854 381.596 414.003 375.226 414.579C375.226 415.342 373.311 415.509 374.128 416.523C376.332 416.876 378.619 416.983 380.883 416.839V416.839Z" fill="#E7D9C9"/>
</g>
<g style="mix-blend-mode:multiply" opacity="0.82">
<path d="M65.101 417.816C54.8857 418.653 49.1099 420.764 44.8635 423.312C54.6184 429.17 82.4432 421.359 65.101 417.816Z" fill="#E7D9C9"/>
</g>
<g style="mix-blend-mode:multiply" opacity="0.82">
<path d="M217.959 420.726C222.918 421.266 226.971 419.685 226.867 417.816C221.255 416.04 214.039 418.885 217.959 420.726Z" fill="#E7D9C9"/>
</g>
<g style="mix-blend-mode:multiply" opacity="0.82">
<path d="M171.871 416.84C172.109 416.589 172.822 416.468 174.128 416.524C176.608 415.129 174.351 413.548 169.674 413.287C167.818 414.041 163.378 414.078 164.061 415.556C165.591 416.263 166.986 417.081 171.871 416.84Z" fill="#E7D9C9"/>
</g>
<g style="mix-blend-mode:multiply" opacity="0.82">
<path d="M388.767 375.457C389.168 372.668 377.216 373.393 370.787 372.547C365.857 375.402 381.982 376.955 388.767 375.457Z" fill="#E7D9C9"/>
</g>
<g style="mix-blend-mode:multiply" opacity="0.82">
<path d="M373.044 369.31C381.715 369.552 390.044 369.794 397.78 369.626C402.546 365.804 372.034 363.954 371.93 368.696C372.806 368.724 373.237 368.929 373.044 369.31Z" fill="#E7D9C9"/>
</g>
<g style="mix-blend-mode:multiply" opacity="0.82">
<path d="M589.97 377.717C585.723 375.606 577.557 374.611 567.475 374.165C566.558 374.705 565.374 375.033 564.12 375.095C563.333 376.406 565.189 376.955 565.233 378.015C570.935 379.521 587.713 380.498 589.97 377.717Z" fill="#E7D9C9"/>
</g>
<g style="mix-blend-mode:multiply" opacity="0.82">
<path d="M518.032 373.513C522.873 374.025 527.816 374.025 532.657 373.513C530.965 371.849 525.872 371.151 519.175 370.919C516.636 371.514 516.503 372.556 518.032 373.513Z" fill="#E7D9C9"/>
</g>
<g style="mix-blend-mode:multiply" opacity="0.82">
<path d="M375.286 393.238C377.216 393.294 391.796 392.011 392.168 391.955C402.383 389.983 404.046 383.939 407.891 381.595C407.639 381.344 406.941 381.232 405.635 381.27C396.117 381.437 393.756 383.66 392.168 386.124C387.401 388.421 369.258 386.868 364.061 389.035C364.001 391.685 368.471 393.043 375.286 393.238Z" fill="#E7D9C9"/>
</g>
<g style="mix-blend-mode:multiply" opacity="0.82">
<path d="M609.094 398.417C606.124 397.357 595.508 398.789 588.856 398.734C589.762 399.664 587.252 399.571 587.713 400.352C595.864 401.105 606.079 400.166 609.094 398.417Z" fill="#E7D9C9"/>
</g>
<g style="mix-blend-mode:multiply" opacity="0.82">
<path d="M207.847 384.533C213.089 382.888 226.734 380.46 217.959 377.745C204.195 377.159 190.223 383.771 207.847 384.533Z" fill="#E7D9C9"/>
</g>
<g style="mix-blend-mode:multiply" opacity="0.82">
<path d="M530.4 365.749H525.946C525.882 366.013 525.959 366.283 526.166 366.517C526.373 366.751 526.697 366.935 527.089 367.041C529.985 367.134 530.727 366.595 530.4 365.749Z" fill="#E7D9C9"/>
</g>
<g style="mix-blend-mode:multiply" opacity="0.82">
<path d="M292.138 377.717C295.568 377.28 309.272 373.17 308.976 371.896C307.803 366.614 278.434 373.374 292.138 377.717Z" fill="#E7D9C9"/>
</g>
<g style="mix-blend-mode:multiply" opacity="0.82">
<path d="M346.08 364.456C343.111 368.018 330.549 369.45 334.826 374.165C323.987 375.513 320.854 380.814 335.969 381.604C339.458 380.786 339.725 379.019 339.324 377.076C348.753 374.555 357.142 372.975 356.206 368.027C353.593 367.144 350.549 366.409 350.594 364.791C362.338 363.573 359.131 360.588 351.693 358.644C354.825 357.138 353.356 355.464 347.238 355.083C338.255 357.073 339.889 362.048 346.08 364.456Z" fill="#E7D9C9"/>
</g>
<g style="mix-blend-mode:multiply" opacity="0.82">
<path d="M435.998 373.188C442.62 371.114 452.049 369.831 451.722 365.749C441.477 365.804 435.672 369.691 429.242 371.895C430.445 372.63 432.657 373.076 435.998 373.188Z" fill="#E7D9C9"/>
</g>
<g style="mix-blend-mode:multiply" opacity="0.82">
<path d="M392.168 363.145C398.983 361.666 399.829 358.495 409.005 357.649C403.289 351.055 373.534 360.801 392.168 363.145Z" fill="#E7D9C9"/>
</g>
<g style="mix-blend-mode:multiply" opacity="0.82">
<path d="M192.109 394.214C209.436 395.256 217.662 389.118 203.334 388.393C194.173 387.918 182.68 391.192 192.109 394.214Z" fill="#E7D9C9"/>
</g>
<g style="mix-blend-mode:multiply" opacity="0.82">
<path d="M238.196 458.566C234.113 458.975 231.723 461.198 235.939 462.128C248.204 462.407 247.253 459.003 238.196 458.566Z" fill="#E7D9C9"/>
</g>
<g style="mix-blend-mode:multiply" opacity="0.82">
<path d="M563.006 444.05C551.128 443.64 557.067 436.48 542.769 437.54C533.637 438.247 532.85 445.91 543.882 447.249C547.074 447.927 552.405 445.528 556.25 447.249C553.993 448.764 550.504 449.908 547.238 451.126C552.731 454.623 535.983 457.19 546.139 460.184C560.14 457.952 561.15 451.991 573.088 449.183C569.077 448.044 565.604 446.276 563.006 444.05Z" fill="#E7D9C9"/>
</g>
<g style="mix-blend-mode:multiply" opacity="0.82">
<path d="M256.162 460.184H252.762C252.762 461.114 252.109 462.314 256.162 462.128C256.497 462.066 256.79 461.938 256.999 461.762C257.207 461.587 257.32 461.375 257.32 461.156C257.32 460.938 257.207 460.725 256.999 460.55C256.79 460.375 256.497 460.246 256.162 460.184Z" fill="#E7D9C9"/>
</g>
<g style="mix-blend-mode:multiply" opacity="0.82">
<path d="M70.7134 447.574C69.7334 449.015 71.6933 450.699 77.4691 451.126C81.0177 450.643 81.9234 449.378 87.5804 449.508C98.4193 450.289 87.0014 454.288 96.4891 455.004C102.918 454.391 97.3503 452.149 96.4891 450.801C111.604 445.742 73.5344 443.315 70.7134 447.574Z" fill="#E7D9C9"/>
</g>
<g style="mix-blend-mode:multiply" opacity="0.82">
<path d="M338.211 425.581C337.109 425.632 336.037 425.832 335.068 426.165C334.1 426.499 333.258 426.959 332.598 427.515C344.194 433.411 357.676 424.409 338.211 425.581Z" fill="#E7D9C9"/>
</g>
<g style="mix-blend-mode:multiply" opacity="0.82">
<path d="M488.827 428.808C482.175 430.91 492.85 434.183 495.553 436.573C503.452 436.154 506.837 434.425 514.677 433.988C513.266 430.175 499.012 430.1 488.827 428.808Z" fill="#E7D9C9"/>
</g>
<g style="mix-blend-mode:multiply" opacity="0.82">
<path d="M432.598 426.874C432.078 427.887 434.202 428.138 434.885 428.808C439.784 428.715 443.407 428.25 442.754 426.548C439.577 425.739 436.28 426.837 432.598 426.874Z" fill="#E7D9C9"/>
</g>
<g style="mix-blend-mode:multiply" opacity="0.82">
<path d="M361.819 440.135C371.307 439.93 370.846 434.49 357.364 434.629C352.376 436.852 352.583 440.33 361.819 440.135Z" fill="#E7D9C9"/>
</g>
<g style="mix-blend-mode:multiply" opacity="0.82">
<path d="M228.07 476.988C231.355 477.682 234.912 477.682 238.196 476.988V475.379C232.643 475.305 229.095 475.779 228.07 476.988Z" fill="#E7D9C9"/>
</g>
<g style="mix-blend-mode:multiply" opacity="0.82">
<path d="M171.871 461.802C182.71 454.762 147.892 456.985 162.873 462.128C165.883 462.204 168.896 462.095 171.871 461.802Z" fill="#E7D9C9"/>
</g>
<g style="mix-blend-mode:multiply" opacity="0.82">
<path d="M142.636 477.648C145.175 475.333 135.064 475.323 132.525 476.346C132.361 478.308 138.36 478.541 142.636 477.648Z" fill="#E7D9C9"/>
</g>
<g style="mix-blend-mode:multiply" opacity="0.82">
<path d="M313.474 454.363C317.231 454.679 317.172 453.916 316.845 453.061C313.905 452.959 313.148 453.507 313.474 454.363Z" fill="#E7D9C9"/>
</g>
<g style="mix-blend-mode:multiply" opacity="0.82">
<path d="M406.748 441.092C402.606 443.25 387.788 442.32 388.767 445.956C402.472 448.067 420.972 443.017 406.748 441.092Z" fill="#E7D9C9"/>
</g>
<g style="mix-blend-mode:multiply" opacity="0.82">
<path d="M346.08 453.061C365.664 452.912 355.063 445.752 343.823 445.305C337.884 442.683 330.356 440.553 324.714 437.866C322.19 437.066 324.284 434.974 317.988 435.271C318.864 437.847 324.506 441.781 331.455 443.641C332.316 447.714 342.858 448.997 348.337 451.731C348.218 452.605 343.081 452.243 346.08 453.061Z" fill="#E7D9C9"/>
</g>
<g style="mix-blend-mode:multiply" opacity="0.82">
<path d="M115.672 448.215C115.361 448.876 112.703 448.857 112.317 449.508C115.94 450.717 114.44 453.414 122.428 453.386C128.991 451.954 124.819 448.011 115.672 448.215Z" fill="#E7D9C9"/>
</g>
<g style="mix-blend-mode:multiply" opacity="0.82">
<path d="M519.175 447.574C507.891 450.811 515.033 458.129 534.914 454.679C540.23 451.573 535.166 446.626 519.175 447.574Z" fill="#E7D9C9"/>
</g>
<g style="mix-blend-mode:multiply" opacity="0.82">
<path d="M203.334 445.305C202.161 446.523 200.364 446.877 203.334 447.89C211.366 448.151 209.08 445.342 203.334 445.305Z" fill="#E7D9C9"/>
</g>
<g style="mix-blend-mode:multiply" opacity="0.82">
<path d="M121.285 431.728C142.695 431.393 117.083 424.772 117.929 431.067C119.096 431.177 120.228 431.399 121.285 431.728V431.728Z" fill="#E7D9C9"/>
</g>
<g style="mix-blend-mode:multiply" opacity="0.82">
<path d="M165.116 434.629C164.729 432.258 164.596 429.83 157.261 429.458C150.268 430.202 148.352 433.764 155.004 434.954C158.731 434.936 160.617 434.406 165.116 434.629Z" fill="#E7D9C9"/>
</g>
<g style="mix-blend-mode:multiply" opacity="0.82">
<path d="M88.6941 433.672C91.827 435.466 103.542 437.308 110.06 435.28C112.228 431.198 90.2531 429.422 88.6941 433.672Z" fill="#E7D9C9"/>
</g>
<g style="mix-blend-mode:multiply" opacity="0.82">
<path d="M128.055 441.418C127.691 441.507 127.378 441.663 127.158 441.865C126.937 442.068 126.819 442.307 126.819 442.552C126.819 442.797 126.937 443.037 127.158 443.239C127.378 443.441 127.691 443.597 128.055 443.687C135.895 444.207 137.053 440.674 128.055 441.418Z" fill="#E7D9C9"/>
</g>
<g style="mix-blend-mode:multiply" opacity="0.82">
<path d="M29.1248 442.078C28.8724 440.097 22.9036 439.772 21.2704 438.191C36.7566 435.643 28.2934 432.918 20.0825 432.807C19.845 436.309 19.5975 439.738 19.3401 443.092C22.2208 442.857 25.1213 442.73 28.0261 442.711C28.2488 442.459 28.0261 442.078 29.1248 442.078Z" fill="#E7D9C9"/>
</g>
<g style="mix-blend-mode:multiply" opacity="0.82">
<path d="M128.055 436.61C124.269 436.275 126.289 437.614 125.799 438.228C129.674 438.414 129.808 437.056 128.055 436.61Z" fill="#E7D9C9"/>
</g>
<g style="mix-blend-mode:multiply" opacity="0.82">
<path d="M560.749 334.707C550.801 334.215 552.85 337.181 549.495 338.585C545.04 339.134 540.972 339.804 541.625 341.822C542.052 341.828 542.473 341.889 542.861 342.001C543.249 342.113 543.597 342.273 543.882 342.472C555.953 341.84 564.699 338.911 560.749 334.707Z" fill="#E7D9C9"/>
</g>
<g style="mix-blend-mode:multiply" opacity="0.82">
<path d="M797.883 450.475C796.962 452.688 800.942 453.488 805.737 454.037C813.687 451.37 822.601 450.035 831.617 450.159C832.934 448.199 835.317 446.594 838.343 445.63C833.889 444.7 826.895 444.607 820.362 444.338C815.804 446.467 804.832 446.765 797.883 448.215C795.596 448.002 797.586 446.579 793.429 446.914C786.094 447.825 794.26 449.824 797.883 450.475Z" fill="#E7D9C9"/>
</g>
<g style="mix-blend-mode:multiply" opacity="0.82">
<path d="M828.232 454.038C816.457 454.968 804.772 454.121 801.268 457.59C809.078 459.608 821.417 456.93 836.101 457.274C839.917 457.897 842.53 458.873 848.469 458.883C855.151 458.752 858.224 452.373 848.469 452.373C843.866 453.526 843.54 455.916 836.101 456.251C834.394 455.284 828.692 455.423 828.232 454.038Z" fill="#E7D9C9"/>
</g>
<g style="mix-blend-mode:multiply" opacity="0.82">
<path d="M718.091 463.086C724.52 462.89 729.316 462.221 729.316 460.184C724.446 458.427 713.221 459.254 714.721 462.128C715.985 462.198 717.174 462.536 718.091 463.086V463.086Z" fill="#E7D9C9"/>
</g>
<g style="mix-blend-mode:multiply" opacity="0.82">
<path d="M899.071 453.061C902.233 453.117 901.253 451.973 905.782 452.419C905.589 450.643 914.245 451.396 914.794 449.825C913.44 449.346 911.893 449.123 910.34 449.183C908.068 451.089 903.659 451.889 896.873 451.777C895.388 452.819 900.451 452.019 899.071 453.061Z" fill="#E7D9C9"/>
</g>
<g style="mix-blend-mode:multiply" opacity="0.82">
<path d="M948.499 454.037V453.107C944.505 453.265 937.66 452.586 938.372 454.037C939.62 454.679 947.088 454.4 948.499 454.037Z" fill="#E7D9C9"/>
</g>
<g style="mix-blend-mode:multiply" opacity="0.82">
<path d="M705.723 466.647V465.354C703.904 465.019 701.997 464.908 700.11 465.029C699.947 466.154 701.09 466.907 705.723 466.647Z" fill="#E7D9C9"/>
</g>
<g style="mix-blend-mode:multiply" opacity="0.82">
<path d="M1026.06 462.128C1027.95 461.058 1032.52 460.751 1031.68 458.882C1023.39 458.352 1019.66 461.226 1026.06 462.128Z" fill="#E7D9C9"/>
</g>
<g style="mix-blend-mode:multiply" opacity="0.82">
<path d="M1024.92 476.988C1009.64 477.416 1016.01 482.075 1026.06 482.819C1034.56 482.279 1031.32 477.788 1024.92 476.988Z" fill="#E7D9C9"/>
</g>
<g style="mix-blend-mode:multiply" opacity="0.82">
<path d="M997.927 461.467C1001.3 461.365 1004.79 461.281 1005.8 460.538C1003.84 458.994 994.764 460.556 997.927 461.467Z" fill="#E7D9C9"/>
</g>
<g style="mix-blend-mode:multiply" opacity="0.82">
<path d="M840.6 498.981C843.02 499.26 844.579 499.781 843.956 500.924C850.593 500.924 851.662 498.535 849.568 497.037C844.134 496.972 843.763 498.376 840.6 498.981Z" fill="#E7D9C9"/>
</g>
<g style="mix-blend-mode:multiply" opacity="0.82">
<path d="M927.148 458.24C924.341 458.733 921.995 459.347 921.505 460.5C930.087 464.09 943.332 459.049 927.148 458.24Z" fill="#E7D9C9"/>
</g>
<g style="mix-blend-mode:multiply" opacity="0.82">
<path d="M1138.43 26.8413C1139.66 30.3471 1145.41 32.2721 1140.67 35.8989C1144.1 37.0706 1146.85 38.4469 1154.16 38.4841C1163.94 37.4054 1157.56 33.8344 1157.56 31.6956C1157.56 30.5145 1161.56 29.5939 1160.91 28.4594C1159.14 25.4185 1140.75 24.163 1138.43 26.8413Z" fill="#E7D9C9"/>
</g>
<g style="mix-blend-mode:multiply" opacity="0.82">
<path d="M1074.36 10.6975C1075.4 12.5574 1074.53 13.4873 1075.51 14.9008C1062.95 18.6206 1052.92 23.075 1036.15 25.5765C1024.27 24.7768 1011.22 30.4866 1022.68 33.3322C1029.2 32.0024 1030.73 28.9243 1044.01 30.4308C1049.36 29.0545 1053.25 27.269 1061.99 26.8691C1072.6 24.0793 1069.7 19.1971 1083.38 17.4953C1093.26 16.2585 1105.34 16.77 1109.23 13.292C1099.23 11.8785 1086.15 9.59086 1074.36 10.6975Z" fill="#E7D9C9"/>
</g>
<g style="mix-blend-mode:multiply" opacity="0.82">
<path d="M566.362 385.463C564.016 383.705 550.341 384.198 553.994 387.072C559.68 387.918 565.1 386.886 566.362 385.463Z" fill="#E7D9C9"/>
</g>
<g style="mix-blend-mode:multiply" opacity="0.82">
<path d="M792.27 405.197C782.872 405.364 783.688 409.93 797.883 409.41C805.099 407.782 797.913 405.113 792.27 405.197Z" fill="#E7D9C9"/>
</g>
<g style="mix-blend-mode:multiply" opacity="0.82">
<path d="M716.977 433.988C718.254 435.345 724 435.41 730.459 435.28C742.961 432.714 717.111 430.1 716.977 433.988Z" fill="#E7D9C9"/>
</g>
<g style="mix-blend-mode:multiply" opacity="0.82">
<path d="M979.946 425.897C971.245 426.195 965.232 427.264 963.109 429.459C964.965 431.263 976.65 431.523 982.203 430.389C985.188 428.947 985.188 426.632 979.946 425.897Z" fill="#E7D9C9"/>
</g>
<g style="mix-blend-mode:multiply" opacity="0.82">
<path d="M747.297 433.337C747.144 433.647 747.175 433.982 747.385 434.28C747.595 434.577 747.97 434.817 748.44 434.955C751.84 434.741 754.899 434.453 755.196 433.337C752.612 433.179 749.42 432.695 747.297 433.337Z" fill="#E7D9C9"/>
</g>
<g style="mix-blend-mode:multiply" opacity="0.82">
<path d="M833.844 404.881C815.7 405.048 829.048 419.062 848.469 412.646C847.385 409.53 842.753 404.797 833.844 404.881Z" fill="#E7D9C9"/>
</g>
<g style="mix-blend-mode:multiply" opacity="0.82">
<path d="M385.412 353.138C388.055 349.949 409.851 346.108 396.666 343.439C389.688 346.499 375.687 347.54 374.187 352.171C377.35 353.204 379.562 353.483 385.412 353.138Z" fill="#E7D9C9"/>
</g>
<g style="mix-blend-mode:multiply" opacity="0.82">
<path d="M350.594 349.902C353.756 349.642 353.489 350.358 356.206 350.237C361.819 349.484 362.635 345.671 352.836 346.025C352.113 346.02 351.406 346.156 350.812 346.414C350.218 346.673 349.766 347.04 349.52 347.466C349.274 347.891 349.245 348.355 349.437 348.791C349.63 349.228 350.034 349.616 350.594 349.902V349.902Z" fill="#E7D9C9"/>
</g>
<g style="mix-blend-mode:multiply" opacity="0.82">
<path d="M840.6 351.521C840.6 352.283 842.53 352.451 841.743 353.464C859.397 357.454 860.466 347.187 840.6 351.521Z" fill="#E7D9C9"/>
</g>
<g style="mix-blend-mode:multiply" opacity="0.82">
<path d="M534.914 351.846C541.952 351.558 544.506 348.443 542.769 346.676H539.383C534.38 347.494 532.628 349.252 532.657 351.521C533.504 351.604 534.87 351.53 534.914 351.846Z" fill="#E7D9C9"/>
</g>
<g style="mix-blend-mode:multiply" opacity="0.82">
<path d="M956.353 347.336C965.395 348.071 970.548 342.891 957.496 343.775C955.239 344.63 951.958 346.406 956.353 347.336Z" fill="#E7D9C9"/>
</g>
<g style="mix-blend-mode:multiply" opacity="0.82">
<path d="M1036.15 348.266V347.336H1030.53C1030.15 348.266 1034.19 347.987 1036.15 348.266Z" fill="#E7D9C9"/>
</g>
<g style="mix-blend-mode:multiply" opacity="0.82">
<path d="M960.867 365.749C964.965 366.893 973.591 368.26 979.946 367.693C984.297 366.893 982.01 364.178 987.845 363.806C996.947 363.527 1007.15 363.564 1009.2 361.22C1004.89 359.872 1001.77 358.198 994.571 357.668C986.672 361.285 966.242 361.378 960.867 365.749Z" fill="#E7D9C9"/>
</g>
<g style="mix-blend-mode:multiply" opacity="0.82">
<path d="M892.3 390.653H897.898C900.511 389.723 898.269 388.16 897.898 387.091C891.973 386.998 889.39 389.23 892.3 390.653Z" fill="#E7D9C9"/>
</g>
<g style="mix-blend-mode:multiply" opacity="0.82">
<path d="M784.401 385.799C779.279 385.947 776.398 386.729 775.389 388.068C780.021 391.583 795.626 387.863 784.401 385.799Z" fill="#E7D9C9"/>
</g>
<g style="mix-blend-mode:multiply" opacity="0.82">
<path d="M697.854 370.287C694.632 371.942 687.549 375.615 695.597 376.75C703.11 376.155 704.609 372.286 703.466 370.287H697.854Z" fill="#E7D9C9"/>
</g>
<g style="mix-blend-mode:multiply" opacity="0.82">
<path d="M905.767 372.221C896.858 375.066 886.361 382.599 897.898 386.449C900.644 382.041 907.073 377.642 908.053 372.546C907.801 372.295 907.073 372.165 905.767 372.221Z" fill="#E7D9C9"/>
</g>
<g style="mix-blend-mode:multiply" opacity="0.82">
<path d="M945.099 364.782C937.883 365.061 935.834 371.18 946.212 370.919C951.914 370.203 956.056 364.679 945.099 364.782Z" fill="#E7D9C9"/>
</g>
<g style="mix-blend-mode:multiply" opacity="0.82">
<path d="M342.725 316.648C352.049 314.928 348.337 311.357 344.937 308.558H338.211C337.305 311.217 329.733 311.943 324.714 313.403C325.947 315.82 333.549 316.434 342.725 316.648Z" fill="#E7D9C9"/>
</g>
<g style="mix-blend-mode:multiply" opacity="0.82">
<path d="M328.1 306.251C323.645 302.606 305.486 304.959 308.976 308.195C312.138 311.068 332.316 309.701 328.1 306.251Z" fill="#E7D9C9"/>
</g>
<g style="mix-blend-mode:multiply" opacity="0.82">
<path d="M297.736 325.947C294.336 325.947 294.93 327.082 294.38 327.891C299.963 327.965 298.077 327.072 297.736 325.947Z" fill="#E7D9C9"/>
</g>
<g style="mix-blend-mode:multiply" opacity="0.82">
<path d="M485.426 344.732C491.603 345.662 488.203 350.665 500.052 348.935C500.126 346.955 490.683 345.216 498.953 343.756C501.922 343.672 499.799 345.011 503.407 344.732C505.352 341.859 496.117 340.78 501.18 338.911C493.385 338.799 490.118 338.241 484.313 339.562C483.051 341.068 486.867 342.286 485.426 344.732Z" fill="#E7D9C9"/>
</g>
<g style="mix-blend-mode:multiply" opacity="0.82">
<path d="M315.731 328.244H310.119C309.243 329.174 306.793 330.69 308.976 331.471C312.435 331.378 314.039 330.773 316.845 330.541C316.845 329.667 317.261 328.662 315.731 328.244Z" fill="#E7D9C9"/>
</g>
<g style="mix-blend-mode:multiply" opacity="0.82">
<path d="M1019.34 342.472C1026.91 340.612 1013.53 337.981 1008.08 339.878C1008.77 341.617 1013.07 342.314 1019.34 342.472Z" fill="#E7D9C9"/>
</g>
<g style="mix-blend-mode:multiply" opacity="0.82">
<path d="M280.884 331.471C283.482 335.507 300.186 336.427 305.62 332.447C301.923 330.811 295.954 329.834 290.995 328.56C286.169 329.109 282.22 329.908 280.884 331.471Z" fill="#E7D9C9"/>
</g>
<g style="mix-blend-mode:multiply" opacity="0.82">
<path d="M443.853 337.608C444.179 336.771 443.467 336.232 440.497 336.325C440.17 337.162 440.883 337.711 443.853 337.608Z" fill="#E7D9C9"/>
</g>
<g style="mix-blend-mode:multiply" opacity="0.82">
<path d="M1240.7 151.667C1238.88 151.331 1236.98 151.221 1235.09 151.342C1233.15 152.885 1241.55 153.127 1240.7 151.667Z" fill="#E7D9C9"/>
</g>
<g style="mix-blend-mode:multiply" opacity="0.82">
<path d="M1015.95 133.236C1018.62 134.398 1025.9 134.24 1027.18 135.83C1021.85 137.746 1025.22 140.238 1031.63 141.326C1047.96 140.201 1036.09 136.676 1030.49 134.816C1063.39 131.59 1014.54 123.034 1015.95 133.236Z" fill="#E7D9C9"/>
</g>
<g style="mix-blend-mode:multiply" opacity="0.82">
<path d="M444.996 109.634C442.793 109.273 440.505 109.163 438.24 109.308C436.162 110.973 432.301 112.098 430.386 113.828C431.589 114.17 432.717 114.607 433.741 115.13C441.314 114.395 440.66 111.299 444.996 109.634Z" fill="#E7D9C9"/>
</g>
<g style="mix-blend-mode:multiply" opacity="0.82">
<path d="M806.881 113.511C809.108 112.898 807.415 111.977 806.881 111.242C802.426 111.149 800.778 111.866 801.268 113.186C804.045 113.056 803.688 113.772 806.881 113.511Z" fill="#E7D9C9"/>
</g>
<g style="mix-blend-mode:multiply" opacity="0.82">
<path d="M740.571 87.3154C739.338 88.9614 743.867 88.9521 746.183 89.5752C746.317 88.9707 749.91 89.352 749.539 88.6453C748.054 87.5758 745.144 86.5808 740.571 87.3154Z" fill="#E7D9C9"/>
</g>
<g style="mix-blend-mode:multiply" opacity="0.82">
<path d="M1027.18 193.71C1025.04 193.775 1022.97 194.199 1021.19 194.939C1019.41 195.679 1017.98 196.706 1017.05 197.913C1015.57 201.326 1021.51 208.077 1032.79 208.263C1030.5 205.176 1040.66 193.896 1027.18 193.71Z" fill="#E7D9C9"/>
</g>
<g style="mix-blend-mode:multiply" opacity="0.82">
<path d="M475.315 205.985C457.335 206.199 464.922 215.005 483.184 214.354C489.124 214.159 496.622 212.429 494.439 210.151C493.533 209.268 480.631 205.929 475.315 205.985Z" fill="#E7D9C9"/>
</g>
<g style="mix-blend-mode:multiply" opacity="0.82">
<path d="M1126.06 133.887C1134.97 131.255 1116.07 129.646 1115.97 132.91C1119.16 133.738 1122.62 134.073 1126.06 133.887V133.887Z" fill="#E7D9C9"/>
</g>
<g style="mix-blend-mode:multiply" opacity="0.82">
<path d="M1093.49 191.44C1095.02 191.678 1096.51 192.005 1097.94 192.417C1103.33 192.129 1106.17 191.115 1106.95 189.506C1103.48 187.06 1092.09 188.753 1093.49 191.44Z" fill="#E7D9C9"/>
</g>
<g style="mix-blend-mode:multiply" opacity="0.82">
<path d="M485.426 188.53C478.552 187.823 463.986 187.87 460.735 189.832C472.969 192.473 455.182 198.294 468.589 200.507C482.071 199.661 505.605 190.641 485.426 188.53Z" fill="#E7D9C9"/>
</g>
<g style="mix-blend-mode:multiply" opacity="0.82">
<path d="M872.062 260.005C863.614 261.316 857.601 258.722 851.825 259.354C848.855 260.545 853.102 261.865 851.825 263.567C846.435 266.468 835.21 267.659 821.476 267.119C817.2 266.952 813.443 265.855 809.138 265.827C796.472 265.743 779.635 268.496 778.789 270.997C778.031 273.089 783.778 274.968 790.014 275.2C806.925 275.833 816.19 268.412 834.988 269.379C839.813 269.714 840.006 271.378 845.099 271.648C855.774 268.3 861.164 261.698 883.317 265.827C887.044 264.013 877.244 261.307 872.062 260.005Z" fill="#E7D9C9"/>
</g>
<g style="mix-blend-mode:multiply" opacity="0.82">
<path d="M851.825 278.762C859.457 276.419 849.093 273.843 843.956 272.299C837.333 274.633 835.567 280.101 851.825 278.762Z" fill="#E7D9C9"/>
</g>
<g style="mix-blend-mode:multiply" opacity="0.82">
<path d="M29.1249 208.263C25.8496 208.286 22.5807 208.448 19.3402 208.747L18.969 212.866C26.1702 213.034 35.747 211.118 29.1249 208.263Z" fill="#E7D9C9"/>
</g>
<g style="mix-blend-mode:multiply" opacity="0.82">
<path d="M340.468 271.322C342.814 271.508 343.675 272.122 347.194 271.964C348.5 271.583 348.471 270.82 348.337 270.03C344.328 269.416 341.195 270.151 340.468 271.322Z" fill="#E7D9C9"/>
</g>
<g style="mix-blend-mode:multiply" opacity="0.82">
<path d="M405.635 275.2C393.014 273.554 384.432 278.241 373.044 279.078C379.428 282.212 380.468 286.89 392.168 288.461C394.736 288.127 395.271 287.206 397.78 286.843C391.96 282.798 404.996 281.961 407.891 279.404C404.462 277.869 405.635 276.502 405.635 275.2Z" fill="#E7D9C9"/>
</g>
<g style="mix-blend-mode:multiply" opacity="0.82">
<path d="M40.3646 132.91C46.853 132.835 52.6882 132.584 53.8612 130.976C53.3415 128.632 41.983 129.311 38.1374 130.325C37.9968 130.586 37.9434 130.862 37.9807 131.137C38.0179 131.411 38.1449 131.678 38.3538 131.92C38.5627 132.163 38.849 132.376 39.195 132.546C39.5409 132.716 39.939 132.84 40.3646 132.91V132.91Z" fill="#E7D9C9"/>
</g>
<g style="mix-blend-mode:multiply" opacity="0.82">
<path d="M17.5139 150.756L17.6921 154.122C21.3298 152.867 22.4582 151.239 17.5139 150.756Z" fill="#E7D9C9"/>
</g>
<g style="mix-blend-mode:multiply" opacity="0.82">
<path d="M684.372 283.281C681.536 284.211 677.096 284.639 675.463 285.876C680.645 286.862 690.534 286.109 692.3 284.258C689.744 283.699 687.075 283.371 684.372 283.281V283.281Z" fill="#E7D9C9"/>
</g>
<g style="mix-blend-mode:multiply" opacity="0.82">
<path d="M92.0794 164.928C86.0512 166.593 86.0215 170.703 94.3362 170.749C102.651 170.796 104.225 165.272 92.0794 164.928Z" fill="#E7D9C9"/>
</g>
<g style="mix-blend-mode:multiply" opacity="0.82">
<path d="M938.373 151.342C931.646 153.071 923.822 160.929 940.629 161.05C941.669 157.786 947.192 152.895 938.373 151.342Z" fill="#E7D9C9"/>
</g>
<g style="mix-blend-mode:multiply" opacity="0.82">
<path d="M571.974 153.908C573.607 152.979 576.651 152.439 579.843 151.965C578.359 148.84 573.904 146.581 565.233 145.455C561.447 148.115 555.76 154.15 571.974 153.908Z" fill="#E7D9C9"/>
</g>
<g style="mix-blend-mode:multiply" opacity="0.82">
<path d="M422.457 149.082C427.906 146.804 414.855 145.493 414.588 148.152C415.493 148.943 418.24 149.259 422.457 149.082Z" fill="#E7D9C9"/>
</g>
<g style="mix-blend-mode:multiply" opacity="0.82">
<path d="M728.202 152.644C721.803 152.262 712.612 151.221 711.335 153.574C714.854 155.954 728.499 156.15 728.202 152.644Z" fill="#E7D9C9"/>
</g>
<g style="mix-blend-mode:multiply" opacity="0.82">
<path d="M468.589 157.814C464.61 164.035 490.43 158.976 468.589 157.814V157.814Z" fill="#E7D9C9"/>
</g>
<g style="mix-blend-mode:multiply" opacity="0.82">
<path d="M623.674 142.609C625.901 145.102 628.128 147.585 634.929 148.766C661.699 147.12 642.961 138.908 623.674 142.609Z" fill="#E7D9C9"/>
</g>
<g style="mix-blend-mode:multiply" opacity="0.82">
<path d="M732.775 123.536C724.223 123.964 730.192 126.782 727.148 128.381C737.705 129.441 743.674 122.978 732.775 123.536Z" fill="#E7D9C9"/>
</g>
<g style="mix-blend-mode:multiply" opacity="0.82">
<path d="M565.233 139.03C593.711 138.918 571.826 132.399 563.006 137.737C563.511 138.239 564.639 138.574 565.233 139.03Z" fill="#E7D9C9"/>
</g>
<g style="mix-blend-mode:multiply" opacity="0.82">
<path d="M595.582 119.333C588.01 121.044 582.397 123.285 578.745 126.122C590.949 129.674 612.642 121.268 595.582 119.333Z" fill="#E7D9C9"/>
</g>
<g style="mix-blend-mode:multiply" opacity="0.82">
<path d="M467.446 165.905C471.559 161.664 453.578 160.743 448.366 156.847C449.02 148.478 433.741 154.169 432.598 157.163C424.966 157.061 417.483 155.712 410.148 156.521C409.554 159.469 415.078 163.226 420.26 165.579C427.862 166.072 428.485 165.058 437.097 165.254C438.854 165.768 440.383 166.544 441.551 167.513C431.069 169.373 431.039 174.19 419.057 175.604C412.242 174.674 395.82 175.529 387.594 176.246C389.554 177.78 396.028 181.825 404.476 181.751C410.742 181.704 413.741 178.301 420.2 178.189C425.946 178.077 433.385 181.509 441.551 181.1C449.718 180.691 448.663 177.603 452.806 176.571C450.787 175.957 451.96 174.441 451.663 173.335C454.098 170.043 464.966 168.49 467.446 165.905Z" fill="#E7D9C9"/>
</g>
<g style="mix-blend-mode:multiply" opacity="0.82">
<path d="M796.769 123.862C801.758 123.378 802.545 124.085 807.994 124.178C807.178 122.551 811.098 122.272 811.394 120.951C805.381 119.445 798.106 121.965 796.769 123.862Z" fill="#E7D9C9"/>
</g>
<g style="mix-blend-mode:multiply" opacity="0.82">
<path d="M734.958 137.17C734.795 137.969 734.735 138.732 737.185 138.778C739.041 138.025 743.481 138.006 742.827 136.519C740.189 136.653 737.562 136.87 734.958 137.17V137.17Z" fill="#E7D9C9"/>
</g>
<g style="mix-blend-mode:multiply" opacity="0.82">
<path d="M766.42 170.75C758.224 171.196 757.734 173.856 755.195 175.93C757.809 176.023 757.274 177.045 760.808 176.859C765.441 175.939 774.809 172.368 766.42 170.75Z" fill="#E7D9C9"/>
</g>
<g style="mix-blend-mode:multiply" opacity="0.82">
<path d="M271.901 168.164C258.953 169.094 267.298 178.17 246.051 177.538C246.244 178.347 244.328 178.551 242.665 178.84C241.582 183.489 249.391 185.526 259.532 186.921C268.708 185.461 267.951 181.155 274.158 178.84C281.21 178.421 282.903 179.556 287.639 179.77C304.833 177.863 286.333 167.076 271.901 168.164Z" fill="#E7D9C9"/>
</g>
<g style="mix-blend-mode:multiply" opacity="0.82">
<path d="M696.74 165.254C704.55 164.472 699.457 162.017 693.355 161.692C687.861 162.678 690.385 165.068 696.74 165.254Z" fill="#E7D9C9"/>
</g>
<g style="mix-blend-mode:multiply" opacity="0.82">
<path d="M300.007 191.441C296.711 190.985 295.731 189.655 290.995 190.511C287.342 191.785 291.129 194.482 297.751 194.714C298.609 194.374 299.283 193.88 299.686 193.296C300.089 192.712 300.201 192.065 300.007 191.441V191.441Z" fill="#E7D9C9"/>
</g>
<g style="mix-blend-mode:multiply" opacity="0.82">
<path d="M253.92 193.71V192.733C245.769 191.106 245.769 195.384 253.92 193.71Z" fill="#E7D9C9"/>
</g>
<g style="mix-blend-mode:multiply" opacity="0.82">
<path d="M360.705 176.227C374.246 175.213 378.953 173.363 391.024 171.707C400.943 171.875 407.639 171.047 409.005 169.438C412.791 165.095 391.188 165.207 384.298 162.975C369.614 163.812 365.397 167.625 356.206 170.08C358.255 171.996 357.439 174.711 360.705 176.227Z" fill="#E7D9C9"/>
</g>
<g style="mix-blend-mode:multiply" opacity="0.82">
<path d="M524.788 191.106C526.418 190.907 527.946 190.463 529.242 189.813C519.19 187.023 538.151 183.945 532.642 180.44C551.247 177.427 525.011 172.07 513.518 170.731C511.232 170.824 511.336 171.605 509.064 171.661C509.287 175.929 520.942 179.389 520.289 183.62C519.799 186.456 514.87 189.925 524.788 191.106Z" fill="#E7D9C9"/>
</g>
<g style="mix-blend-mode:multiply" opacity="0.82">
<path d="M941.728 163.635H946.182V162.343C942.362 162.095 940.877 162.525 941.728 163.635Z" fill="#E7D9C9"/>
</g>
<g style="mix-blend-mode:multiply" opacity="0.82">
<path d="M294.395 196.62C293.088 197.002 293.118 197.764 293.252 198.555C297.914 198.713 300.171 198.173 301.106 197.262C300.037 196.685 298.018 196.434 294.395 196.62Z" fill="#E7D9C9"/>
</g>
<g style="mix-blend-mode:multiply" opacity="0.82">
<path d="M373.044 181.416C373.515 181.281 373.891 181.043 374.101 180.747C374.312 180.451 374.342 180.116 374.187 179.807H368.575C367.713 181.016 369.807 181.378 373.044 181.416Z" fill="#E7D9C9"/>
</g>
<g style="mix-blend-mode:multiply" opacity="0.82">
<path d="M385.412 156.196C384.566 155.155 382.309 154.504 378.686 154.253C376.102 155.229 379.532 156.643 385.412 156.196Z" fill="#E7D9C9"/>
</g>
<g style="mix-blend-mode:multiply" opacity="0.82">
<path d="M1006.98 497.986L1014.73 498.284C1014.03 498.053 1013.3 497.854 1012.55 497.688C1010.65 497.847 1008.8 497.93 1006.98 497.986Z" fill="#E7D9C9"/>
</g>
<g style="mix-blend-mode:multiply" opacity="0.82">
<path d="M1113.72 500.925C1107.3 497.809 1098.55 501.101 1086.73 500.599C1080.27 500.33 1072.02 497.289 1065.4 497.689C1063.98 497.705 1062.6 497.918 1061.33 498.312C1060.07 498.706 1058.96 499.272 1058.09 499.967L1112.6 502.078C1112.95 501.982 1113.25 501.82 1113.45 501.614C1113.66 501.407 1113.75 501.166 1113.72 500.925V500.925Z" fill="#E7D9C9"/>
</g>
<g style="mix-blend-mode:multiply" opacity="0.82">
<path d="M137.024 481.517C137.291 482.131 135.747 482.243 135.91 482.819C139.503 483.926 143.334 484.977 151.649 484.753C158.731 482.642 145.442 480.169 137.024 481.517Z" fill="#E7D9C9"/>
</g>
<g style="mix-blend-mode:multiply" opacity="0.82">
<path d="M121.285 481.247C117.632 481.164 115.88 481.638 115.672 482.54C116.531 482.566 117.34 482.799 117.929 483.191C120.053 483.256 120.409 482.828 122.384 482.865C123.349 481.898 120.84 481.973 121.285 481.247Z" fill="#E7D9C9"/>
</g>
<g style="mix-blend-mode:multiply" opacity="0.82">
<path d="M75.2123 500.283C63.1411 500.283 50.6095 497.242 40.3646 498.656C33.2376 496.442 25.0268 493.411 25.7692 489.933C56.0884 488.901 30.669 485.72 23.5123 483.144C18.6126 481.368 18.0929 479.62 15.9103 478.429C14.2325 493.039 12.7774 502.803 12.4805 504.83L14.3067 505.184L39.2213 504.431C37.7365 503.119 38.2859 501.808 43.7499 500.599C46.7194 501.724 49.5999 502.887 52.5397 504.031L73.089 503.408C74.2769 502.338 75.4944 501.315 75.2123 500.283Z" fill="#E7D9C9"/>
</g>
<g style="mix-blend-mode:multiply" opacity="0.82">
<path d="M711.335 127.089C709.148 126.652 706.797 126.652 704.609 127.089C705.07 128.261 706.436 129.153 710.222 129.358C709.316 128.233 711.885 128.112 711.335 127.089Z" fill="#E7D9C9"/>
</g>
<g style="mix-blend-mode:multiply" opacity="0.82">
<path d="M278.627 483.46C274.083 484.744 267.862 485.534 266.288 487.673C274.318 489.59 282.58 491.101 290.995 492.193C292.435 488.947 289.956 484.111 278.627 483.46Z" fill="#E7D9C9"/>
</g>
<g style="mix-blend-mode:multiply" opacity="0.82">
<path d="M451.722 383.539C446.08 384.106 446.273 386.84 447.268 388.393C441.685 389.053 436.266 390.355 439.398 392.596C427.847 393.154 414.796 399.682 432.643 399.71C442.917 399.71 444.848 395.312 456.265 394.856C461.269 394.716 455.523 397.646 460.72 397.441C467.995 397.088 460.72 394.921 461.819 394.214C476.236 391.434 467.817 384.45 451.722 383.539Z" fill="#E7D9C9"/>
</g>
<g style="mix-blend-mode:multiply" opacity="0.82">
<path d="M561.863 296.189H569.732V294.329H561.863V296.189Z" fill="#E7D9C9"/>
</g>
<g style="mix-blend-mode:multiply" opacity="0.82">
<path d="M743.941 394.53C745.206 394.604 746.391 394.949 747.297 395.507C753.34 395.293 757.69 394.577 758.551 392.912C757.338 392.586 756.208 392.151 755.196 391.62C747.89 391.573 743.733 392.429 743.941 394.53Z" fill="#E7D9C9"/>
</g>
<g style="mix-blend-mode:multiply" opacity="0.82">
<path d="M290.995 414.291C300.913 417.258 299.354 423.535 308.976 426.576C310.965 429.022 309.436 432.49 317.988 433.085C320.631 429.301 308.649 426.948 310.119 422.419C321.581 421.489 327.58 415.482 305.664 416.598C297.201 415.463 298.835 411.688 300.052 408.833C307.476 408.414 305.724 410.646 312.42 410.451C323.615 406.526 298.582 405.95 296.652 402.695C304.878 399.338 313.237 396.037 329.317 394.93C329.614 392.866 325.917 389.546 323.705 387.165C313.029 388.411 315.078 393.312 306.823 395.246C293.771 397.766 278.434 393.898 268.649 395.897C275.598 402.286 296.028 404.36 290.995 414.291Z" fill="#E7D9C9"/>
</g>
<g style="mix-blend-mode:multiply" opacity="0.82">
<path d="M933.874 352.497C918.699 355.287 935.893 359.992 947.355 360.867C959.234 357.9 940.303 354.348 933.874 352.497Z" fill="#E7D9C9"/>
</g>
<g style="mix-blend-mode:multiply" opacity="0.82">
<path d="M458.478 408.442C448.456 408.619 451.202 413.557 460.735 412.32C464.387 411.223 463.11 408.917 458.478 408.442Z" fill="#E7D9C9"/>
</g>
<g style="mix-blend-mode:multiply" opacity="0.82">
<path d="M632.687 405.196C629.391 406.201 626.421 407.289 627.074 409.409C637.542 412.682 646.362 405.736 632.687 405.196Z" fill="#E7D9C9"/>
</g>
<g style="mix-blend-mode:multiply" opacity="0.82">
<path d="M165.115 497.056C165.68 499.167 170.119 500.153 177.484 500.302C177.781 499.846 179.934 499.93 180.854 499.66C182.487 496.917 170.862 495.615 165.115 497.056Z" fill="#E7D9C9"/>
</g>
<g style="mix-blend-mode:multiply" opacity="0.82">
<path d="M807.994 295.901C812.731 294.367 804.698 292.823 800.14 293.958C799.353 295.585 802.456 296.087 807.994 295.901Z" fill="#E7D9C9"/>
</g>
<g style="mix-blend-mode:multiply" opacity="0.82">
<path d="M545.025 295.576C538.24 294.329 522.576 294.804 519.175 296.552C525.738 297.259 543.095 298.049 545.025 295.576Z" fill="#E7D9C9"/>
</g>
<g style="mix-blend-mode:multiply" opacity="0.82">
<path d="M424.759 311.747C416.637 312.212 418.983 316.155 425.872 317.243C438.79 316.434 435.538 311.114 424.759 311.747Z" fill="#E7D9C9"/>
</g>
<g style="mix-blend-mode:multiply" opacity="0.82">
<path d="M801.268 311.068C808.363 312.919 816.102 313.589 823.733 313.012C853.488 310.426 795.27 298.458 801.268 311.068Z" fill="#E7D9C9"/>
</g>
<g style="mix-blend-mode:multiply" opacity="0.82">
<path d="M605.693 294.924C611.529 296.152 623.644 293.697 614.706 292.665C609.539 292.804 605.916 293.399 605.693 294.924Z" fill="#E7D9C9"/>
</g>
<g style="mix-blend-mode:multiply" opacity="0.82">
<path d="M623.674 391.62C620.482 392.234 620.051 395.033 625.931 394.856C627.416 394.214 627 392.996 628.173 392.271C625.961 392.261 626.748 391.397 623.674 391.62Z" fill="#E7D9C9"/>
</g>
<g style="mix-blend-mode:multiply" opacity="0.82">
<path d="M432.598 480.55C426.748 481.294 417.854 482.698 422.516 485.404C428.753 485.404 432.464 484.614 434.885 483.461C434.365 484.976 437.038 485.534 433.741 486.371C413.281 485.441 414.439 491.774 428.129 492.881C432.374 492.293 436.509 491.43 440.467 490.305L444.922 484.725C444.182 484.542 443.459 484.334 442.754 484.102C444.54 483.714 446.074 482.969 447.119 481.982L450.311 478.03C441.878 476.979 433.593 476.598 432.598 480.55Z" fill="#E7D9C9"/>
</g>
<g style="mix-blend-mode:multiply" opacity="0.82">
<path d="M461.833 480.55V479.62C460.111 479.425 458.166 479.155 456.132 478.857L455.835 480.606C457.807 480.327 459.849 480.308 461.833 480.55Z" fill="#E7D9C9"/>
</g>
<g style="mix-blend-mode:multiply" opacity="0.82">
<path d="M548.381 468.228C550.482 468.872 552.798 469.191 555.137 469.158C555.404 469.021 555.619 468.848 555.767 468.653C555.915 468.458 555.991 468.244 555.991 468.028C555.991 467.812 555.915 467.598 555.767 467.403C555.619 467.207 555.404 467.035 555.137 466.898C550.935 466.842 548.515 467.233 548.381 468.228Z" fill="#E7D9C9"/>
</g>
<g style="mix-blend-mode:multiply" opacity="0.82">
<path d="M339.31 488.686C344.016 488.854 344.699 487.868 344.922 486.743C336.013 486.371 329.985 487.673 320.215 488.361C315.939 487.859 313.92 486.724 306.704 487.068C305.219 488.473 299.428 488.631 299.993 490.63C304.625 492.146 309.688 490.007 315.716 489.979C318.003 490.723 321.136 491.225 323.586 491.923C322.576 492.49 320.453 492.732 321.329 493.857H331.44C332.717 492.313 327.179 492.722 325.828 491.923C328.797 491.681 328.797 490.611 330.282 489.979C332.821 490.583 339.844 489.198 341.507 490.63C334.558 491.448 330.475 496.675 342.65 496.768C348.367 493.085 348.218 491.207 339.31 488.686Z" fill="#E7D9C9"/>
</g>
<g style="mix-blend-mode:multiply" opacity="0.82">
<path d="M289.881 473.436C280.973 472.729 278.404 474.282 274.158 475.705C279.473 478.494 286.823 480.15 300.008 479.908C305.679 476.291 287.179 477.23 289.881 473.436Z" fill="#E7D9C9"/>
</g>
<g style="mix-blend-mode:multiply" opacity="0.82">
<path d="M414.647 467.949C405.516 468.033 407.698 469.809 406.748 471.818C410.995 472.329 415.271 472.822 419.116 473.436C421.373 471.381 415.197 470.135 414.647 467.949Z" fill="#E7D9C9"/>
</g>
<g style="mix-blend-mode:multiply" opacity="0.82">
<path d="M376.429 463.411C381.329 463.318 381.433 464.341 385.412 463.745C386.585 462.815 386.585 462.388 385.412 461.467C379.636 461.309 376.429 461.923 376.429 463.411Z" fill="#E7D9C9"/>
</g>
<g style="mix-blend-mode:multiply" opacity="0.82">
<path d="M622.561 429.459C610.489 428.529 607.846 424.856 596.725 423.647C586.139 426.753 606.317 428.055 603.437 432.016C613.103 432.835 617.052 436.945 627.074 436.861C641.655 436.778 648.96 426.967 622.561 429.459Z" fill="#E7D9C9"/>
</g>
<g style="mix-blend-mode:multiply" opacity="0.82">
<path d="M361.819 469.884C366.615 467.289 356.028 462.444 369.673 462.77C369.833 462.462 369.809 462.129 369.607 461.832C369.405 461.534 369.039 461.293 368.574 461.151C364.358 460.807 366.778 462.36 362.947 462.128C360.572 461.728 359.666 460.91 356.206 460.826C347.09 467.81 358.226 473.845 371.93 476.988C378.226 474.096 363.378 472.58 361.819 469.884Z" fill="#E7D9C9"/>
</g>
<g style="mix-blend-mode:multiply" opacity="0.82">
<path d="M422.457 473.808C422.101 475.026 429.51 476.198 431.366 474.738C429.732 474.049 427.342 473.557 422.457 473.808Z" fill="#E7D9C9"/>
</g>
<g style="mix-blend-mode:multiply" opacity="0.82">
<path d="M474.202 473.808C474.632 474.877 477.854 475.463 483.11 475.751C501.492 472.506 472.182 468.73 474.202 473.808Z" fill="#E7D9C9"/>
</g>
<g style="mix-blend-mode:multiply" opacity="0.82">
<path d="M539.383 474.086C543.912 473.315 541.789 472.645 543.838 471.176H534.929C534.81 472.608 534.677 474.04 539.383 474.086Z" fill="#E7D9C9"/>
</g>
</g>
<path opacity="0.63" d="M52 251.512L238.352 250.174L712.06 249.332L918 245L460.599 246.488L52 251.512Z" fill="#A57142"/>
</svg>
