<svg width="163" height="97" viewBox="0 0 163 97" fill="none" xmlns="http://www.w3.org/2000/svg">
<path d="M127.39 0H35.6101C15.9432 0 0 19.2159 0 42.92V53.22C0 76.9241 15.9432 96.14 35.6101 96.14H127.39C147.057 96.14 163 76.9241 163 53.22V42.92C163 19.2159 147.057 0 127.39 0Z" fill="#B26510"/>
<g style="mix-blend-mode:overlay">
<path d="M127.348 3.03003H36.083C17.5976 3.03003 2.56372 20.92 2.56372 42.9V52.46C2.56372 74.46 17.5976 92.33 36.083 92.33H127.348C145.834 92.33 160.868 74.44 160.868 52.46V42.9C160.868 20.92 145.834 3.03003 127.348 3.03003Z" stroke="white" stroke-width="2" stroke-miterlimit="10"/>
</g>
<path d="M127.033 89.61H35.2615C27.2553 89.5994 19.5797 85.7607 13.9192 78.9364C8.2587 72.1121 5.07592 62.8597 5.06934 53.21V42.92C5.07592 33.2703 8.2587 24.0179 13.9192 17.1936C19.5797 10.3693 27.2553 6.53061 35.2615 6.52002H127.033C135.04 6.53061 142.717 10.369 148.378 17.193C154.04 24.017 157.225 33.2694 157.234 42.92V53.21C157.225 62.8607 154.04 72.113 148.378 78.937C142.717 85.761 135.04 89.5994 127.033 89.61ZM35.2615 11.96C28.4401 11.96 21.8981 15.226 17.0746 21.0397C12.2511 26.8533 9.5413 34.7383 9.5413 42.96V53.25C9.5413 61.4717 12.2511 69.3567 17.0746 75.1703C21.8981 80.984 28.4401 84.25 35.2615 84.25H127.033C133.855 84.25 140.397 80.984 145.22 75.1703C150.044 69.3567 152.753 61.4717 152.753 53.25V42.92C152.753 34.6983 150.044 26.8133 145.22 20.9997C140.397 15.1861 133.855 11.92 127.033 11.92L35.2615 11.96Z" fill="#6D3902"/>
<g style="mix-blend-mode:overlay">
<path d="M9.21779 56.9299V46.64C9.21779 37.7075 12.1618 29.1408 17.4023 22.8246C22.6428 16.5084 29.7504 12.96 37.1616 12.96H128.933C133.405 12.9566 137.813 14.2495 141.784 16.7296C145.755 19.2096 149.173 22.8041 151.749 27.21C149.379 21.7821 145.825 17.237 141.469 14.0649C137.114 10.8929 132.122 9.21423 127.033 9.20996H35.2616C27.8504 9.20996 20.7428 12.7584 15.5024 19.0746C10.2619 25.3908 7.31778 33.9575 7.31778 42.89V53.1799C7.29885 60.1467 9.07928 66.9478 12.4121 72.64C10.2983 67.7965 9.20158 62.4025 9.21779 56.9299Z" fill="white"/>
</g>
<path d="M85.4243 9.11993C85.4243 9.11993 85.4243 13.39 91.9622 13.21C98.5002 13.03 100.184 8.45996 100.184 8.45996L85.4243 9.11993Z" fill="#6D3902"/>
<path d="M95.3805 10.57L98.0272 9.04004L99.7944 9.10999C99.7944 9.10999 98.7657 11.62 94.8827 12.77C90.9998 13.92 88.5356 13.04 87.6147 12.41C86.6937 11.78 93.1487 11.88 95.3805 10.57Z" fill="#934900"/>
<path d="M7.70784 30.1699L15.2331 36.7599L20.037 39.6C20.037 39.6 16.4195 38.12 15.0588 37.65C13.6982 37.18 9.72396 35.01 8.67856 35.65C7.63316 36.29 6.96942 40.55 6.51309 39.65C6.05677 38.75 7.70784 30.1699 7.70784 30.1699Z" fill="#6D3902"/>
<path d="M15.0506 37.62L20.0951 39.9101C20.0951 39.9101 15.1999 38.43 14.9344 38.33C14.6689 38.23 9.30918 35.84 9.22621 35.5C9.14324 35.16 15.0506 37.62 15.0506 37.62Z" fill="#FFD818"/>
<path d="M10.1554 28.21C10.1554 28.21 14.6108 34.3 15.1335 34.84C15.6562 35.38 20.0286 39.5699 20.0286 39.5699L15.233 36.7599L8.71997 32.1799L10.1554 28.21Z" fill="#B26510"/>
<path opacity="0.32" d="M15.0754 65.1699C17.5568 67.1589 20.1488 68.9398 22.833 70.4999C25.5378 72.0999 28.3338 73.5999 31.1962 74.9799C34.0586 76.3599 37.004 77.65 40.0075 78.83C43.1001 80.0534 46.2501 81.0551 49.441 81.83C46.9605 79.8336 44.3654 78.0524 41.6752 76.4999C38.9704 74.8933 36.1854 73.4033 33.3202 72.03C30.455 70.6566 27.5124 69.3699 24.4923 68.1699C21.405 66.9477 18.2606 65.946 15.0754 65.1699Z" fill="#6D3902"/>
<path d="M22.6504 69.39C22.6504 69.39 34.9131 74.39 36.755 75.25C38.5969 76.11 45.1846 79.61 45.1846 79.61C45.1846 79.61 30.9804 76.34 22.6504 69.39Z" fill="#6D3902"/>
<path d="M69.9674 88.56L65.6365 80.06L64.8068 74.98C64.8068 74.98 64.5247 78.63 64.309 79.98C64.0933 81.33 64.5496 85.48 62.9981 86.27C61.4465 87.06 55.0082 86.56 56.0287 87.21C57.0492 87.86 69.9674 88.56 69.9674 88.56Z" fill="#6D3902"/>
<path d="M64.2675 80L64.6823 74.76C64.6823 74.76 63.2553 79.69 63.2304 79.95C63.2055 80.21 63.0811 85.69 63.4959 85.85C63.9107 86.01 64.2675 80 64.2675 80Z" fill="#FFD818"/>
<path opacity="0.35" d="M74.5887 86.9299C74.5887 86.9299 68.922 81.33 68.4989 80.7C68.0757 80.07 64.6492 74.7 64.6492 74.7L65.1967 80.09L68.1256 87.1799L74.5887 86.9299Z" fill="#6D3902"/>
<path d="M139.146 3.02997L134.027 7.50995L130.426 9.03998L114.339 25.2399L127.033 9.23993C127.033 9.23993 126.577 6.51996 127.033 6.51996C127.489 6.51996 131.48 6.11993 131.48 6.11993L133.737 0.679932C133.737 0.679932 140.101 2.19997 139.146 3.02997Z" fill="#6D3902"/>
<path d="M113.883 26.24L130.227 9.24C130.426 9.04 135.546 10.84 135.546 10.84C135.546 10.84 114.787 27.05 113.883 26.24Z" fill="#FFD818"/>
<path d="M58.8759 71.8069C74.8237 71.8069 87.7518 60.6572 87.7518 46.9035C87.7518 33.1497 74.8237 22 58.8759 22C42.9282 22 30 33.1497 30 46.9035C30 60.6572 42.9282 71.8069 58.8759 71.8069Z" fill="#ED0009"/>
<path d="M58.8759 73.5725C74.8237 73.5725 87.7518 62.246 87.7518 48.2741C87.7518 34.3022 74.8237 22.9757 58.8759 22.9757C42.9282 22.9757 30 34.3022 30 48.2741C30 62.246 42.9282 73.5725 58.8759 73.5725Z" fill="url(#paint0_linear_256_17749)"/>
<path fill-rule="evenodd" clip-rule="evenodd" d="M58.876 25.9725C69.9803 25.9725 79.4585 32.2681 82.9431 40.9797C78.6919 33.3599 69.4925 28.0865 58.876 28.0865C48.2595 28.0865 39.0368 33.3832 34.8088 40.9797C38.2702 32.2449 47.7716 25.9725 58.876 25.9725Z" fill="url(#paint1_linear_256_17749)"/>
<path fill-rule="evenodd" clip-rule="evenodd" d="M80.5504 59.8663C76.3224 66.0225 68.1916 70.2041 58.876 70.2041C49.5605 70.2041 41.4297 66.0457 37.2017 59.8896C42.4983 64.0711 50.2574 66.7194 58.876 66.7194C67.4947 66.7194 75.277 64.0711 80.5504 59.8663Z" fill="#F57100"/>
<g clip-path="url(#clip0_256_17749)">
<path d="M60.1774 33.4507L64.4101 42.0268L73.8743 43.402C74.9513 43.5585 75.3813 44.882 74.6021 45.6417L67.7535 52.3172L69.3702 61.7432C69.5542 62.8158 68.4283 63.6338 67.4651 63.1274L58.9999 58.677L50.5349 63.1274C49.5716 63.6338 48.4457 62.8158 48.6297 61.7432L50.2464 52.3172L43.3979 45.6417C42.6186 44.882 43.0487 43.5585 44.1257 43.402L53.59 42.0267L57.8225 33.4507C58.3042 32.4748 59.6958 32.4748 60.1774 33.4507Z" fill="url(#paint2_linear_256_17749)"/>
<path d="M64.4099 42.0268L60.1774 33.4507C59.9366 32.9627 59.4683 32.7188 59 32.7188V48.9555L64.4099 42.0268Z" fill="url(#paint3_linear_256_17749)"/>
<path d="M67.7536 52.3173L74.602 45.6417C74.9864 45.2669 75.0761 44.7551 74.9394 44.3137L59 48.9555L67.7536 52.3173Z" fill="url(#paint4_linear_256_17749)"/>
<path d="M59 48.9554L50.2464 52.3172L48.6298 61.7432C48.5381 62.2776 48.7717 62.7486 49.1482 63.0244L59 48.9554Z" fill="url(#paint5_linear_256_17749)"/>
<path d="M50.2463 52.3172L43.3978 45.6417C43.0134 45.2669 42.9237 44.7551 43.0604 44.3137L58.9998 48.9555L50.2463 52.3172Z" fill="url(#paint6_linear_256_17749)"/>
</g>
<defs>
<linearGradient id="paint0_linear_256_17749" x1="58.8823" y1="62.2621" x2="58.8823" y2="27.9248" gradientUnits="userSpaceOnUse">
<stop stop-color="#ED0009"/>
<stop offset="1" stop-color="#F77A0E"/>
</linearGradient>
<linearGradient id="paint1_linear_256_17749" x1="58.8824" y1="40.4252" x2="58.8824" y2="25.824" gradientUnits="userSpaceOnUse">
<stop stop-color="#F57100"/>
<stop offset="0.44" stop-color="#FFB809"/>
<stop offset="1" stop-color="#FFF795"/>
</linearGradient>
<linearGradient id="paint2_linear_256_17749" x1="59.0005" y1="36.283" x2="59.0005" y2="71.5913" gradientUnits="userSpaceOnUse">
<stop stop-color="#F7FF95"/>
<stop offset="0.427" stop-color="#F0C407"/>
<stop offset="1" stop-color="#FFD039"/>
</linearGradient>
<linearGradient id="paint3_linear_256_17749" x1="67.294" y1="40.8363" x2="56.6204" y2="40.8363" gradientUnits="userSpaceOnUse">
<stop stop-color="#FFC200" stop-opacity="0"/>
<stop offset="0.203" stop-color="#FFBB00" stop-opacity="0.203"/>
<stop offset="0.499" stop-color="#FFA700" stop-opacity="0.499"/>
<stop offset="0.852" stop-color="#FF8800" stop-opacity="0.852"/>
<stop offset="1" stop-color="#FF7800"/>
</linearGradient>
<linearGradient id="paint4_linear_256_17749" x1="69.1174" y1="57.1897" x2="66.2907" y2="43.2693" gradientUnits="userSpaceOnUse">
<stop stop-color="#FFC200" stop-opacity="0"/>
<stop offset="0.203" stop-color="#FFBB00" stop-opacity="0.203"/>
<stop offset="0.499" stop-color="#FFA700" stop-opacity="0.499"/>
<stop offset="0.852" stop-color="#FF8800" stop-opacity="0.852"/>
<stop offset="1" stop-color="#FF7800"/>
</linearGradient>
<linearGradient id="paint5_linear_256_17749" x1="47.5162" y1="50.5048" x2="55.6764" y2="57.3316" gradientUnits="userSpaceOnUse">
<stop stop-color="#FFC200" stop-opacity="0"/>
<stop offset="0.203" stop-color="#FFBB00" stop-opacity="0.203"/>
<stop offset="0.499" stop-color="#FFA700" stop-opacity="0.499"/>
<stop offset="0.852" stop-color="#FF8800" stop-opacity="0.852"/>
<stop offset="1" stop-color="#FF7800"/>
</linearGradient>
<linearGradient id="paint6_linear_256_17749" x1="66.0807" y1="40.2239" x2="41.7867" y2="50.5709" gradientUnits="userSpaceOnUse">
<stop stop-color="#FFC200" stop-opacity="0"/>
<stop offset="0.203" stop-color="#FFBB00" stop-opacity="0.203"/>
<stop offset="0.499" stop-color="#FFA700" stop-opacity="0.499"/>
<stop offset="0.852" stop-color="#FF8800" stop-opacity="0.852"/>
<stop offset="1" stop-color="#FF7800"/>
</linearGradient>
<clipPath id="clip0_256_17749">
<rect width="32" height="32" fill="white" transform="translate(43 32)"/>
</clipPath>
</defs>
</svg>
